<svg width="16" height="17" viewBox="0 0 16 17" fill="none" xmlns="http://www.w3.org/2000/svg">
    <g clip-path="url(#clip0_141_3052)">
    <path d="M15.3333 14.7878H3.33333C2.8029 14.7878 2.29419 14.577 1.91912 14.202C1.54405 13.8269 1.33333 13.3182 1.33333 12.7878V0.78776C1.33333 0.610949 1.2631 0.44138 1.13807 0.316356C1.01305 0.191332 0.843478 0.121094 0.666667 0.121094C0.489856 0.121094 0.320286 0.191332 0.195262 0.316356C0.0702379 0.44138 0 0.610949 0 0.78776L0 12.7878C0.00105857 13.6715 0.352588 14.5187 0.97748 15.1436C1.60237 15.7685 2.4496 16.12 3.33333 16.1211H15.3333C15.5101 16.1211 15.6797 16.0509 15.8047 15.9258C15.9298 15.8008 16 15.6312 16 15.4544C16 15.2776 15.9298 15.108 15.8047 14.983C15.6797 14.858 15.5101 14.7878 15.3333 14.7878Z" fill="white" fill-opacity="0.7"/>
    <path d="M3.99967 13.4541C4.17648 13.4541 4.34605 13.3839 4.47108 13.2588C4.5961 13.1338 4.66634 12.9642 4.66634 12.7874V8.12077C4.66634 7.94396 4.5961 7.77439 4.47108 7.64936C4.34605 7.52434 4.17648 7.4541 3.99967 7.4541C3.82286 7.4541 3.65329 7.52434 3.52827 7.64936C3.40325 7.77439 3.33301 7.94396 3.33301 8.12077V12.7874C3.33301 12.9642 3.40325 13.1338 3.52827 13.2588C3.65329 13.3839 3.82286 13.4541 3.99967 13.4541Z" fill="white" fill-opacity="0.7"/>
    <path d="M6.66699 6.78776V12.7878C6.66699 12.9646 6.73723 13.1341 6.86226 13.2592C6.98728 13.3842 7.15685 13.4544 7.33366 13.4544C7.51047 13.4544 7.68004 13.3842 7.80507 13.2592C7.93009 13.1341 8.00033 12.9646 8.00033 12.7878V6.78776C8.00033 6.61095 7.93009 6.44138 7.80507 6.31636C7.68004 6.19133 7.51047 6.12109 7.33366 6.12109C7.15685 6.12109 6.98728 6.19133 6.86226 6.31636C6.73723 6.44138 6.66699 6.61095 6.66699 6.78776Z" fill="white" fill-opacity="0.7"/>
    <path d="M10 8.78776V12.7878C10 12.9646 10.0702 13.1341 10.1953 13.2592C10.3203 13.3842 10.4899 13.4544 10.6667 13.4544C10.8435 13.4544 11.0131 13.3842 11.1381 13.2592C11.2631 13.1341 11.3333 12.9646 11.3333 12.7878V8.78776C11.3333 8.61095 11.2631 8.44138 11.1381 8.31636C11.0131 8.19133 10.8435 8.12109 10.6667 8.12109C10.4899 8.12109 10.3203 8.19133 10.1953 8.31636C10.0702 8.44138 10 8.61095 10 8.78776Z" fill="white" fill-opacity="0.7"/>
    <path d="M13.333 6.12077V12.7874C13.333 12.9642 13.4032 13.1338 13.5283 13.2588C13.6533 13.3839 13.8229 13.4541 13.9997 13.4541C14.1765 13.4541 14.3461 13.3839 14.4711 13.2588C14.5961 13.1338 14.6663 12.9642 14.6663 12.7874V6.12077C14.6663 5.94396 14.5961 5.77439 14.4711 5.64936C14.3461 5.52434 14.1765 5.4541 13.9997 5.4541C13.8229 5.4541 13.6533 5.52434 13.5283 5.64936C13.4032 5.77439 13.333 5.94396 13.333 6.12077Z" fill="white" fill-opacity="0.7"/>
    <path d="M3.99953 6.12071C4.17633 6.12068 4.34587 6.05041 4.47087 5.92538L6.86153 3.53471C6.9886 3.41366 7.15737 3.34614 7.33287 3.34614C7.50836 3.34614 7.67713 3.41366 7.8042 3.53471L9.2522 4.98271C9.62725 5.35766 10.1359 5.56829 10.6662 5.56829C11.1965 5.56829 11.7051 5.35766 12.0802 4.98271L15.8042 1.25871C15.9256 1.13298 15.9928 0.964578 15.9913 0.78978C15.9898 0.614982 15.9197 0.447774 15.7961 0.324168C15.6725 0.200563 15.5053 0.13045 15.3305 0.128931C15.1557 0.127413 14.9873 0.194609 14.8615 0.316047L11.1375 4.03938C11.0125 4.16436 10.843 4.23457 10.6662 4.23457C10.4894 4.23457 10.3199 4.16436 10.1949 4.03938L8.74687 2.59205C8.37181 2.21711 7.86319 2.00647 7.33287 2.00647C6.80254 2.00647 6.29392 2.21711 5.91887 2.59205L3.5282 4.98271C3.43499 5.07595 3.37152 5.19472 3.34581 5.32403C3.3201 5.45333 3.3333 5.58735 3.38375 5.70915C3.43419 5.83095 3.51962 5.93506 3.62923 6.00832C3.73883 6.08157 3.8677 6.12069 3.99953 6.12071Z" fill="white" fill-opacity="0.7"/>
    </g>
    <defs>
    <clipPath id="clip0_141_3052">
    <rect width="16" height="16" fill="white" transform="translate(0 0.121094)"/>
    </clipPath>
    </defs>
    </svg>
    