<svg width="379" height="382" viewBox="0 0 379 382" fill="none" xmlns="http://www.w3.org/2000/svg">
<ellipse opacity="0.6" cx="190" cy="162" rx="114" ry="115" fill="#3855B3"/>
<path d="M226.672 270.688H168.247C158.227 270.688 150.029 262.523 150.029 252.543V201.129C150.029 191.148 158.227 182.983 168.247 182.983H226.672C236.693 182.983 244.891 191.148 244.891 201.129V252.543C244.891 262.522 236.692 270.688 226.672 270.688Z" fill="white"/>
<path d="M226.672 182.982C236.692 182.982 244.89 191.148 244.89 201.128V252.542C244.89 262.522 236.692 270.688 226.672 270.688H168.248C158.227 270.688 150.029 262.522 150.029 252.542V201.128C150.029 191.148 158.227 182.982 168.248 182.982H226.672ZM226.672 180.114H168.248C165.41 180.114 162.651 180.673 160.048 181.775C157.538 182.837 155.283 184.353 153.345 186.285C151.406 188.216 149.883 190.463 148.816 192.961C147.711 195.554 147.149 198.302 147.149 201.128V252.542C147.149 255.368 147.711 258.116 148.816 260.709C149.883 263.208 151.406 265.455 153.345 267.385C155.283 269.316 157.539 270.834 160.048 271.896C162.651 272.997 165.41 273.556 168.248 273.556H226.673C229.51 273.556 232.269 272.997 234.872 271.896C237.382 270.834 239.637 269.317 241.575 267.385C243.514 265.455 245.037 263.208 246.104 260.709C247.21 258.116 247.771 255.368 247.771 252.542V201.128C247.771 198.302 247.21 195.554 246.104 192.961C245.037 190.462 243.515 188.216 241.575 186.285C239.637 184.354 237.381 182.837 234.872 181.775C232.269 180.673 229.51 180.114 226.672 180.114Z" fill="#10277C"/>
<path d="M243.584 238.897C234.487 239.959 225.421 240.22 225.421 240.22C225.421 240.22 220.803 217.288 219.523 199.305C218.58 185.981 219.467 175.378 225.421 178.836C228.16 180.428 231.314 183.425 234.603 187.226C246.941 201.489 261.115 227.101 261.893 232.415C262.395 235.834 252.977 237.794 243.584 238.897Z" fill="white"/>
<path d="M224.203 241.748L223.954 240.515C223.926 240.374 221.103 226.283 219.275 211.693C218.197 203.091 217.671 195.988 217.709 190.584C217.76 183.202 218.837 179.015 221.095 177.408C222.087 176.703 223.773 176.155 226.176 177.551C234.096 182.153 244.147 196.814 249.434 205.143C252.961 210.699 256.337 216.539 258.941 221.587C260.775 225.144 263.034 229.872 263.375 232.2C263.475 232.876 263.408 233.901 262.528 234.945C261.255 236.455 258.611 237.637 254.207 238.663C250.978 239.415 246.829 240.062 241.874 240.587C233.486 241.474 225.544 241.709 225.465 241.712L224.203 241.748ZM223.359 179.668C223.07 179.668 222.918 179.776 222.835 179.834C221.859 180.529 218.931 184.851 222.244 211.308C223.744 223.291 225.922 234.94 226.646 238.685C229.2 238.582 235.261 238.288 241.575 237.619C256.233 236.066 259.507 233.891 260.236 233.028C260.437 232.789 260.421 232.679 260.413 232.631C259.988 229.734 254.458 218.637 246.904 206.736C238.156 192.953 230.052 183.254 224.668 180.126C224.057 179.771 223.642 179.668 223.359 179.668Z" fill="#10277C"/>
<path d="M179.134 177.991L177.293 191.863L176.245 199.749L174.011 216.588C174.011 216.588 169.929 219.354 163.138 221.545C160.6 222.365 157.678 223.099 154.453 223.58C149.18 224.37 143.085 224.47 136.48 223.125C119.489 219.659 109.291 207.088 104.876 200.767C96.3435 188.568 95.0304 185.269 97.4024 180.134C99.2133 176.198 102.316 175.479 102.316 175.479C102.316 175.479 102.163 172.334 104.662 171.215C112.154 167.864 121.804 176.813 121.804 176.813C121.804 176.813 122.163 167.19 127.334 169.412C130.897 170.943 131.705 181.42 131.705 181.42C131.705 181.42 136.487 187.54 144.083 188.352C148.053 188.777 153.547 187.629 159.003 185.963C159.066 185.944 159.13 185.926 159.193 185.904C162.101 185.009 164.99 183.973 167.635 182.948C168.821 182.49 169.958 182.031 171.025 181.591C175.792 179.623 179.134 177.991 179.134 177.991Z" fill="white"/>
<path opacity="0.35" d="M104.874 200.767C109.293 207.086 119.489 219.659 136.479 223.125C147.121 225.293 156.447 223.7 163.139 221.542C169.93 219.354 174.011 216.586 174.011 216.586L174.311 203.298C174.311 203.298 169.684 198.857 165.374 200.668C160.196 202.844 161.855 210.239 154.459 212.296C133.899 218.015 117.197 207.567 111.823 202.98C104.367 196.618 102.422 192.611 101.373 190.957C99.2018 187.536 97.525 184.847 96.5796 182.439C95.6162 186.512 97.6731 190.468 104.874 200.767Z" fill="#10277C"/>
<path d="M146.732 225.648C143.184 225.648 139.651 225.293 136.179 224.584C128.541 223.027 121.415 219.519 115 214.158C110.872 210.708 107.052 206.489 103.647 201.619C99.492 195.676 96.851 191.593 95.6465 188.314C94.4921 185.171 94.6065 182.621 96.0397 179.51C97.4508 176.447 99.5842 175.038 100.873 174.434C101.084 172.859 101.904 170.816 104.048 169.857C110.14 167.132 117.17 171.35 120.649 173.946C120.683 173.77 120.721 173.589 120.761 173.407C121.338 170.83 122.334 169.081 123.72 168.21C124.571 167.675 125.992 167.212 127.93 168.046C129.896 168.891 131.33 171.382 132.315 175.659C132.82 177.85 133.062 179.907 133.154 180.818C134.212 182.011 138.347 186.24 144.245 186.87C155.01 188.019 178.24 176.766 178.474 176.652C178.969 176.41 179.558 176.459 180.006 176.78C180.453 177.101 180.688 177.642 180.616 178.186L175.497 216.781C175.441 217.203 175.208 217.58 174.855 217.818C174.684 217.934 170.579 220.69 163.752 222.912C159.754 224.213 155.64 225.061 151.526 225.432C149.927 225.576 148.328 225.648 146.732 225.648ZM102.662 176.927C102.469 176.98 100.184 177.661 98.7598 180.752C96.8419 184.915 97.3134 187.342 106.103 199.915C114.367 211.735 124.974 219.255 136.779 221.663C147.535 223.857 156.877 222.011 162.821 220.077C167.859 218.438 171.334 216.481 172.619 215.701L177.289 180.496C174.85 181.605 170.859 183.348 166.381 185.02C156.412 188.741 148.856 190.36 143.925 189.834C135.791 188.966 130.736 182.607 130.524 182.336C130.344 182.105 130.235 181.827 130.213 181.535C130.211 181.51 130.008 178.966 129.39 176.293C128.347 171.786 127.1 170.935 126.743 170.782C125.849 170.397 125.463 170.639 125.318 170.73C124.06 171.519 123.378 174.795 123.296 176.869C123.273 177.451 122.911 177.967 122.371 178.189C121.829 178.411 121.209 178.3 120.78 177.902C120.691 177.82 111.767 169.671 105.274 172.576C103.779 173.246 103.806 175.265 103.81 175.41C103.854 176.146 103.385 176.775 102.662 176.927Z" fill="#10277C"/>
<path d="M123.035 176.812C123.07 177.23 123.007 177.611 122.923 177.942C122.881 178.112 122.829 178.26 122.777 178.411C122.723 178.553 122.665 178.697 122.607 178.826C122.371 179.355 122.116 179.794 121.873 180.219C121.63 180.642 121.395 181.044 121.177 181.447L121.018 181.751C120.967 181.852 120.914 181.953 120.865 182.055L120.724 182.364L120.589 182.675L120.466 182.991L120.353 183.313C120.314 183.42 120.285 183.53 120.251 183.639C120.215 183.748 120.187 183.859 120.158 183.97C120.044 184.416 119.946 184.874 119.89 185.347C119.828 185.819 119.788 186.304 119.777 186.796C119.765 187.044 119.769 187.291 119.767 187.543C119.763 187.67 119.774 187.794 119.774 187.921C119.777 188.048 119.781 188.175 119.78 188.304V188.313C119.78 188.412 119.7 188.492 119.599 188.492C119.529 188.492 119.469 188.453 119.44 188.395C119.199 187.931 118.982 187.449 118.814 186.946C118.637 186.445 118.511 185.922 118.418 185.387C118.235 184.316 118.239 183.184 118.44 182.078L118.523 181.665C118.555 181.529 118.59 181.393 118.624 181.256C118.66 181.121 118.701 180.988 118.739 180.853C118.778 180.72 118.825 180.589 118.869 180.457C119.049 179.933 119.272 179.435 119.501 178.968C119.73 178.501 119.974 178.061 120.171 177.679C120.379 177.293 120.497 176.979 120.566 176.809L120.711 176.454C120.962 175.839 121.668 175.543 122.285 175.794C122.722 175.972 122.998 176.375 123.035 176.812Z" fill="#10277C"/>
<path d="M134.835 224.148C134.457 224.148 134.093 223.94 133.913 223.581C133.66 223.074 133.867 222.459 134.376 222.207C138.525 220.151 141.36 213.735 142.573 203.651C143.513 195.836 143.123 188.568 143.119 188.496C143.087 187.932 143.521 187.448 144.088 187.416C144.652 187.384 145.14 187.817 145.172 188.382C145.176 188.455 145.577 195.878 144.618 203.867C144.052 208.595 143.126 212.606 141.867 215.79C140.238 219.91 138.026 222.686 135.292 224.041C135.145 224.114 134.989 224.148 134.835 224.148Z" fill="#10277C"/>
<g opacity="0.35">
<g opacity="0.35">
<g opacity="0.35">
<g opacity="0.35">
<path opacity="0.35" d="M267.569 290.083V289.875C265.924 289.945 267.569 290.083 267.569 290.083Z" fill="#10277C"/>
</g>
</g>
</g>
</g>
<path d="M246.81 264.918H148.005C148.005 264.918 148.607 247.935 154.452 223.579C156.794 213.811 159.983 202.857 164.312 191.337C165.352 188.571 166.46 185.772 167.635 182.947C170.92 175.064 174.752 166.992 179.22 158.919H215.596C219.289 165.594 222.548 172.265 225.422 178.835C227.281 183.084 228.98 187.288 230.529 191.418C237.291 209.419 241.262 226.034 243.585 238.896C246.451 254.762 246.81 264.918 246.81 264.918Z" fill="white"/>
<path d="M233.246 204.084C235.155 206.208 236.028 208.679 236.835 211.161C237.24 212.403 237.639 213.647 238.02 214.896C238.21 215.521 238.406 216.145 238.577 216.775C238.752 217.403 238.922 218.034 239.093 218.664L239.593 220.558C239.758 221.19 239.924 221.821 240.079 222.456L240.988 226.267C241.136 226.903 241.298 227.534 241.443 228.171L241.877 230.081L242.322 231.987C242.471 232.623 242.626 233.257 242.766 233.894L243.623 237.716C243.771 238.351 243.897 238.992 244.033 239.631L244.435 241.547L244.635 242.505L244.736 242.985L244.829 243.465L245.205 245.387C245.331 246.028 245.46 246.668 245.595 247.306C245.725 247.946 245.856 248.586 245.993 249.225C246.566 251.776 246.983 254.36 247.157 256.977C247.179 257.304 247.205 257.63 247.22 257.959L247.262 258.943C247.284 259.6 247.302 260.257 247.292 260.918C247.288 261.578 247.273 262.238 247.23 262.901C247.192 263.564 247.137 264.227 247.036 264.895C247.017 265.024 246.896 265.112 246.767 265.093C246.679 265.08 246.61 265.02 246.58 264.943L246.58 264.94C246.107 263.69 245.721 262.435 245.357 261.18C245.178 260.552 245.005 259.923 244.838 259.294L244.597 258.349C244.522 258.034 244.444 257.719 244.365 257.403C244.059 256.142 243.789 254.878 243.546 253.608C243.429 252.972 243.323 252.334 243.226 251.695C243.121 251.057 243.025 250.417 242.926 249.778C242.829 249.138 242.727 248.5 242.623 247.861C242.513 247.224 242.39 246.589 242.266 245.954L241.893 244.048L241.8 243.572L241.701 243.097L241.501 242.147L241.103 240.247C240.968 239.614 240.842 238.979 240.697 238.348L239.846 234.559C239.709 233.926 239.55 233.299 239.399 232.669L238.934 230.784L238.458 228.901C238.381 228.587 238.293 228.275 238.209 227.963L237.953 227.026L236.925 223.281C236.57 222.037 236.206 220.794 235.86 219.547C235.687 218.923 235.514 218.3 235.346 217.674L235.221 217.206L235.089 216.739L234.828 215.804C234.48 214.557 234.15 213.305 233.825 212.051L233.586 211.109C233.507 210.795 233.419 210.484 233.335 210.171C233.168 209.544 233.028 208.91 232.923 208.265C232.818 207.62 232.745 206.964 232.717 206.294C232.702 205.958 232.7 205.619 232.713 205.275C232.726 204.931 232.748 204.583 232.809 204.223L232.811 204.209C232.834 204.073 232.964 203.981 233.1 204.004C233.159 204.015 233.21 204.044 233.246 204.084Z" fill="#10277C"/>
<path d="M147.773 264.911C147.621 264.573 147.516 264.238 147.418 263.901C147.32 263.563 147.247 263.23 147.182 262.894C147.051 262.222 146.98 261.554 146.94 260.888C146.922 260.554 146.91 260.222 146.911 259.89C146.912 259.558 146.925 259.228 146.94 258.897L146.996 257.907C147.014 257.576 147.034 257.246 147.061 256.917C147.164 255.599 147.265 254.28 147.419 252.968C147.489 252.311 147.567 251.656 147.645 250.999C147.682 250.671 147.734 250.345 147.778 250.017L147.917 249.037L148.207 247.077C148.309 246.425 148.428 245.776 148.539 245.125C148.766 243.825 148.98 242.523 149.239 241.229C149.491 239.933 149.721 238.634 149.979 237.341C150.24 236.049 150.496 234.755 150.747 233.46C150.811 233.136 150.869 232.812 150.939 232.49L151.146 231.523L151.56 229.589L151.974 227.655C152.009 227.493 152.041 227.332 152.079 227.171L152.192 226.69L152.419 225.727L153.327 221.877C153.4 221.555 153.482 221.236 153.564 220.916C153.643 220.596 153.723 220.276 153.799 219.956C153.952 219.314 154.103 218.673 154.249 218.029C154.398 217.387 154.543 216.743 154.697 216.101C154.845 215.458 155.031 214.825 155.217 214.192C155.407 213.56 155.609 212.931 155.82 212.305C156.033 211.68 156.258 211.058 156.486 210.438L156.838 209.51C156.897 209.356 156.963 209.204 157.027 209.05C157.092 208.898 157.155 208.745 157.222 208.592C157.488 207.983 157.757 207.377 158.044 206.776C158.327 206.174 158.622 205.577 158.932 204.985C159.242 204.393 159.564 203.806 159.921 203.23C159.989 203.12 160.135 203.085 160.246 203.154C160.322 203.201 160.362 203.284 160.358 203.367V203.37C160.21 206.075 159.701 208.648 159.2 211.22C159.07 211.862 158.939 212.503 158.794 213.14C158.648 213.777 158.492 214.41 158.326 215.041C157.979 216.298 157.63 217.554 157.266 218.808C157.084 219.435 156.907 220.062 156.732 220.691C156.643 221.005 156.56 221.32 156.475 221.635C156.392 221.95 156.307 222.265 156.236 222.584L155.338 226.394L155.114 227.346L155.002 227.822C154.965 227.981 154.933 228.141 154.898 228.3L154.488 230.213L154.079 232.127L153.874 233.084C153.805 233.403 153.748 233.724 153.685 234.043C152.633 239.156 151.926 244.33 151.239 249.494L150.973 251.429C150.89 252.075 150.807 252.721 150.716 253.366L150.186 257.236C150.09 257.881 150.013 258.526 149.925 259.171C149.88 259.493 149.832 259.816 149.772 260.137C149.713 260.458 149.655 260.78 149.582 261.1C149.438 261.741 149.26 262.38 149.048 263.018C148.943 263.336 148.817 263.656 148.688 263.974C148.555 264.292 148.411 264.612 148.234 264.929L148.232 264.932C148.163 265.055 148.007 265.099 147.884 265.03C147.832 265.001 147.795 264.958 147.773 264.911Z" fill="#10277C"/>
<path d="M176.462 243.49C170.827 245.763 162.106 245.288 156.161 244.571C152.595 244.141 150.091 240.863 150.617 237.324C151.097 234.094 153.951 231.746 157.225 231.898C162.786 232.158 171.128 232.279 176.411 231.112" fill="white"/>
<g opacity="0.35">
<g opacity="0.35">
<g opacity="0.35">
<g opacity="0.35">
<path opacity="0.35" d="M176.464 243.49C170.827 245.765 162.106 245.285 156.161 244.573C152.595 244.143 150.092 240.863 150.618 237.326C150.722 236.605 150.95 235.927 151.273 235.308C152.212 237.094 153.99 238.41 156.161 238.672C162.095 239.389 170.802 239.864 176.439 237.603L176.464 243.49Z" fill="#10277C"/>
</g>
</g>
</g>
</g>
<path d="M165.259 246.654C161.998 246.654 158.757 246.386 155.981 246.051C153.855 245.795 151.968 244.72 150.668 243.023C149.366 241.324 148.822 239.223 149.136 237.107C149.422 235.178 150.411 233.434 151.92 232.194C153.431 230.952 155.34 230.319 157.294 230.411C165.487 230.793 172.16 230.525 176.086 229.658C176.874 229.485 178.832 229.478 179.988 233.18C181.162 236.94 181.032 243.258 177.024 244.874C173.719 246.205 169.474 246.654 165.259 246.654ZM156.921 233.382C154.507 233.382 152.455 235.133 152.098 237.542C151.903 238.855 152.24 240.159 153.048 241.214C153.854 242.265 155.023 242.931 156.341 243.09C164.843 244.115 171.79 243.767 175.901 242.109C177.122 241.616 177.473 239.645 177.567 238.821C177.896 235.936 177.015 233.272 176.463 232.627C171.105 233.748 163.032 233.662 157.155 233.388C157.076 233.384 156.998 233.382 156.921 233.382Z" fill="#10277C"/>
<path d="M219.566 243.49C225.201 245.763 233.923 245.288 239.868 244.571C243.434 244.141 245.937 240.863 245.412 237.324C244.932 234.094 242.078 231.746 238.804 231.898C233.243 232.158 224.901 232.279 219.618 231.112" fill="white"/>
<g opacity="0.35">
<g opacity="0.35">
<g opacity="0.35">
<g opacity="0.35">
<path opacity="0.35" d="M239.866 244.573C233.921 245.285 225.2 245.766 219.563 243.49L219.587 237.549C225.224 239.81 233.931 239.334 239.866 238.617C242.027 238.36 243.795 237.054 244.738 235.278C245.071 235.901 245.304 236.589 245.414 237.326C245.936 240.863 243.433 244.143 239.866 244.573Z" fill="#10277C"/>
</g>
</g>
</g>
</g>
<path d="M230.77 246.654C226.555 246.654 222.31 246.206 219.004 244.873C214.997 243.257 214.867 236.94 216.041 233.179C217.196 229.478 219.155 229.484 219.943 229.658C223.869 230.526 230.543 230.793 238.734 230.41C240.691 230.319 242.598 230.953 244.109 232.193C245.617 233.433 246.606 235.178 246.893 237.106C247.207 239.222 246.662 241.323 245.361 243.023C244.061 244.719 242.174 245.794 240.048 246.051C237.272 246.385 234.03 246.654 230.77 246.654ZM219.566 232.627C219.014 233.272 218.133 235.937 218.462 238.821C218.556 239.646 218.906 241.617 220.128 242.109C224.24 243.767 231.187 244.116 239.689 243.091C241.006 242.932 242.176 242.266 242.981 241.214C243.789 240.16 244.127 238.856 243.932 237.542C243.563 235.057 241.389 233.272 238.875 233.388C232.997 233.663 224.924 233.748 219.566 232.627Z" fill="#10277C"/>
<path d="M221.744 227.022V246.858C221.744 250.539 218.72 253.551 215.025 253.551H178.347C174.657 253.551 171.632 250.539 171.632 246.858V227.022C171.632 223.342 174.657 220.334 178.347 220.334H215.025C217.2 220.334 219.142 221.378 220.373 222.985C221.232 224.108 221.744 225.509 221.744 227.022Z" fill="white"/>
<g opacity="0.35">
<g opacity="0.35">
<g opacity="0.35">
<g opacity="0.35">
<path opacity="0.35" d="M221.743 227.022V246.858C221.743 250.539 218.72 253.549 215.025 253.549H178.348C174.653 253.549 171.63 250.539 171.63 246.858V239.439C177.138 245.033 187.972 248.544 197.907 248.596C201.1 248.614 203.675 246.099 203.903 242.927C203.905 242.895 203.908 242.863 203.91 242.831C204.155 240.049 206.456 237.795 209.253 237.594C212.439 237.366 215.129 239.709 215.444 242.755C220.253 236.842 218.844 226.564 220.374 222.985C221.234 224.11 221.743 225.508 221.743 227.022Z" fill="#10277C"/>
</g>
</g>
</g>
</g>
<path d="M215.026 255.041H178.347C173.819 255.041 170.134 251.371 170.134 246.861V227.022C170.134 222.512 173.819 218.842 178.347 218.842H215.026C219.554 218.842 223.239 222.512 223.239 227.022V246.861C223.239 251.371 219.554 255.041 215.026 255.041ZM178.347 221.824C175.469 221.824 173.128 224.156 173.128 227.022V246.861C173.128 249.728 175.469 252.06 178.347 252.06H215.026C217.904 252.06 220.246 249.728 220.246 246.861V227.022C220.246 224.156 217.904 221.824 215.026 221.824H178.347Z" fill="#10277C"/>
<path d="M209.68 242.71C212.879 242.71 215.473 240.127 215.473 236.941C215.473 233.755 212.879 231.172 209.68 231.172C206.481 231.172 203.888 233.755 203.888 236.941C203.888 240.127 206.481 242.71 209.68 242.71Z" fill="#22A7F0"/>
<g opacity="0.7">
<g opacity="0.7">
<g opacity="0.7">
<g opacity="0.7">
<path opacity="0.7" d="M215.473 236.941C215.473 237.336 215.435 237.72 215.36 238.094C214.825 235.456 212.485 233.472 209.682 233.472C206.875 233.472 204.535 235.456 204 238.094C203.925 237.72 203.887 237.337 203.887 236.941C203.887 233.754 206.481 231.174 209.682 231.174C212.878 231.174 215.473 233.754 215.473 236.941Z" fill="white"/>
</g>
</g>
</g>
</g>
<g opacity="0.35">
<g opacity="0.35">
<g opacity="0.35">
<g opacity="0.35">
<path opacity="0.35" d="M215.471 236.94C215.471 240.126 212.879 242.708 209.68 242.708C206.482 242.708 203.89 240.126 203.89 236.94C203.89 236.204 204.029 235.5 204.287 234.853C205.122 237.005 207.223 238.528 209.681 238.528C212.14 238.528 214.24 237.005 215.075 234.853C215.332 235.5 215.471 236.203 215.471 236.94Z" fill="#10277C"/>
</g>
</g>
</g>
</g>
<path d="M209.68 243.828C205.868 243.828 202.766 240.739 202.766 236.941C202.766 233.144 205.868 230.054 209.68 230.054C213.493 230.054 216.595 233.144 216.595 236.941C216.595 240.739 213.493 243.828 209.68 243.828ZM209.68 232.291C207.106 232.291 205.011 234.377 205.011 236.941C205.011 239.505 207.106 241.592 209.68 241.592C212.255 241.592 214.35 239.505 214.35 236.941C214.35 234.377 212.255 232.291 209.68 232.291Z" fill="#10277C"/>
<path d="M193.268 254.668C192.647 254.668 192.145 254.168 192.145 253.551V239.964L184.81 234.463V220.333C184.81 219.715 185.313 219.215 185.933 219.215C186.552 219.215 187.055 219.716 187.055 220.333V233.347L194.39 238.848V253.551C194.39 254.168 193.887 254.668 193.268 254.668Z" fill="#10277C"/>
<path d="M197.406 264.23C203.894 264.23 210.133 261.833 215.006 257.566C221.756 251.656 233.119 244.607 245.662 249.128C250.694 250.941 254.124 254.267 256.464 257.948C262.49 244.041 275.13 243.208 280.602 251.089C280.602 251.089 271.405 294.79 268.408 295.763C264.114 297.156 253.796 295.691 253.796 295.691C253.796 295.691 217.902 290.851 197.406 290.851C176.909 290.851 141.015 295.691 141.015 295.691C141.015 295.691 130.698 297.155 126.404 295.763C123.407 294.79 114.21 251.089 114.21 251.089C119.68 243.207 132.322 244.041 138.348 257.948C140.687 254.266 144.117 250.941 149.15 249.128C161.692 244.607 173.055 251.656 179.805 257.566C184.678 261.832 190.917 264.23 197.406 264.23Z" fill="white"/>
<g opacity="0.35">
<path d="M280.603 251.088C280.603 251.088 271.405 294.79 268.408 295.763C264.116 297.157 253.796 295.693 253.796 295.693C253.796 295.693 217.904 290.851 197.405 290.851C176.911 290.851 141.015 295.693 141.015 295.693C141.015 295.693 130.698 297.157 126.407 295.763C123.409 294.79 114.212 251.088 114.212 251.088C115.114 249.791 116.206 248.729 117.434 247.924C120.383 260.737 124.565 277.468 126.407 278.064C130.699 279.454 141.015 277.99 141.015 277.99C141.015 277.99 176.911 268.307 197.405 268.307C217.904 268.307 253.796 277.99 253.796 277.99C253.796 277.99 264.116 279.454 268.408 278.064C270.249 277.468 274.432 260.737 277.381 247.924C278.609 248.729 279.701 249.791 280.603 251.088Z" fill="#10277C"/>
</g>
<path d="M131.938 297.851C129.687 297.851 127.487 297.683 125.941 297.181C124.886 296.838 123.999 295.674 122.335 290.51C121.36 287.487 120.191 283.277 118.861 277.998C116.465 268.494 114.13 257.834 113.237 253.692C112.77 251.524 113.483 249.281 115.1 247.84C118.203 245.073 122.363 244.008 126.512 244.917C129.126 245.491 131.67 246.85 133.869 248.849C135.69 250.505 137.273 252.574 138.592 255.02C141.27 251.616 144.642 249.168 148.642 247.726C153.175 246.092 157.917 245.768 162.739 246.762C166.631 247.565 170.589 249.229 174.503 251.711C175.2 252.153 175.405 253.074 174.962 253.769C174.518 254.464 173.593 254.668 172.895 254.226C164.841 249.12 157.024 247.876 149.661 250.531C145.508 252.027 142.128 254.79 139.614 258.746C139.317 259.213 138.784 259.478 138.232 259.435C137.679 259.392 137.195 259.047 136.975 258.539C134.457 252.728 130.409 248.825 125.868 247.83C122.671 247.13 119.474 247.944 117.097 250.064C116.279 250.792 115.922 251.943 116.165 253.069C117.007 256.977 119.215 267.064 121.516 276.279C122.78 281.344 123.901 285.465 124.847 288.526C126.172 292.812 126.864 294.069 127.11 294.42C130.491 295.364 138.097 294.602 140.806 294.218C140.809 294.217 140.812 294.217 140.815 294.216C141.175 294.168 177.045 289.362 197.407 289.362C217.769 289.362 253.638 294.168 253.998 294.216C254.001 294.217 254.005 294.217 254.008 294.218C256.718 294.602 264.323 295.364 267.704 294.42C267.946 294.076 268.619 292.855 269.899 288.744C270.823 285.779 271.917 281.783 273.151 276.868C275.351 268.104 277.46 258.567 278.521 253.664C278.869 252.057 278.264 250.409 276.981 249.467C274.531 247.668 271.495 247.131 268.434 247.956C264.047 249.137 260.284 252.896 257.839 258.54C257.62 259.047 257.136 259.392 256.582 259.436C256.028 259.479 255.497 259.214 255.2 258.747C252.686 254.792 249.306 252.028 245.154 250.531C237.726 247.854 229.842 249.141 221.719 254.355C221.024 254.801 220.098 254.602 219.65 253.909C219.202 253.218 219.402 252.295 220.098 251.848C224.034 249.321 228.018 247.62 231.938 246.791C236.807 245.762 241.596 246.078 246.172 247.727C250.173 249.169 253.544 251.617 256.223 255.021C259.035 249.816 263.028 246.322 267.653 245.077C271.557 244.026 275.604 244.751 278.758 247.067C280.988 248.704 282.043 251.539 281.448 254.291C280.324 259.487 278.096 269.552 275.804 278.589C274.505 283.713 273.363 287.796 272.411 290.722C270.787 295.715 269.915 296.845 268.872 297.183C264.321 298.659 254.113 297.244 253.593 297.17C253.03 297.095 217.508 292.344 197.407 292.344C177.303 292.344 141.785 297.095 141.222 297.17C140.876 297.217 136.311 297.851 131.938 297.851Z" fill="#10277C"/>
<path d="M265.742 295.764H268.408C271.538 295.764 274.376 293.935 275.65 291.088C279.64 282.188 286.916 262.631 280.101 250.697C279.903 250.349 279.691 250.014 279.466 249.693C279.466 249.693 272.923 243.765 268.223 252.15C263.833 259.984 254.617 293.476 265.742 295.764Z" fill="#AFAFB2"/>
<g opacity="0.7">
<g opacity="0.7">
<g opacity="0.7">
<g opacity="0.7">
<path opacity="0.7" d="M265.816 257.733C265.934 257.545 266.051 257.368 266.166 257.204C271.945 248.819 279.99 254.746 279.99 254.746C280.266 255.067 280.528 255.402 280.77 255.751C281.577 256.9 282.223 258.118 282.727 259.394C282.401 256.26 281.587 253.296 280.101 250.698C279.903 250.349 279.691 250.014 279.466 249.693C279.466 249.693 272.924 243.766 268.223 252.151C267.51 253.42 266.673 255.359 265.816 257.733Z" fill="white"/>
</g>
</g>
</g>
</g>
<path d="M282.691 260.288C282.624 260.288 282.556 260.282 282.487 260.271L266.133 257.552C265.461 257.44 265.007 256.807 265.119 256.137C265.231 255.467 265.868 255.015 266.539 255.126L282.892 257.845C283.564 257.957 284.019 258.59 283.907 259.261C283.806 259.863 283.284 260.288 282.691 260.288Z" fill="#10277C"/>
<path d="M282.587 269.088C282.532 269.088 282.477 269.085 282.421 269.077L263.291 266.515C262.616 266.425 262.142 265.806 262.232 265.134C262.323 264.461 262.944 263.989 263.62 264.079L282.75 266.641C283.426 266.731 283.9 267.349 283.809 268.022C283.726 268.64 283.196 269.088 282.587 269.088Z" fill="#10277C"/>
<path d="M280.9 277.708C280.85 277.708 280.8 277.705 280.749 277.699L261.329 275.331C260.653 275.249 260.171 274.636 260.254 273.962C260.337 273.289 260.951 272.808 261.629 272.891L281.048 275.259C281.725 275.341 282.206 275.954 282.124 276.628C282.047 277.251 281.515 277.708 280.9 277.708Z" fill="#10277C"/>
<path d="M277.82 287.108C277.783 287.108 277.746 287.106 277.708 287.103L260.346 285.543C259.667 285.482 259.167 284.884 259.228 284.208C259.289 283.532 259.889 283.033 260.568 283.094L277.93 284.654C278.609 284.715 279.11 285.313 279.048 285.989C278.99 286.628 278.451 287.108 277.82 287.108Z" fill="#10277C"/>
<g opacity="0.35">
<g opacity="0.35">
<g opacity="0.35">
<g opacity="0.35">
<path opacity="0.35" d="M265.741 295.763H268.407C271.537 295.763 274.375 293.935 275.649 291.088C276.681 288.781 277.936 285.764 279.109 282.345C277.509 284.99 274.257 286.668 270.687 286.668H267.51C262.988 285.888 261.286 281.471 261.219 275.681C259.69 285.453 260.11 294.605 265.741 295.763Z" fill="#10277C"/>
</g>
</g>
</g>
</g>
<path d="M268.408 296.992H265.743C265.659 296.992 265.576 296.984 265.493 296.967C263.338 296.524 261.71 295.132 260.653 292.83C258.161 287.404 259.372 277.949 260.827 270.974C262.606 262.45 265.353 254.75 267.146 251.551C268.795 248.609 270.872 246.915 273.319 246.518C277.073 245.908 280.167 248.665 280.297 248.783C280.365 248.844 280.426 248.914 280.479 248.988C280.725 249.339 280.959 249.71 281.176 250.09C284.291 255.544 284.951 263.005 283.141 272.265C281.668 279.792 278.868 286.928 276.778 291.589C275.308 294.872 272.023 296.992 268.408 296.992ZM265.877 294.534H268.408C271.049 294.534 273.45 292.985 274.523 290.588C276.56 286.044 279.288 279.095 280.717 271.796C282.412 263.13 281.844 256.236 279.029 251.305C278.876 251.036 278.712 250.774 278.542 250.523C278.08 250.147 275.979 248.569 273.703 248.947C272.042 249.223 270.561 250.502 269.302 252.75C267.641 255.711 264.954 263.281 263.245 271.475C261.294 280.826 261.17 288.047 262.898 291.808C263.599 293.335 264.574 294.228 265.877 294.534Z" fill="#10277C"/>
<path d="M129.071 295.764H126.405C123.276 295.764 120.438 293.935 119.164 291.088C115.173 282.188 107.897 262.631 114.712 250.697C114.911 250.349 115.123 250.014 115.348 249.693C115.348 249.693 121.89 243.765 126.591 252.15C130.981 259.984 140.196 293.476 129.071 295.764Z" fill="#AFAFB2"/>
<g opacity="0.7">
<g opacity="0.7">
<g opacity="0.7">
<g opacity="0.7">
<path opacity="0.7" d="M128.997 257.733C128.879 257.545 128.761 257.368 128.647 257.204C122.868 248.819 114.822 254.746 114.822 254.746C114.546 255.067 114.284 255.402 114.042 255.751C113.235 256.9 112.59 258.118 112.086 259.394C112.411 256.26 113.225 253.296 114.711 250.698C114.909 250.349 115.122 250.014 115.346 249.693C115.346 249.693 121.889 243.766 126.589 252.151C127.302 253.42 128.139 255.359 128.997 257.733Z" fill="white"/>
</g>
</g>
</g>
</g>
<path d="M112.121 260.288C111.529 260.288 111.006 259.862 110.905 259.262C110.793 258.592 111.247 257.959 111.92 257.846L128.273 255.127C128.945 255.016 129.581 255.467 129.693 256.138C129.805 256.807 129.351 257.441 128.678 257.553L112.325 260.272C112.257 260.283 112.189 260.288 112.121 260.288Z" fill="#10277C"/>
<path d="M112.225 269.089C111.616 269.089 111.086 268.64 111.003 268.023C110.912 267.35 111.386 266.732 112.062 266.642L131.193 264.079C131.869 263.988 132.489 264.461 132.581 265.134C132.671 265.807 132.197 266.425 131.522 266.515L112.391 269.078C112.335 269.085 112.28 269.089 112.225 269.089Z" fill="#10277C"/>
<path d="M113.913 277.708C113.298 277.708 112.766 277.251 112.689 276.628C112.606 275.954 113.088 275.341 113.765 275.258L133.184 272.891C133.861 272.809 134.476 273.288 134.559 273.962C134.642 274.636 134.161 275.249 133.484 275.331L114.064 277.699C114.013 277.705 113.962 277.708 113.913 277.708Z" fill="#10277C"/>
<path d="M116.993 287.108C116.361 287.108 115.823 286.627 115.765 285.989C115.704 285.313 116.205 284.716 116.883 284.654L134.245 283.094C134.925 283.033 135.524 283.531 135.586 284.208C135.646 284.884 135.146 285.481 134.467 285.542L117.106 287.103C117.068 287.106 117.03 287.108 116.993 287.108Z" fill="#10277C"/>
<g opacity="0.35">
<g opacity="0.35">
<g opacity="0.35">
<g opacity="0.35">
<path opacity="0.35" d="M129.07 295.763H126.405C123.275 295.763 120.437 293.935 119.163 291.088C118.131 288.781 116.876 285.764 115.703 282.345C117.303 284.99 120.555 286.668 124.125 286.668H127.302C131.824 285.888 133.526 281.471 133.593 275.681C135.122 285.453 134.701 294.605 129.07 295.763Z" fill="#10277C"/>
</g>
</g>
</g>
</g>
<path d="M129.071 296.993H126.405C122.791 296.993 119.505 294.872 118.036 291.589C115.947 286.929 113.146 279.793 111.673 272.266C109.862 263.006 110.523 255.545 113.638 250.09C113.855 249.71 114.089 249.34 114.334 248.989C114.387 248.914 114.448 248.845 114.516 248.784C114.646 248.666 117.74 245.909 121.494 246.519C123.941 246.916 126.018 248.61 127.667 251.552C129.461 254.751 132.207 262.451 133.986 270.975C135.441 277.95 136.652 287.405 134.16 292.831C133.103 295.133 131.475 296.525 129.32 296.968C129.238 296.984 129.154 296.993 129.071 296.993ZM116.27 250.524C116.1 250.774 115.937 251.036 115.784 251.304C112.968 256.236 112.4 263.129 114.096 271.796C115.524 279.096 118.251 286.044 120.289 290.588C121.363 292.986 123.763 294.535 126.404 294.535H128.936C130.238 294.229 131.214 293.336 131.915 291.809C133.642 288.047 133.519 280.826 131.569 271.475C129.859 263.281 127.172 255.711 125.511 252.75C124.252 250.502 122.771 249.223 121.11 248.947C118.838 248.57 116.738 250.143 116.27 250.524Z" fill="#10277C"/>
<path d="M159.162 294.641C158.987 294.641 158.809 294.6 158.643 294.513C158.093 294.227 157.881 293.551 158.169 293.004C162.856 284.084 162.925 274.052 158.374 263.188C154.942 254.994 150.027 249.387 149.977 249.332C149.568 248.869 149.612 248.162 150.077 247.753C150.542 247.345 151.251 247.389 151.661 247.852C151.871 248.088 156.839 253.746 160.42 262.264C162.533 267.29 163.711 272.263 163.923 277.046C164.19 283.06 162.923 288.778 160.157 294.041C159.957 294.423 159.566 294.641 159.162 294.641Z" fill="#10277C"/>
<path d="M236.106 294.641C235.701 294.641 235.311 294.423 235.11 294.041C232.345 288.779 231.078 283.061 231.345 277.047C231.557 272.264 232.735 267.29 234.848 262.265C238.429 253.747 243.397 248.088 243.607 247.852C244.018 247.389 244.727 247.345 245.192 247.754C245.657 248.162 245.701 248.869 245.29 249.332C245.241 249.387 240.326 254.994 236.893 263.188C232.343 274.053 232.412 284.084 237.099 293.004C237.386 293.551 237.174 294.227 236.625 294.513C236.459 294.6 236.281 294.641 236.106 294.641Z" fill="#10277C"/>
<g opacity="0.35">
<path d="M234.604 187.226C233.309 188.702 231.947 190.103 230.528 191.42C227.161 194.543 223.471 197.2 219.523 199.306C212.855 202.869 205.457 204.867 197.667 204.904C190.055 204.938 182.811 203.096 176.244 199.749C171.945 197.554 167.937 194.718 164.311 191.338C162.507 189.653 160.797 187.838 159.192 185.904C162.099 185.01 164.988 183.973 167.633 182.948C170.919 175.065 174.75 166.993 179.219 158.92H215.594C219.287 165.595 222.546 172.266 225.42 178.836C228.16 180.428 231.314 183.425 234.604 187.226Z" fill="#10277C"/>
</g>
<path d="M252.953 151.234C252.32 151.302 251.751 150.846 251.683 150.215L248.133 117.309C248.065 116.678 248.523 116.112 249.156 116.044C255.802 115.333 261.768 120.122 262.482 126.741L263.694 137.962C264.408 144.581 259.599 150.523 252.953 151.234Z" fill="white"/>
<path d="M252.828 151.524C252.501 151.524 252.186 151.415 251.928 151.207C251.629 150.967 251.442 150.625 251.401 150.245L247.851 117.34C247.81 116.96 247.92 116.586 248.161 116.289C248.402 115.991 248.745 115.804 249.127 115.763C255.919 115.036 262.036 119.947 262.766 126.711L263.976 137.933C264.33 141.209 263.381 144.426 261.305 146.992C259.229 149.558 256.273 151.165 252.984 151.517L252.954 151.235L252.984 151.517C252.932 151.522 252.88 151.524 252.828 151.524ZM250.459 116.257C250.039 116.257 249.615 116.279 249.188 116.325C248.957 116.35 248.749 116.463 248.604 116.643C248.458 116.823 248.391 117.048 248.416 117.278L251.966 150.184C251.991 150.414 252.105 150.62 252.286 150.766C252.467 150.911 252.693 150.977 252.924 150.952C256.063 150.616 258.882 149.083 260.863 146.635C262.844 144.188 263.749 141.118 263.412 137.992L262.201 126.77C261.55 120.743 256.414 116.257 250.459 116.257Z" fill="#10277C"/>
<g opacity="0.35">
<g opacity="0.35">
<g opacity="0.35">
<g opacity="0.35">
<path opacity="0.35" d="M263.126 132.7L263.695 137.962C264.409 144.579 259.6 150.522 252.954 151.236C252.321 151.305 251.752 150.845 251.684 150.214L250.737 141.467C250.957 141.847 251.388 142.079 251.853 142.034L252.636 141.947C257.887 141.386 261.995 137.555 263.126 132.7Z" fill="#10277C"/>
</g>
</g>
</g>
</g>
<path d="M252.826 152.818C252.204 152.818 251.605 152.608 251.114 152.214C250.544 151.757 250.188 151.107 250.11 150.383L246.56 117.478C246.482 116.754 246.691 116.043 247.15 115.476C247.608 114.909 248.261 114.554 248.988 114.476C256.49 113.673 263.25 119.1 264.057 126.573L265.267 137.794C265.658 141.413 264.61 144.968 262.316 147.804C260.022 150.638 256.757 152.414 253.122 152.802C253.024 152.812 252.925 152.818 252.826 152.818ZM252.787 149.666H252.786C252.786 149.666 252.786 149.666 252.787 149.666ZM249.755 117.575L253.212 149.613C255.834 149.226 258.179 147.892 259.852 145.824C261.616 143.646 262.421 140.913 262.121 138.13L260.911 126.909C260.306 121.307 255.349 117.201 249.755 117.575Z" fill="#10277C"/>
<path d="M140.108 127.716C140.742 127.648 141.311 128.104 141.379 128.735L144.929 161.64C144.997 162.271 144.539 162.838 143.906 162.906C137.26 163.617 131.294 158.828 130.58 152.209L129.37 140.988C128.654 134.369 133.463 128.427 140.108 127.716Z" fill="white"/>
<path d="M142.602 163.259C136.361 163.26 130.978 158.558 130.296 152.24L129.086 141.019C128.356 134.255 133.287 128.161 140.078 127.434L140.109 127.716L140.078 127.434C140.866 127.35 141.576 127.92 141.661 128.705L145.211 161.61C145.296 162.395 144.724 163.103 143.935 163.187C143.489 163.235 143.043 163.259 142.602 163.259ZM140.232 127.992C140.201 127.992 140.17 127.994 140.138 127.997C133.659 128.69 128.954 134.505 129.651 140.958L130.862 152.179C131.558 158.632 137.394 163.318 143.874 162.625C144.351 162.574 144.697 162.146 144.646 161.672L141.096 128.767C141.048 128.322 140.67 127.992 140.232 127.992Z" fill="#10277C"/>
<g opacity="0.35">
<g opacity="0.35">
<g opacity="0.35">
<g opacity="0.35">
<path opacity="0.35" d="M143.947 152.512L144.931 161.641C145 162.272 144.538 162.838 143.905 162.906C140.417 163.278 137.113 162.136 134.659 160.007C132.443 158.085 130.921 155.353 130.581 152.211L130.071 147.482C132.405 151.429 136.92 153.869 141.792 153.348L142.998 153.219C143.437 153.171 143.785 152.889 143.947 152.512Z" fill="#10277C"/>
</g>
</g>
</g>
</g>
<path d="M142.602 164.552C135.705 164.553 129.758 159.359 129.006 152.377L127.795 141.156C126.989 133.683 132.437 126.951 139.94 126.148C141.439 125.987 142.792 127.072 142.953 128.566L146.503 161.472C146.665 162.967 145.575 164.312 144.074 164.473C143.58 164.527 143.088 164.552 142.602 164.552ZM139.851 129.338C134.306 130.157 130.338 135.218 130.942 140.82L132.153 152.041C132.757 157.643 137.714 161.749 143.308 161.376L139.851 129.338Z" fill="#10277C"/>
<path d="M196.537 195.871C227.808 195.871 253.159 170.621 253.159 139.474C253.159 108.328 227.808 83.0781 196.537 83.0781C165.265 83.0781 139.914 108.328 139.914 139.474C139.914 170.621 165.265 195.871 196.537 195.871Z" fill="white"/>
<path d="M196.482 196.155C189.54 196.155 182.758 194.915 176.292 192.461C169.416 189.852 163.187 185.985 157.775 180.972C152.364 175.957 148.045 170.047 144.935 163.405C141.717 156.528 139.944 149.165 139.667 141.518C139.39 133.872 140.625 126.4 143.338 119.309C145.957 112.461 149.839 106.257 154.873 100.867C159.906 95.4775 165.842 91.1744 172.511 88.0776C179.416 84.8718 186.809 83.1066 194.486 82.8305C202.163 82.5543 209.665 83.7844 216.784 86.4862C223.66 89.0954 229.889 92.9617 235.3 97.9752C240.711 102.99 245.031 108.9 248.14 115.542C251.359 122.419 253.131 129.782 253.408 137.429C253.685 145.075 252.451 152.547 249.738 159.637C247.118 166.486 243.236 172.69 238.202 178.08C233.167 183.469 227.234 187.772 220.565 190.869C213.661 194.074 206.267 195.839 198.59 196.116C197.885 196.142 197.182 196.155 196.482 196.155ZM196.564 83.3599C195.879 83.3599 195.196 83.3722 194.506 83.3967C163.461 84.5129 139.116 110.576 140.236 141.497C140.778 156.475 147.144 170.347 158.162 180.556C168.67 190.293 182.21 195.587 196.486 195.588C197.179 195.588 197.872 195.576 198.568 195.55C213.606 195.01 227.534 188.669 237.784 177.695C248.034 166.722 253.38 152.429 252.838 137.451C251.744 107.217 226.697 83.3599 196.564 83.3599Z" fill="#10277C"/>
<g opacity="0.35">
<g opacity="0.35">
<g opacity="0.35">
<g opacity="0.35">
<path opacity="0.35" d="M252.299 129.659C252.751 132.194 253.029 134.792 253.125 137.441C254.248 168.567 229.829 194.71 198.578 195.836C167.327 196.954 141.08 172.633 139.95 141.508C139.917 140.613 139.905 139.716 139.916 138.832C144.724 166.13 169.125 186.404 197.718 185.377C228.071 184.285 251.975 159.595 252.299 129.659Z" fill="#10277C"/>
</g>
</g>
</g>
</g>
<path d="M196.482 197.448C189.38 197.448 182.444 196.18 175.83 193.67C168.797 191.001 162.425 187.047 156.891 181.918C151.357 176.79 146.939 170.745 143.759 163.951C140.466 156.917 138.654 149.384 138.371 141.564C138.088 133.744 139.351 126.101 142.126 118.848C144.806 111.844 148.776 105.497 153.924 99.9856C159.073 94.4738 165.141 90.0724 171.963 86.906C179.025 83.6264 186.588 81.8211 194.44 81.5392C202.292 81.2573 209.965 82.5152 217.247 85.2793C224.279 87.9483 230.651 91.9023 236.185 97.0306C241.719 102.159 246.137 108.204 249.317 114.998C252.61 122.032 254.422 129.565 254.705 137.385C254.988 145.205 253.725 152.848 250.95 160.101C248.27 167.105 244.301 173.452 239.152 178.963C234.003 184.475 227.933 188.876 221.113 192.043C214.05 195.323 206.487 197.128 198.636 197.41C197.917 197.435 197.198 197.448 196.482 197.448ZM196.564 84.654C195.895 84.654 195.228 84.6663 194.554 84.6901C164.225 85.78 140.44 111.243 141.534 141.451C142.064 156.084 148.284 169.636 159.048 179.611C169.313 189.123 182.541 194.296 196.489 194.296C197.165 194.296 197.843 194.283 198.523 194.259C213.215 193.731 226.821 187.536 236.836 176.816C246.85 166.095 252.073 152.132 251.543 137.499C250.472 107.961 226.002 84.654 196.564 84.654Z" fill="#10277C"/>
<path d="M252.996 138.895C253.563 149.916 250.496 160.332 244.789 169.112C240.51 175.694 222.148 187.768 198.78 189.169C177.113 190.469 156.798 179.963 151.866 173.851C145.287 165.698 141.169 155.649 140.603 144.628C139.103 115.462 163.64 102.087 194.679 100.504C225.716 98.921 251.496 109.729 252.996 138.895Z" fill="#3855B3"/>
<path d="M195.019 190.365C184.245 190.365 174.874 187.69 168.654 185.3C160.778 182.275 153.854 178.047 151.017 174.53C144.052 165.899 140.075 155.578 139.514 144.683C139.143 137.453 140.34 130.894 143.07 125.185C145.642 119.813 149.585 115.158 154.793 111.349C164.308 104.39 178.08 100.266 194.621 99.4224C211.162 98.5792 225.285 101.28 235.463 107.235C241.034 110.494 245.435 114.723 248.544 119.806C251.846 125.206 253.71 131.611 254.081 138.84C254.641 149.735 251.742 160.406 245.7 169.701C243.19 173.562 236.954 178.295 229.428 182.052C222.817 185.352 212.145 189.453 198.844 190.251C197.552 190.328 196.275 190.365 195.019 190.365ZM200.461 101.438C198.588 101.438 196.679 101.487 194.732 101.586C178.617 102.408 165.252 106.388 156.081 113.095C145.841 120.585 140.999 131.175 141.687 144.572C142.224 155.009 146.036 164.899 152.712 173.173C154.698 175.635 160.27 179.758 169.437 183.279C176.182 185.87 186.734 188.807 198.714 188.088C211.647 187.312 222.026 183.324 228.455 180.115C237.07 175.814 242.147 171.182 243.876 168.523C249.668 159.614 252.447 149.388 251.91 138.951C251.222 125.554 245.317 115.511 234.363 109.103C225.737 104.057 214.099 101.438 200.461 101.438Z" fill="#10277C"/>
<g opacity="0.5">
<g opacity="0.5">
<g opacity="0.5">
<g opacity="0.5">
<path d="M241.723 136.787C242.429 131.32 239.778 126.475 235.801 125.965C231.824 125.455 228.027 129.473 227.32 134.94C226.613 140.407 229.265 145.252 233.242 145.762C237.219 146.272 241.016 142.254 241.723 136.787Z" fill="white"/>
</g>
</g>
</g>
</g>
<g opacity="0.5">
<g opacity="0.5">
<g opacity="0.5">
<g opacity="0.5">
<path d="M230.468 157.107C231.138 154.667 229.976 152.225 227.874 151.652C225.771 151.08 223.524 152.595 222.854 155.035C222.184 157.475 223.346 159.918 225.449 160.49C227.551 161.062 229.799 159.548 230.468 157.107Z" fill="white"/>
</g>
</g>
</g>
</g>
<g opacity="0.35">
<path d="M240.667 112.243C247.873 118.422 252.391 127.18 252.995 138.893C253.562 149.917 250.494 160.332 244.79 169.112C240.51 175.694 222.146 187.767 198.778 189.171C190.528 189.669 182.475 188.451 175.39 186.413C204.077 184.078 226.439 169.267 231.746 161.104C238.991 149.961 242.882 136.74 242.16 122.755C241.971 119.016 241.458 115.516 240.667 112.243Z" fill="#10277C"/>
</g>
<path d="M143.555 121.058C143.236 121.058 142.915 120.959 142.64 120.753C141.993 120.268 141.844 119.369 142.285 118.706C144.634 114.861 147.635 111.347 151.203 108.263C154.676 105.26 158.716 102.639 163.209 100.471C167.608 98.3498 172.471 96.6502 177.661 95.4193C182.804 94.1999 188.294 93.4345 193.981 93.1444C199.574 92.8593 205.055 93.0518 210.27 93.7156C215.533 94.386 220.537 95.539 225.142 97.141C229.854 98.7808 234.166 100.898 237.957 103.435C241.854 106.042 245.225 109.109 247.978 112.55C248.459 113.08 248.508 113.892 248.058 114.482C247.55 115.149 246.594 115.278 245.925 114.772L245.765 114.654L245.645 114.502C235.452 101.705 216.677 95.0243 194.137 96.174C171.471 97.3303 153.512 106.131 144.863 120.321L144.824 120.385L144.772 120.453C144.474 120.849 144.017 121.058 143.555 121.058Z" fill="#10277C"/>
<g opacity="0.5">
<g opacity="0.5">
<g opacity="0.5">
<g opacity="0.5">
<path d="M154.115 161.335C154.115 161.335 143.566 133.025 158.545 120.765C173.524 108.505 195.926 107.409 195.476 108.866C195.476 108.866 170.986 116.11 162.287 136.13C155.579 151.568 154.115 161.335 154.115 161.335Z" fill="white"/>
</g>
</g>
</g>
</g>
<path d="M247.853 299.008H147.43C144.178 299.008 141.542 296.383 141.542 293.144C141.542 291.278 143.061 289.766 144.935 289.766H250.348C252.222 289.766 253.741 291.278 253.741 293.144C253.741 296.384 251.105 299.008 247.853 299.008Z" fill="#E6E9FA"/>
<g opacity="0.3">
<g opacity="0.3">
<g opacity="0.3">
<g opacity="0.3">
<path opacity="0.3" d="M253.739 293.145C253.739 293.786 253.635 294.401 253.444 294.979C252.916 293.797 251.73 292.978 250.349 292.978H144.935C144 292.978 143.151 293.354 142.537 293.97C142.245 294.26 142.006 294.6 141.838 294.98C141.647 294.402 141.542 293.788 141.542 293.146C141.542 292.214 141.92 291.369 142.538 290.757C143.152 290.143 144.001 289.766 144.936 289.766H250.349C252.224 289.765 253.739 291.278 253.739 293.145Z" fill="white"/>
</g>
</g>
</g>
</g>
<g opacity="0.35">
<g opacity="0.35">
<g opacity="0.35">
<g opacity="0.35">
<path opacity="0.35" d="M253.739 293.145C253.739 294.763 253.081 296.231 252.014 297.289C250.951 298.351 249.476 299.008 247.853 299.008H147.432C144.18 299.008 141.542 296.384 141.542 293.145C141.542 292.522 141.71 291.937 142.009 291.434C142.899 293.533 144.995 295.009 147.431 295.009H247.852C249.476 295.009 250.951 294.353 252.013 293.29C252.544 292.761 252.975 292.131 253.27 291.434C253.571 291.937 253.739 292.522 253.739 293.145Z" fill="#10277C"/>
</g>
</g>
</g>
</g>
<path d="M247.854 300.5H147.431C143.359 300.5 140.046 297.201 140.046 293.145C140.046 290.461 142.24 288.276 144.935 288.276H250.349C253.044 288.276 255.238 290.461 255.238 293.145C255.238 297.2 251.925 300.5 247.854 300.5ZM144.934 291.257C143.889 291.257 143.039 292.104 143.039 293.145C143.039 295.557 145.008 297.519 147.43 297.519H247.854C250.275 297.519 252.245 295.557 252.245 293.145C252.245 292.104 251.395 291.257 250.349 291.257H144.934Z" fill="#10277C"/>
<path d="M259.603 223.745L249.781 289.764H145.505L145.149 287.375L135.678 223.745C135.367 221.654 136.995 219.779 139.113 219.779H256.167C258.29 219.779 259.913 221.654 259.603 223.745Z" fill="#FF66AC"/>
<path d="M259.603 223.745L249.781 289.764H145.505L145.149 287.375L135.678 223.745C135.367 221.654 136.995 219.779 139.113 219.779H256.167C258.29 219.779 259.913 221.654 259.603 223.745Z" fill="#E6E9FA"/>
<g opacity="0.5">
<g opacity="0.5">
<g opacity="0.5">
<g opacity="0.5">
<path opacity="0.5" d="M139.38 227.843C139.07 225.753 140.698 223.878 142.816 223.878H259.583L259.603 223.746C259.913 221.655 258.29 219.78 256.168 219.78H139.114C136.996 219.78 135.369 221.655 135.679 223.746L145.15 287.376L145.505 289.765H148.598L139.38 227.843Z" fill="white"/>
</g>
</g>
</g>
</g>
<g opacity="0.35">
<g opacity="0.35">
<g opacity="0.35">
<g opacity="0.35">
<path opacity="0.35" d="M252.877 219.779H244.657C247.774 231.152 246.054 256.833 225.948 270.254C200.707 287.102 155.218 286.995 145.561 287.375L145.916 289.764H246.49L256.312 223.745C256.622 221.654 254.999 219.779 252.877 219.779Z" fill="#10277C"/>
</g>
</g>
</g>
</g>
<path d="M251.07 291.257H144.213L134.2 223.963C133.987 222.538 134.408 221.095 135.352 220.005C136.297 218.914 137.668 218.289 139.114 218.289H256.17C257.616 218.289 258.987 218.914 259.932 220.005C260.876 221.095 261.296 222.538 261.084 223.963L251.07 291.257ZM146.796 288.275H248.488L258.123 223.525C258.209 222.951 258.046 222.392 257.665 221.952C257.284 221.512 256.753 221.27 256.17 221.27H139.114C138.531 221.27 138 221.512 137.619 221.952C137.238 222.392 137.075 222.951 137.161 223.525L146.796 288.275Z" fill="#10277C"/>
<g opacity="0.3">
<g opacity="0.3">
<g opacity="0.3">
<g opacity="0.3">
<path opacity="0.3" d="M153.805 274.34C149.849 265.655 146.969 250.83 147.618 242.105C148.267 233.38 153.348 236.05 154.922 247.226C159.113 276.97 155.571 278.218 153.805 274.34Z" fill="white"/>
</g>
</g>
</g>
</g>
<path d="M211.265 247.281C211.393 246.167 211.541 245.04 211.321 243.907C211.223 243.784 211.134 243.658 211.036 243.535C210.712 243.418 210.396 243.267 210.059 243.182C207.686 242.572 205.281 242.33 202.837 242.54C199.65 242.814 196.725 243.793 194.21 245.811C193.299 246.538 192.469 247.36 191.619 248.158C191.391 248.374 191.216 248.464 190.896 248.318C190.143 247.977 189.332 247.825 188.508 247.784C186.299 247.684 184.328 248.395 182.489 249.545C180.496 250.795 178.89 252.466 177.395 254.255C176.758 255.013 177.005 255.858 177.953 256.177C178.551 256.371 179.15 256.562 179.748 256.757C181.181 257.219 182.611 257.677 184.04 258.139C184.037 258.183 184.041 258.206 184.034 258.228C184.023 258.256 184.01 258.288 183.991 258.315C183.394 259.079 183.539 259.785 184.168 260.449C184.235 260.523 184.293 260.61 184.353 260.69C184.682 261.121 185.018 261.557 185.367 262.006C184.891 262.372 184.423 262.684 184.009 263.06C183.8 263.249 183.616 263.524 183.537 263.797C183.402 264.237 183.631 264.687 184.024 264.918C184.442 265.168 184.871 265.158 185.259 264.879C185.752 264.53 186.223 264.151 186.724 263.77C187.197 264.391 187.645 264.979 188.095 265.559C188.611 266.22 188.967 266.334 189.766 266.113C189.912 266.068 190.056 266.037 190.228 265.995C190.24 266.166 190.253 266.302 190.26 266.43C190.362 268.489 190.456 270.551 190.57 272.603C190.621 273.577 191.393 274.037 192.276 273.62C193.073 273.245 193.87 272.848 194.651 272.426C196.452 271.45 198.091 270.256 199.399 268.667C201.035 266.667 201.941 264.434 201.517 261.795C201.499 261.691 201.586 261.513 201.677 261.46C202.48 260.945 203.304 260.462 204.108 259.942C205.925 258.763 207.385 257.231 208.527 255.4C210.079 252.911 210.935 250.181 211.265 247.281ZM185.222 256.189C183.568 255.652 181.852 255.095 180.09 254.524C181.911 252.597 183.838 250.913 186.433 250.203C187.554 249.896 188.85 249.922 189.615 250.232C188.162 252.207 186.706 254.181 185.222 256.189ZM199.139 264.66C198.719 265.997 197.916 267.085 196.927 268.055C195.698 269.248 194.267 270.138 192.72 270.949C192.627 269.056 192.532 267.204 192.438 265.39C194.777 264.484 197.064 263.6 199.363 262.71C199.452 263.341 199.343 264.009 199.139 264.66ZM207.777 251.986C207.024 253.755 206.037 255.366 204.628 256.701C203.541 257.724 202.309 258.545 201.01 259.275C197.491 261.254 193.718 262.619 189.861 263.773C189.673 263.827 189.558 263.817 189.433 263.645C189.164 263.264 188.862 262.897 188.578 262.52C188.559 262.499 188.552 262.464 188.525 262.397C188.624 262.318 188.729 262.24 188.835 262.159C191.036 260.476 193.248 258.798 195.449 257.112C196.085 256.631 196.113 255.804 195.524 255.327C195.113 254.992 194.571 254.997 194.096 255.353C192.771 256.359 191.45 257.365 190.129 258.376C189.143 259.126 188.165 259.874 187.142 260.655C186.791 260.198 186.452 259.781 186.146 259.342C186.094 259.263 186.146 259.065 186.217 258.967C187.39 257.223 188.554 255.471 189.775 253.757C190.983 252.056 192.356 250.484 193.866 249.042C195.282 247.679 196.818 246.476 198.673 245.759C199.863 245.298 201.09 244.984 202.358 244.848C202.473 244.832 202.64 244.947 202.722 245.053C204.011 246.713 205.285 248.375 206.562 250.041C206.946 250.537 207.324 251.043 207.719 251.533C207.838 251.68 207.852 251.807 207.777 251.986ZM208.541 249.664C207.267 248.002 206.023 246.385 204.778 244.761C204.779 244.724 204.79 244.68 204.796 244.64C206.246 244.813 207.7 244.99 209.169 245.166C209.142 246.741 208.908 248.185 208.541 249.664Z" fill="#10277C"/>
<path d="M207.721 251.532C207.325 251.042 206.948 250.537 206.564 250.041C205.287 248.375 204.013 246.712 202.724 245.052C202.642 244.946 202.475 244.831 202.36 244.848C201.092 244.983 199.865 245.297 198.675 245.758C196.819 246.475 195.284 247.678 193.868 249.041C192.358 250.483 190.985 252.055 189.777 253.756C188.556 255.471 187.392 257.223 186.219 258.966C186.148 259.064 186.096 259.262 186.148 259.341C186.453 259.78 186.792 260.197 187.144 260.655C188.167 259.873 189.145 259.125 190.131 258.375C191.452 257.364 192.773 256.357 194.098 255.352C194.573 254.996 195.114 254.992 195.526 255.326C196.115 255.804 196.088 256.631 195.451 257.111C193.25 258.798 191.038 260.475 188.837 262.158C188.731 262.239 188.625 262.317 188.527 262.396C188.554 262.464 188.561 262.498 188.58 262.52C188.864 262.896 189.166 263.263 189.435 263.644C189.56 263.816 189.675 263.826 189.863 263.772C193.72 262.618 197.493 261.254 201.012 259.275C202.31 258.545 203.543 257.723 204.63 256.7C206.038 255.366 207.026 253.755 207.779 251.985C207.853 251.807 207.838 251.681 207.721 251.532ZM203.858 254.069C202.176 255.332 199.795 255.023 198.531 253.37C197.259 251.72 197.58 249.35 199.247 248.07C200.883 246.815 203.265 247.139 204.541 248.79C205.803 250.432 205.495 252.837 203.858 254.069Z" fill="white"/>
<path d="M208.541 249.663C207.266 248.003 206.022 246.385 204.777 244.761C204.782 244.722 204.79 244.682 204.796 244.64C206.246 244.815 207.701 244.991 209.171 245.166C209.143 246.74 208.907 248.184 208.541 249.663Z" fill="#DB2C2C"/>
<path d="M189.616 250.233C188.161 252.205 186.705 254.182 185.223 256.191C183.566 255.651 181.85 255.095 180.089 254.525C181.911 252.595 183.837 250.912 186.432 250.203C187.554 249.895 188.848 249.922 189.616 250.233Z" fill="#DB2C2C"/>
<path d="M196.925 268.055C195.697 269.248 194.267 270.139 192.719 270.949C192.625 269.057 192.531 267.205 192.438 265.39C194.777 264.485 197.063 263.601 199.365 262.709C199.453 263.342 199.342 264.009 199.141 264.662C198.72 265.998 197.917 267.086 196.925 268.055Z" fill="#DB2C2C"/>
<path d="M204.54 248.79C203.265 247.139 200.882 246.815 199.246 248.07C197.579 249.351 197.258 251.72 198.53 253.37C199.794 255.023 202.175 255.332 203.857 254.069C205.494 252.837 205.802 250.431 204.54 248.79ZM202.723 252.675C201.871 253.318 200.619 253.149 199.955 252.301C199.268 251.426 199.455 250.141 200.365 249.469C201.216 248.833 202.492 249.018 203.133 249.87C203.803 250.757 203.619 252.002 202.723 252.675Z" fill="#10277C"/>
<path d="M202.722 252.675C201.87 253.319 200.618 253.149 199.952 252.299C199.268 251.426 199.454 250.142 200.363 249.47C201.216 248.835 202.49 249.017 203.131 249.869C203.801 250.756 203.619 252.003 202.722 252.675Z" fill="#22A7F0"/>
<path d="M259.085 227.228C259.085 227.228 251.004 223.409 243.415 226.835C236.148 230.116 231.006 253.476 240.422 259.393C246.233 263.046 250.189 259.819 253.477 260.767C258.353 262.171 268.358 238.119 259.085 227.228Z" fill="white"/>
<g opacity="0.35">
<path d="M262.732 242.43C261.774 252.221 256.584 261.662 253.478 260.767C250.189 259.82 246.234 263.047 240.423 259.395C235.924 256.566 234.75 249.761 235.543 243.06C236.078 246.969 237.593 250.319 240.423 252.098C246.234 255.746 250.103 254.05 253.478 253.469C257.65 252.75 261.052 248.211 262.732 242.43Z" fill="#10277C"/>
</g>
<path d="M246.381 262.67C244.42 262.67 242.151 262.243 239.623 260.654C237.359 259.232 235.724 256.93 234.764 253.812C233.958 251.197 233.657 248.009 233.892 244.594C234.171 240.55 235.17 236.401 236.703 232.912C237.874 230.246 239.883 226.792 242.796 225.477C250.924 221.807 259.37 225.713 259.726 225.881L260.017 226.018L260.225 226.263C264.469 231.247 264.714 238.133 264.172 243.031C263.562 248.551 261.606 254.405 259.068 258.311C256.525 262.222 254.397 262.584 253.059 262.199C252.191 261.949 251.094 262.124 249.824 262.326C248.82 262.487 247.667 262.67 246.381 262.67ZM250.332 226.894C248.058 226.894 245.949 227.328 244.033 228.193C242.458 228.905 240.785 231.061 239.447 234.108C238.068 237.245 237.132 241.142 236.879 244.8C236.434 251.259 238.016 256.119 241.22 258.134C244.451 260.164 246.944 259.767 249.353 259.382C250.91 259.134 252.381 258.9 253.893 259.335C254.066 259.365 255.312 258.887 257.068 255.855C261.165 248.787 263.763 235.439 258.159 228.451C257.523 228.188 255.889 227.57 253.749 227.199C252.574 226.996 251.433 226.894 250.332 226.894Z" fill="#10277C"/>
</svg>
