<?xml version="1.0" standalone="no"?>
<!DOCTYPE svg PUBLIC "-//W3C//DTD SVG 20010904//EN"
 "http://www.w3.org/TR/2001/REC-SVG-20010904/DTD/svg10.dtd">
<svg version="1.0" xmlns="http://www.w3.org/2000/svg"
 width="80.000000pt" height="100.000000pt" viewBox="0 0 288.000000 408.000000"
 preserveAspectRatio="xMidYMid meet">

<g transform="translate(0.000000,408.000000) scale(0.100000,-0.100000)"
fill="#000000" stroke="none">
<path d="M980 3841 c0 -12 5 -21 10 -21 6 0 10 6 10 14 0 8 -4 18 -10 21 -5 3
-10 -3 -10 -14z"/>
<path d="M338 3844 c-8 -8 3 -44 13 -44 5 0 15 -11 21 -25 6 -14 15 -25 20
-25 5 0 14 11 20 25 15 34 28 32 28 -5 0 -21 5 -30 16 -30 11 0 14 5 10 16 -3
9 -6 33 -6 55 0 48 -10 49 -34 4 -11 -19 -23 -35 -27 -35 -4 0 -17 16 -29 35
-23 37 -24 38 -32 29z"/>
<path d="M1210 3795 c0 -43 3 -55 15 -55 11 0 14 7 9 25 -6 23 -4 25 31 25 35
0 37 -2 31 -25 -5 -18 -2 -25 9 -25 12 0 15 12 15 55 0 42 -4 55 -15 55 -9 0
-14 -8 -12 -22 2 -19 -3 -23 -28 -23 -25 0 -30 4 -28 23 2 14 -3 22 -12 22
-11 0 -15 -13 -15 -55z"/>
<path d="M860 3811 c0 -6 5 -13 10 -16 6 -3 10 -17 10 -31 0 -15 6 -24 15 -24
9 0 15 9 15 23 0 13 5 28 12 35 9 9 9 12 1 12 -7 0 -15 -5 -19 -11 -5 -8 -10
-6 -16 5 -10 17 -28 22 -28 7z"/>
<path d="M1570 3815 c-1 -5 -1 -18 0 -28 1 -16 -2 -17 -19 -8 -11 6 -23 16
-26 21 -13 21 -25 9 -25 -25 0 -19 5 -35 11 -35 6 0 8 9 4 20 -8 24 -2 25 31
4 31 -21 37 -15 31 28 -2 18 -5 29 -7 23z"/>
<path d="M1769 3816 c-5 -32 0 -71 9 -74 15 -5 17 64 2 73 -5 3 -10 4 -11 1z"/>
<path d="M2140 3783 c0 -40 13 -58 23 -30 3 9 8 9 21 -2 9 -8 19 -11 23 -7 4
3 -2 13 -13 21 -19 15 -19 15 0 30 16 12 17 15 4 15 -9 0 -18 -6 -21 -12 -3
-9 -10 -7 -21 7 -15 19 -15 18 -16 -22z"/>
<path d="M2450 3780 c0 -29 4 -40 15 -40 8 0 15 7 15 15 0 8 7 15 16 15 8 0
12 5 9 10 -4 6 -10 8 -15 5 -4 -3 -10 4 -13 15 -9 35 -27 22 -27 -20z"/>
<path d="M517 3803 c-14 -14 -6 -43 16 -54 20 -11 21 -11 9 4 -8 9 -11 25 -7
37 6 19 -4 27 -18 13z"/>
<path d="M575 3775 c0 -19 1 -35 2 -35 1 0 9 7 17 16 12 12 13 20 6 35 -16 29
-25 23 -25 -16z"/>
<path d="M645 3801 c-3 -5 3 -16 13 -23 10 -7 21 -20 24 -28 5 -13 7 -13 13 2
4 10 -1 24 -14 37 -24 24 -27 25 -36 12z"/>
<path d="M750 3775 c0 -24 5 -35 15 -35 8 0 12 6 9 14 -3 8 -1 17 5 21 7 3 11
-3 11 -15 0 -13 5 -20 13 -17 7 2 11 16 9 33 -4 36 -10 42 -23 24 -8 -11 -12
-12 -16 -2 -10 24 -23 11 -23 -23z"/>
<path d="M1040 3796 c0 -8 9 -18 20 -21 11 -3 20 -14 20 -23 0 -13 3 -13 12
-4 10 10 7 18 -14 37 -31 29 -38 31 -38 11z"/>
<path d="M1387 3779 c-20 -36 -14 -52 8 -23 14 18 16 18 26 2 19 -33 29 -18
12 17 -9 19 -19 35 -22 35 -3 0 -14 -14 -24 -31z"/>
<path d="M1634 3775 c0 -23 4 -35 13 -35 8 0 13 13 13 35 0 47 -25 47 -26 0z"/>
<path d="M1695 3780 c0 -16 5 -28 10 -27 6 2 10 14 10 27 0 13 -4 25 -10 27
-5 2 -10 -10 -10 -27z"/>
<path d="M1805 3793 c2 -10 4 -26 4 -36 2 -30 21 -8 21 24 0 18 -5 29 -14 29
-8 0 -13 -8 -11 -17z"/>
<path d="M1877 3803 c-14 -14 -6 -43 16 -54 20 -11 21 -11 9 4 -8 9 -11 25 -7
37 6 19 -4 27 -18 13z"/>
<path d="M1934 3775 c-1 -40 -1 -40 20 -19 12 12 13 20 6 35 -16 29 -25 23
-26 -16z"/>
<path d="M2003 3794 c-7 -19 7 -46 28 -53 12 -4 12 -2 0 12 -7 9 -11 26 -8 37
6 24 -11 27 -20 4z"/>
<path d="M2067 3791 c3 -12 0 -28 -7 -36 -7 -8 -8 -15 -2 -15 28 0 42 58 15
67 -7 3 -9 -3 -6 -16z"/>
<path d="M2322 3798 c-16 -16 -15 -23 4 -42 20 -21 41 -21 24 -1 -7 8 -10 24
-7 35 6 23 -3 26 -21 8z"/>
<path d="M2382 3791 c9 -15 9 -23 -1 -35 -8 -9 -9 -16 -3 -16 18 0 34 29 27
50 -3 11 -13 20 -21 20 -11 0 -12 -4 -2 -19z"/>
<path d="M331 3768 c-1 -16 4 -28 9 -28 12 0 12 8 0 35 -8 18 -9 17 -9 -7z"/>
<path d="M650 3750 c0 -5 5 -10 11 -10 5 0 7 5 4 10 -3 6 -8 10 -11 10 -2 0
-4 -4 -4 -10z"/>
<path d="M108 3672 l-108 -3 0 -959 0 -960 22 3 c30 3 36 -29 7 -36 -34 -9
-17 -32 22 -29 24 1 30 -1 20 -7 -12 -8 -8 -11 15 -16 16 -4 42 -12 58 -18 24
-9 31 -8 41 6 7 9 20 17 30 17 15 0 13 -4 -9 -25 -16 -15 -39 -25 -57 -25 -16
0 -32 -6 -34 -12 -4 -9 -23 -12 -60 -10 l-55 4 0 -801 0 -801 74 0 75 0 -9 30
c-5 17 -5 30 0 30 4 0 13 15 20 33 l11 32 14 -25 c20 -35 18 -58 -5 -70 -33
-18 -23 -30 25 -30 33 0 45 4 45 15 0 8 5 15 10 15 6 0 10 -7 10 -15 0 -10 11
-15 35 -15 33 0 35 2 35 36 0 22 4 33 11 29 6 -4 7 -19 4 -36 l-7 -29 320 0
c275 0 321 2 326 15 7 21 43 19 55 -2 8 -15 13 -16 30 -5 12 7 21 8 21 2 0 -6
238 -10 669 -10 l670 0 4 22 4 23 2 -22 c1 -22 5 -23 95 -23 66 0 96 4 100 13
5 9 7 9 12 0 4 -9 37 -13 115 -13 l109 0 0 90 c0 72 -3 88 -14 84 -8 -3 -17
-1 -21 5 -3 7 2 11 14 11 21 0 21 3 21 368 l0 369 -30 -5 c-25 -4 -30 -1 -30
16 0 11 7 25 15 32 8 7 15 23 15 35 0 13 7 25 15 29 13 5 15 161 15 1324 l0
1319 -1332 -1 c-733 -1 -1381 -2 -1440 -4z m864 -156 c-2 -66 0 -96 7 -92 6 4
31 7 55 8 93 1 141 -44 108 -101 -28 -49 -67 -65 -151 -63 -41 1 -77 4 -79 7
-3 2 1 11 8 20 9 11 11 52 7 160 -4 127 -3 147 12 155 31 18 36 5 33 -94z
m672 -2 c34 -13 17 -34 -27 -34 -43 0 -89 -22 -74 -36 4 -4 32 -9 62 -12 71
-6 68 -25 -5 -34 -37 -4 -60 -14 -78 -31 -24 -24 -24 -27 -9 -50 22 -34 65
-42 116 -21 49 19 52 43 7 59 -23 8 -30 6 -41 -9 -8 -10 -18 -15 -24 -11 -19
11 -12 25 24 42 30 14 41 15 68 5 48 -17 67 -15 67 8 0 13 7 20 20 20 31 0 38
-30 11 -49 -12 -9 -38 -30 -57 -48 -41 -37 -122 -59 -178 -49 -26 5 -40 15
-52 37 -17 33 -12 45 34 84 22 19 23 22 8 34 -34 28 -6 64 66 86 24 8 44 14
45 14 1 1 8 -2 17 -5z m-1387 -44 l-5 -39 42 -6 c22 -4 66 -5 96 -3 l55 3 0
40 c0 34 4 41 22 43 21 3 22 0 25 -108 3 -111 -2 -130 -32 -130 -13 0 -15 10
-12 63 l4 62 -96 3 c-95 4 -96 3 -97 -20 -3 -102 -4 -103 -26 -106 -20 -3 -22
0 -19 50 2 29 0 78 -4 108 -8 60 0 80 33 80 17 0 19 -5 14 -40z m455 -57 c36
-33 16 -55 -44 -47 -44 6 -108 -5 -108 -19 0 -6 10 -21 22 -34 26 -28 91 -31
126 -7 26 18 35 15 27 -9 -8 -19 -36 -27 -103 -27 -115 0 -154 67 -78 132 46
39 121 44 158 11z m90 17 c2 -7 14 -7 36 1 40 14 84 5 76 -16 -4 -9 -20 -14
-49 -13 -24 0 -48 -3 -54 -6 -6 -4 -11 -34 -11 -67 0 -51 -2 -59 -19 -59 -17
0 -20 9 -23 73 -2 39 0 78 5 85 11 15 34 16 39 2z m528 -4 c0 -17 -34 -31 -50
-21 -15 9 -60 -3 -60 -15 0 -6 19 -10 43 -10 125 0 104 -111 -22 -114 -55 -1
-96 23 -74 45 8 8 19 5 40 -11 32 -23 72 -21 93 6 19 22 2 34 -49 34 -90 0
-106 44 -30 82 42 22 109 24 109 4z m206 -277 c0 -113 1 -116 25 -122 12 -3
18 -10 14 -17 -5 -8 -11 -8 -21 1 -12 9 -14 6 -14 -22 0 -48 10 -80 23 -72 6
3 7 1 3 -6 -4 -6 -2 -18 4 -26 15 -18 24 -75 11 -75 -5 0 -11 -7 -13 -16 -2
-12 -12 -7 -40 22 -21 20 -38 44 -38 51 0 8 -4 11 -10 8 -10 -6 -14 6 -11 35
1 13 0 13 -8 -1 -15 -23 -177 -25 -202 -3 -34 31 18 77 103 91 39 6 45 18 16
37 -11 7 -29 6 -57 -4 -26 -8 -45 -10 -51 -4 -5 5 -35 7 -67 4 l-58 -5 -3 -60
c-3 -54 -12 -74 -34 -75 -5 0 -8 36 -8 80 0 66 3 82 17 87 9 4 18 2 21 -5 2
-8 11 -8 28 -1 33 12 77 12 90 -1 8 -8 19 -8 38 0 15 5 48 10 72 10 55 0 111
-37 116 -78 5 -34 12 94 9 171 -1 34 3 65 10 73 24 29 34 8 35 -77z m-1093
-127 c-6 -130 -17 -149 -58 -100 -15 18 -50 59 -79 92 l-51 59 -5 -89 c-4 -68
-8 -89 -20 -92 -13 -2 -15 15 -15 110 0 64 4 116 10 120 20 15 35 7 64 -34 16
-24 50 -65 75 -93 l46 -50 -2 88 c-2 67 1 90 12 97 8 5 17 7 21 4 4 -2 5 -53
2 -112z m329 63 l-4 -37 72 6 71 6 -5 -58 c-7 -70 2 -86 49 -85 55 2 67 18 63
82 -3 50 -1 56 18 59 20 3 21 -1 20 -79 -1 -59 -6 -84 -15 -87 -7 -2 -17 1
-21 8 -6 9 -13 9 -28 1 -31 -16 -98 -14 -116 5 -11 10 -16 34 -16 75 0 56 -1
59 -20 49 -11 -6 -30 -8 -43 -4 -29 7 -35 -10 -27 -71 5 -42 9 -43 60 -29 23
6 24 5 9 -10 -8 -9 -33 -19 -54 -23 -50 -8 -64 10 -57 78 4 45 2 51 -17 56
-27 7 -27 23 0 23 18 0 21 4 16 30 -5 22 -2 32 11 39 27 16 37 7 34 -34z
m-122 -43 c17 -14 23 -32 27 -80 3 -34 3 -62 2 -63 -2 0 -44 -3 -92 -5 -94 -5
-117 2 -117 38 0 21 68 57 110 58 14 0 31 4 39 9 13 8 13 12 1 26 -14 17 -34
17 -104 -1 -22 -5 -28 -4 -24 7 10 31 124 39 158 11z m640 -189 c0 -5 2 -79 3
-166 3 -146 1 -157 -16 -163 -10 -3 -20 -4 -22 -2 -7 7 -8 316 -1 327 8 12 36
15 36 4z m472 -37 c9 -11 17 -25 18 -31 1 -5 16 -29 32 -52 22 -30 28 -47 23
-63 -4 -12 -7 -47 -6 -78 0 -54 -8 -71 -36 -72 -8 0 -12 20 -12 61 1 68 -6 81
-39 73 -22 -6 -23 -11 -26 -89 -1 -11 -5 -26 -9 -32 -16 -25 -27 -12 -27 30 0
69 -9 87 -40 87 -32 0 -43 -20 -40 -73 3 -50 1 -57 -15 -57 -12 0 -15 15 -17
65 -1 36 -2 73 -2 83 -1 12 7 17 29 17 24 0 30 4 31 23 1 12 4 25 7 28 10 10
29 -8 23 -22 -4 -10 2 -14 19 -14 13 0 27 -4 30 -10 4 -6 13 -5 25 2 10 7 16
16 14 20 -3 5 -10 6 -15 3 -9 -6 -13 8 -10 33 1 7 -5 15 -14 18 -8 3 -15 15
-15 26 0 12 -10 29 -22 39 -21 19 -21 19 28 13 33 -4 54 -13 66 -28z m-374 15
c9 -5 4 -8 -16 -7 -17 1 -28 4 -25 9 6 9 25 9 41 -2z m592 -46 c7 -8 8 -15 2
-15 -5 0 -15 7 -22 15 -7 8 -8 15 -2 15 5 0 15 -7 22 -15z m-1576 -24 c28 -11
2 -25 -31 -16 -35 8 -91 -12 -98 -36 -4 -11 -5 -23 -2 -25 2 -3 36 -10 73 -16
89 -13 104 -22 104 -59 0 -67 -90 -110 -194 -90 -72 13 -87 24 -63 49 12 11
20 13 25 6 24 -37 137 -48 164 -16 41 47 28 64 -57 77 -118 16 -128 81 -18
121 43 15 69 16 97 5z m1976 -47 l0 -37 39 6 c22 3 42 2 45 -1 12 -12 -18 -32
-49 -32 -37 0 -45 -11 -39 -60 6 -48 17 -56 57 -36 43 20 53 20 61 1 7 -20 79
-20 96 0 23 28 4 44 -57 47 -51 3 -58 6 -61 25 -5 32 50 64 103 61 53 -4 47
-22 -10 -28 -55 -6 -64 -24 -15 -28 84 -7 116 -46 70 -87 -25 -22 -123 -33
-144 -16 -10 9 -25 9 -58 0 -68 -18 -78 -10 -78 61 0 53 -2 60 -20 60 -26 0
-26 16 1 30 15 9 19 18 15 34 -7 27 0 36 26 36 14 0 18 -8 18 -36z m-1858 -88
c-4 -67 7 -86 53 -86 49 0 68 27 63 92 -3 47 -1 53 17 53 18 0 20 -7 20 -78 0
-80 -6 -97 -28 -79 -7 5 -21 6 -32 1 -27 -10 -97 -11 -113 0 -18 11 -25 143
-9 153 24 15 32 0 29 -56z m406 44 c26 -16 32 -26 32 -55 0 -31 -5 -39 -47
-65 -35 -23 -59 -30 -95 -30 -31 0 -49 -4 -50 -12 -1 -7 -2 -44 -2 -83 -1 -59
-4 -70 -18 -70 -16 0 -18 17 -21 157 -2 87 0 161 4 165 5 5 43 9 86 11 64 2
84 -1 111 -18z m263 -1 c22 -15 29 -28 29 -53 0 -50 -55 -89 -132 -94 l-57 -4
-3 -82 c-3 -67 -6 -81 -20 -84 -16 -3 -18 8 -17 115 0 65 -3 138 -7 162 -4 27
-3 45 4 50 6 3 47 7 92 8 69 3 86 0 111 -18z m299 6 c17 -9 30 -17 30 -19 0
-3 3 -11 6 -20 5 -14 -5 -16 -75 -16 -67 0 -83 -3 -88 -17 -9 -24 44 -63 87
-63 20 0 46 7 59 16 22 16 23 15 19 -2 -4 -22 -35 -32 -104 -33 -66 -1 -104
25 -104 73 0 38 22 62 77 82 49 17 58 17 93 -1z m544 -6 c47 -37 35 -48 -56
-51 -91 -3 -104 -13 -64 -53 29 -29 81 -34 112 -10 24 18 34 19 34 1 0 -34
-131 -48 -180 -19 -58 34 -43 98 31 135 45 24 90 23 123 -3z m227 11 c17 -10
20 -20 17 -83 -2 -56 -6 -72 -18 -72 -16 0 -17 4 -19 78 -1 55 -14 65 -70 51
-36 -9 -36 -10 -41 -69 -4 -45 -9 -61 -22 -63 -14 -3 -17 8 -20 73 -2 42 0 80
5 84 12 12 146 12 168 1z m-1161 -394 c0 -3 -4 -8 -10 -11 -5 -3 -10 -1 -10 4
0 6 5 11 10 11 6 0 10 -2 10 -4z m-720 -86 c0 -27 -4 -50 -9 -50 -9 0 -20 88
-12 96 14 14 21 -2 21 -46z m1130 0 c0 -33 -4 -50 -12 -50 -9 0 -12 15 -11 47
2 58 1 53 13 53 6 0 10 -22 10 -50z m45 40 c3 -5 2 -10 -4 -10 -5 0 -13 5 -16
10 -3 6 -2 10 4 10 5 0 13 -4 16 -10z m-485 -59 c0 -17 -4 -31 -10 -31 -5 0
-10 11 -10 25 0 16 -6 25 -15 25 -18 0 -19 7 -3 24 18 19 38 -4 38 -43z m-923
33 c3 -9 -77 -47 -84 -40 -2 2 -1 15 3 30 5 23 10 26 42 23 20 -2 37 -8 39
-13z m441 -6 c17 -17 15 -45 -4 -52 -11 -4 -14 -1 -9 13 8 25 -22 51 -36 30
-4 -8 -6 -22 -3 -33 4 -13 2 -17 -7 -14 -16 5 -23 32 -15 54 7 17 57 19 74 2z
m122 -11 c0 -13 6 -29 13 -36 10 -10 8 -12 -8 -9 -14 2 -21 12 -23 36 -2 18 1
32 7 32 6 0 11 -10 11 -23z m55 14 c3 -5 1 -12 -5 -16 -5 -3 -10 1 -10 9 0 18
6 21 15 7z m128 -13 c4 -23 4 -23 14 2 10 22 12 23 18 7 4 -10 5 -21 1 -24 -3
-3 -1 -12 5 -20 15 -17 -12 -18 -29 -1 -9 9 -12 9 -12 0 0 -7 -4 -12 -10 -12
-5 0 -10 16 -10 35 0 39 16 48 23 13z m327 7 c0 -8 5 -15 10 -15 6 0 10 7 10
15 0 8 7 15 16 15 11 0 14 -9 12 -35 -2 -20 -7 -35 -13 -35 -5 0 -10 4 -10 9
0 18 -15 23 -21 7 -12 -30 -34 -18 -34 19 0 24 5 35 15 35 8 0 15 -7 15 -15z
m452 -20 c3 -24 0 -35 -9 -35 -8 0 -13 13 -13 35 0 19 4 35 9 35 5 0 11 -16
13 -35z m178 -6 c0 -16 -4 -29 -10 -29 -5 0 -10 16 -10 36 0 21 4 33 10 29 6
-3 10 -19 10 -36z m290 0 c0 -19 -5 -29 -15 -29 -15 0 -22 50 -9 63 12 12 24
-4 24 -34z m175 6 c0 -22 -5 -31 -20 -34 -16 -3 -17 -1 -7 11 9 11 9 18 -1 32
-12 16 -14 16 -26 2 -11 -13 -11 -19 0 -32 12 -14 11 -16 -6 -13 -11 3 -21 12
-23 22 -6 28 18 48 52 45 27 -3 31 -7 31 -33z m137 18 c17 -15 18 -15 18 1 0
10 6 16 13 13 6 -2 11 -9 10 -15 -2 -7 8 -9 26 -6 29 6 29 6 26 -36 -1 -23 -7
-46 -12 -51 -15 -15 -62 7 -75 36 -6 14 -15 25 -20 25 -5 0 -6 -4 -3 -10 3 -5
-1 -10 -9 -10 -9 0 -16 8 -16 19 0 11 -3 26 -6 35 -8 22 24 21 48 -1z m-902
-3 c0 -5 -4 -10 -10 -10 -5 0 -10 5 -10 10 0 6 5 10 10 10 6 0 10 -4 10 -10z
m178 -17 c2 -11 -3 -23 -11 -26 -10 -4 -14 3 -13 24 1 32 19 34 24 2z m262 -3
c0 -16 -4 -30 -10 -30 -5 0 -10 14 -10 30 0 17 5 30 10 30 6 0 10 -13 10 -30z
m725 -20 c16 -18 16 -20 1 -26 -19 -7 -46 12 -46 32 0 20 24 17 45 -6z m-1155
0 c0 -5 -5 -10 -11 -10 -5 0 -7 5 -4 10 3 6 8 10 11 10 2 0 4 -4 4 -10z
m-1310 -109 c0 -13 -37 -24 -50 -16 -6 4 -8 11 -5 16 8 12 55 12 55 0z m785
-1 c-3 -5 -10 -10 -16 -10 -5 0 -9 5 -9 10 0 6 7 10 16 10 8 0 12 -4 9 -10z
m-940 -130 c3 -5 -1 -10 -9 -10 -8 0 -18 5 -21 10 -3 6 1 10 9 10 8 0 18 -4
21 -10z m1165 -50 c0 -5 -4 -10 -10 -10 -5 0 -10 5 -10 10 0 6 5 10 10 10 6 0
10 -4 10 -10z m-397 -22 c15 1 16 -2 7 -14 -12 -14 -51 -19 -63 -8 -12 12 6
35 22 28 9 -4 24 -6 34 -6z m-756 -40 c26 -24 34 -59 9 -39 -10 8 -16 9 -21 1
-11 -18 -22 -11 -28 17 -9 48 4 55 40 21z m803 8 c0 -3 -4 -8 -10 -11 -5 -3
-10 -1 -10 4 0 6 5 11 10 11 6 0 10 -2 10 -4z m-80 -31 c-7 -9 -15 -13 -17
-11 -7 7 7 26 19 26 6 0 6 -6 -2 -15z m-157 -22 c-7 -2 -19 -2 -25 0 -7 3 -2
5 12 5 14 0 19 -2 13 -5z m212 -3 c-3 -5 -14 -10 -23 -10 -15 0 -15 2 -2 10
20 13 33 13 25 0z m-374 -19 c-11 -19 -51 -36 -51 -21 0 5 -3 15 -6 24 -5 13
1 16 30 16 33 0 36 -2 27 -19z m339 -31 c-12 -23 -36 -40 -26 -19 3 8 9 22 12
31 4 10 10 15 15 12 5 -3 5 -13 -1 -24z m50 0 c0 -5 -2 -10 -4 -10 -3 0 -8 5
-11 10 -3 6 -1 10 4 10 6 0 11 -4 11 -10z m-733 -42 c-5 -3 -16 -4 -24 -1 -10
4 -11 9 -2 19 8 10 14 11 24 1 8 -8 9 -14 2 -19z m263 3 c0 -11 7 -27 16 -36
18 -18 13 -28 -15 -30 -14 -1 -18 6 -18 42 0 24 4 43 9 43 4 0 8 -9 8 -19z
m386 -21 c0 -11 -4 -20 -8 -20 -10 0 -11 24 -1 33 9 9 9 10 9 -13z m614 -27
c0 -22 -2 -25 -10 -13 -5 8 -10 11 -10 7 0 -5 -5 -5 -11 -2 -6 5 -4 12 8 21
24 18 23 18 23 -13z m-66 -43 c-6 -28 -5 -30 24 -30 39 0 47 -13 29 -49 -11
-22 -12 -32 -3 -41 14 -14 -26 -50 -56 -50 -18 0 -20 5 -15 34 4 28 1 38 -22
60 -28 27 -39 66 -18 66 7 0 19 9 27 20 22 31 41 25 34 -10z m212 -17 c10 -11
13 -11 24 2 12 14 40 21 40 10 0 -11 -36 -45 -48 -45 -9 0 -11 -7 -7 -19 7
-23 -12 -38 -28 -22 -19 19 -24 12 -31 -40 -4 -29 -10 -64 -13 -80 -4 -23 -2
-28 18 -31 13 -1 25 -11 27 -21 5 -24 -28 -35 -43 -14 -10 13 -15 4 -29 -58
l-18 -75 -35 0 c-28 0 -34 3 -31 18 3 11 12 16 26 15 16 -2 23 4 28 25 3 15
10 40 15 56 16 50 12 66 -16 66 -28 0 -33 21 -10 40 8 7 15 21 15 32 0 11 9
27 20 36 11 10 23 32 26 50 6 27 4 32 -14 32 -11 0 -30 9 -43 20 l-24 19 29 1
c16 0 38 -8 48 -17 18 -16 19 -16 24 4 6 23 30 21 50 -4z m-896 9 c0 -7 -33
-52 -39 -52 -3 0 -6 13 -7 29 -1 24 3 28 22 27 13 0 24 -2 24 -4z m200 -12
c-6 -11 -12 -20 -14 -20 -2 0 -2 9 1 20 3 11 9 20 15 20 5 0 4 -9 -2 -20z
m-454 -10 c21 0 17 -17 -5 -23 -24 -6 -71 3 -71 13 0 11 30 19 48 14 8 -2 20
-4 28 -4z m1294 -36 c0 -8 -4 -14 -10 -14 -5 0 -10 9 -10 21 0 11 5 17 10 14
6 -3 10 -13 10 -21z m-1590 6 c0 -5 -4 -10 -10 -10 -5 0 -10 5 -10 10 0 6 5
10 10 10 6 0 10 -4 10 -10z m1500 -10 c0 -11 -4 -20 -10 -20 -5 0 -10 9 -10
20 0 11 5 20 10 20 6 0 10 -9 10 -20z m-1220 -45 c-6 -27 -4 -39 7 -51 14 -13
13 -17 -6 -38 -11 -12 -21 -30 -21 -39 0 -9 -4 -17 -10 -17 -13 0 -13 57 0 65
5 3 12 32 16 65 4 33 10 57 14 55 4 -3 4 -21 0 -40z m1270 35 c0 -5 -2 -10 -4
-10 -3 0 -8 5 -11 10 -3 6 -1 10 4 10 6 0 11 -4 11 -10z m-1083 -36 c3 -8 14
-14 24 -14 42 0 11 -36 -35 -42 -25 -3 -37 -16 -82 -91 -71 -121 -76 -121 -15
-2 28 54 50 108 49 120 -3 45 1 52 28 47 14 -2 28 -11 31 -18z m438 16 c3 -5
1 -10 -4 -10 -6 0 -11 5 -11 10 0 6 2 10 4 10 3 0 8 -4 11 -10z m647 -24 c6 4
8 -1 5 -12 -3 -11 -11 -38 -17 -62 -6 -23 -15 -40 -20 -37 -5 3 -5 18 -1 33 5
15 5 36 1 46 -6 19 -7 19 -12 -2 -9 -35 -28 -26 -24 11 3 17 5 33 5 34 1 1 13
-2 27 -7 14 -6 30 -7 36 -4z m209 -27 c32 -22 38 -39 14 -39 -8 0 -15 4 -15
10 0 5 -10 18 -22 30 -28 26 -14 26 23 -1z m-303 -26 c2 -16 -2 -23 -12 -23
-9 0 -16 7 -16 15 0 8 -4 15 -10 15 -5 0 -10 5 -10 11 0 21 45 4 48 -18z
m-658 2 c0 -8 5 -15 12 -15 6 0 9 -2 6 -5 -3 -3 -13 -3 -22 1 -17 7 -22 34 -6
34 6 0 10 -7 10 -15z m390 -5 c0 -5 -4 -10 -10 -10 -5 0 -10 5 -10 10 0 6 5
10 10 10 6 0 10 -4 10 -10z m-650 -9 c0 -5 -6 -14 -14 -20 -10 -9 -15 -8 -19
3 -3 8 -3 17 0 20 9 9 33 7 33 -3z m555 -1 c3 -5 2 -10 -4 -10 -5 0 -13 5 -16
10 -3 6 -2 10 4 10 5 0 13 -4 16 -10z m1392 -26 c7 -18 -12 -64 -27 -64 -11 0
-14 63 -3 73 11 12 23 8 30 -9z m-2273 -15 c-8 -14 -24 -10 -24 6 0 9 6 12 15
9 8 -4 12 -10 9 -15z m-114 1 c0 -5 -4 -10 -10 -10 -5 0 -10 5 -10 10 0 6 5
10 10 10 6 0 10 -4 10 -10z m1402 -16 c14 -14 20 -14 33 -4 28 23 29 1 2 -24
-15 -14 -27 -30 -27 -36 0 -5 -5 -10 -10 -10 -6 0 -8 10 -4 24 4 19 1 26 -15
31 -22 7 -29 35 -9 35 6 0 20 -7 30 -16z m326 4 c-4 -12 -48 -20 -48 -8 0 12
13 20 33 20 10 0 17 -5 15 -12z m-611 -17 c-6 -24 10 -51 30 -51 9 0 13 -6 9
-15 -3 -9 0 -15 9 -15 8 0 15 -5 15 -10 0 -12 -41 -30 -52 -23 -5 2 -8 -1 -8
-6 0 -6 -7 -11 -15 -11 -10 0 -14 9 -12 30 2 24 6 30 20 26 9 -2 17 0 17 5 0
5 -4 9 -8 9 -4 0 -14 15 -22 33 -7 17 -15 35 -18 40 -2 4 6 7 18 7 17 0 21 -5
17 -19z m512 3 l22 -16 -20 -19 c-24 -23 -35 -24 -28 -5 3 8 -1 20 -9 26 -34
29 -4 41 35 14z m649 -50 c-2 -30 -7 -44 -16 -44 -11 0 -13 8 -8 30 5 28 -1
35 -26 31 -15 -2 -8 18 9 27 30 17 43 3 41 -44z m-1915 21 c16 -15 14 -25 -19
-115 -7 -19 -20 -62 -30 -95 -9 -33 -21 -64 -26 -70 -13 -13 -2 53 23 137 10
36 20 79 20 95 2 32 9 63 14 63 2 0 10 -7 18 -15z m1356 -9 c9 -11 5 -16 -20
-25 -48 -16 -73 10 -26 29 30 12 33 12 46 -4z m330 -22 c16 -27 19 -39 10 -50
-6 -7 -8 -21 -5 -31 4 -13 -2 -22 -21 -30 -39 -19 -43 -16 -30 17 9 23 8 38
-1 62 -10 27 -9 35 5 50 9 10 17 18 19 18 1 0 12 -16 23 -36z m161 -5 c0 -5
-11 -9 -25 -9 -24 0 -32 10 -19 22 8 8 44 -3 44 -13z m-2087 -3 c7 -19 -29
-28 -43 -11 -8 10 -7 14 7 18 30 8 31 8 36 -7z m674 -27 c10 -10 7 -49 -5 -49
-11 0 -30 35 -25 47 6 16 16 16 30 2z m134 -12 c-1 -12 -15 -9 -19 4 -3 6 1
10 8 8 6 -3 11 -8 11 -12z m-1031 -17 c0 -11 7 -23 15 -26 21 -8 19 -43 -2
-50 -10 -3 -26 -10 -35 -15 -25 -13 -38 -11 -38 5 0 8 -6 17 -12 20 -7 3 -2 3
11 0 19 -5 23 -3 18 9 -3 9 0 14 11 13 13 -1 16 6 14 32 -2 18 1 32 7 32 6 0
11 -9 11 -20z m1495 9 c4 -6 13 -8 21 -5 8 3 14 1 14 -4 0 -6 -11 -10 -24 -10
-20 0 -24 -6 -30 -40 -3 -22 -11 -40 -17 -40 -8 0 -9 11 -5 32 5 26 2 36 -16
51 -23 18 -23 18 -1 12 12 -3 24 -1 28 5 8 13 22 13 30 -1z m282 -3 c4 -7 15
-16 23 -19 10 -4 9 -6 -6 -6 -16 -1 -23 -11 -31 -43 l-11 -43 -1 39 c-1 29 -4
36 -13 29 -7 -6 -22 -13 -33 -16 -18 -6 -18 -5 3 12 12 11 22 21 22 24 0 3
-10 8 -22 12 -22 7 -22 8 7 15 45 12 53 11 62 -4z m-1547 -11 c0 -24 -24 -95
-32 -95 -10 0 -10 -1 3 60 10 46 29 70 29 35z m257 -11 c-9 -9 -28 6 -21 18 4
6 10 6 17 -1 6 -6 8 -13 4 -17z m1451 16 c10 0 10 -4 0 -22 -7 -12 -19 -28
-26 -36 -10 -11 -13 -11 -18 3 -5 13 -9 14 -15 4 -6 -10 -11 -10 -22 -1 -8 7
-21 10 -30 6 -8 -3 -18 -1 -21 4 -3 5 9 13 28 16 19 4 37 14 40 22 4 11 13 14
29 10 12 -3 28 -6 35 -6z m291 -14 c9 -11 9 -15 -1 -19 -20 -7 -37 3 -31 19 7
18 17 18 32 0z m-1250 -5 c16 -10 23 -51 9 -51 -4 0 -8 7 -8 15 0 8 -4 15 -9
15 -5 0 -11 7 -15 15 -6 17 2 19 23 6z m195 -10 c9 -14 -4 -41 -20 -41 -8 0
-14 -7 -14 -15 0 -8 -9 -15 -20 -15 -15 0 -20 7 -20 28 0 15 5 33 12 40 14 14
54 16 62 3z m-690 -38 c-10 -40 -14 -41 -14 -5 0 18 5 32 10 32 6 0 8 -11 4
-27z m-334 -9 c0 -18 -17 -26 -40 -19 -30 10 -24 30 10 31 18 1 30 -4 30 -12z
m2100 -24 c12 -7 11 -10 -5 -16 -11 -4 -25 -14 -31 -22 -8 -11 -13 -12 -18 -3
-5 7 0 21 10 32 19 22 23 22 44 9z m-808 -52 c-15 -15 -19 -11 -27 27 l-7 30
23 -22 c18 -18 21 -25 11 -35z m56 40 c-3 -7 -13 -15 -24 -17 -16 -3 -17 -1
-5 13 16 19 34 21 29 4z m402 2 c0 -3 -6 -14 -13 -24 -13 -17 -14 -17 -29 6
-16 24 -16 25 13 25 16 0 29 -3 29 -7z m-1430 -15 c0 -7 -3 -15 -6 -18 -9 -8
-46 12 -40 21 7 12 46 9 46 -3z m50 -5 c0 -5 -9 -10 -21 -10 -11 0 -17 5 -14
10 3 6 13 10 21 10 8 0 14 -4 14 -10z m180 6 c0 -11 -19 -15 -25 -6 -3 5 1 10
9 10 9 0 16 -2 16 -4z m70 -5 c0 -12 -20 -25 -27 -18 -7 7 6 27 18 27 5 0 9
-4 9 -9z m310 0 c0 -10 -30 -24 -37 -17 -3 3 -2 9 2 15 8 13 35 15 35 2z
m-349 -53 c-1 -5 -1 -18 -1 -30 0 -26 -14 -14 -25 20 -5 19 -3 23 10 20 9 -1
16 -6 16 -10z m699 8 c0 -2 -7 -19 -15 -37 -14 -34 -20 -23 -9 19 5 18 24 33
24 18z m304 -22 c6 -17 -3 -18 -39 -4 -14 5 -24 14 -21 19 8 12 54 1 60 -15z
m-779 6 c33 -13 22 -33 -15 -28 -22 3 -27 1 -23 -11 4 -10 0 -9 -10 4 -21 26
-21 33 1 38 9 3 18 5 19 6 1 0 14 -3 28 -9z m1543 -23 c4 -20 -25 -34 -40 -19
-15 15 -1 44 19 40 10 -2 19 -11 21 -21z m-1422 -24 c-11 -11 -17 4 -9 23 7
18 8 18 11 1 2 -10 1 -21 -2 -24z m-1086 8 c0 -11 -4 -23 -10 -26 -6 -4 -10 5
-10 19 0 14 5 26 10 26 6 0 10 -9 10 -19z m1317 -17 c6 -14 7 -26 2 -30 -11
-6 -48 34 -49 53 0 20 34 3 47 -23z m-357 7 c0 -5 -3 -17 -6 -26 -5 -12 -9
-14 -14 -4 -5 7 -6 18 -3 26 6 15 23 18 23 4z m-780 -11 c0 -5 -4 -10 -10 -10
-5 0 -10 5 -10 10 0 6 5 10 10 10 6 0 10 -4 10 -10z m799 -41 c-19 -12 -24 -2
-8 17 9 11 14 13 17 4 3 -7 -2 -16 -9 -21z m292 -30 c-6 -16 -10 -18 -10 -7
-1 22 12 55 16 42 2 -6 -1 -22 -6 -35z m-546 21 c3 -5 1 -10 -4 -10 -6 0 -11
5 -11 10 0 6 2 10 4 10 3 0 8 -4 11 -10z m205 -74 c0 -8 8 -17 18 -19 11 -3 8
-5 -8 -6 -25 -1 -50 15 -50 31 0 4 9 8 20 8 11 0 20 -6 20 -14z m-745 -6 c3
-5 1 -10 -4 -10 -6 0 -11 5 -11 10 0 6 2 10 4 10 3 0 8 -4 11 -10z m1025 -24
c0 -7 -7 -21 -16 -32 -15 -19 -16 -19 -8 1 3 11 6 28 6 38 0 9 3 15 9 12 5 -4
9 -12 9 -19z m1450 9 c0 -8 -4 -15 -10 -15 -5 0 -7 7 -4 15 4 8 8 15 10 15 2
0 4 -7 4 -15z m-1910 -9 c0 -7 -11 -21 -25 -30 -29 -19 -33 -5 -7 23 21 23 32
26 32 7z m1365 -6 c3 -5 2 -10 -4 -10 -5 0 -13 5 -16 10 -3 6 -2 10 4 10 5 0
13 -4 16 -10z m-1892 -24 c23 -18 21 -28 -5 -24 -13 2 -24 11 -26 21 -4 20 6
21 31 3z m94 -28 c-3 -8 -6 -5 -6 6 -1 11 2 17 5 13 3 -3 4 -12 1 -19z m1763
12 c0 -5 -2 -10 -4 -10 -3 0 -8 5 -11 10 -3 6 -1 10 4 10 6 0 11 -4 11 -10z
m415 0 c3 -5 -1 -10 -10 -10 -9 0 -13 5 -10 10 3 6 8 10 10 10 2 0 7 -4 10
-10z m-1545 -25 c0 -18 -17 -28 -36 -21 -11 4 -12 10 -4 25 11 22 40 18 40 -4z
m-810 -21 c0 -8 -4 -12 -10 -9 -5 3 -10 10 -10 16 0 5 5 9 10 9 6 0 10 -7 10
-16z m-124 -31 c-10 -10 -19 5 -10 18 6 11 8 11 12 0 2 -7 1 -15 -2 -18z
m1399 -64 c0 -40 -4 -59 -12 -59 -8 0 -13 13 -13 33 l0 32 -22 -35 -21 -35 -9
28 c-12 34 -32 36 -24 2 4 -14 2 -25 -4 -25 -5 0 -10 20 -10 45 0 36 3 43 15
39 9 -4 20 -15 26 -25 5 -11 13 -19 17 -19 10 0 42 59 42 77 0 9 3 13 8 9 4
-4 7 -34 7 -67z m-1130 1 c0 -53 -2 -60 -20 -60 -18 0 -20 5 -17 60 3 48 7 60
20 60 14 0 17 -11 17 -60z m598 42 c-3 -14 4 -22 26 -32 32 -13 40 -37 19 -58
-17 -17 -53 -15 -69 5 -13 15 -12 15 9 4 25 -13 52 -9 52 8 0 6 -13 17 -30 26
-28 14 -39 43 -23 58 12 13 21 7 16 -11z m47 8 c0 -5 -2 -10 -4 -10 -3 0 -8 5
-11 10 -3 6 -1 10 4 10 6 0 11 -4 11 -10z m986 -50 c1 -49 -1 -60 -15 -60 -13
0 -16 11 -16 60 0 47 3 60 15 60 12 0 16 -13 16 -60z m48 54 c19 -7 21 -35 4
-52 -9 -9 -6 -17 12 -37 30 -32 10 -33 -27 -1 -26 23 -27 25 -11 43 12 13 14
23 7 36 -11 19 -9 20 15 11z m-835 -59 c-2 -40 -6 -55 -16 -55 -11 0 -13 14
-12 55 2 38 6 55 16 55 10 0 13 -15 12 -55z m-599 20 c0 -8 -4 -15 -10 -15 -5
0 -10 7 -10 15 0 8 5 15 10 15 6 0 10 -7 10 -15z m654 9 c10 -4 16 -18 16 -41
0 -27 4 -34 18 -31 24 5 28 46 5 63 -25 20 -3 19 25 -1 45 -31 15 -74 -53 -74
-20 0 -23 6 -27 45 -2 25 -2 45 -1 45 1 0 8 -3 17 -6z m1176 -45 c0 -29 -4
-39 -16 -39 -11 0 -14 6 -9 20 5 17 2 20 -20 20 -22 0 -26 -4 -22 -20 4 -14 0
-20 -11 -20 -13 0 -17 9 -17 40 0 31 4 40 17 40 12 0 15 -5 11 -16 -4 -12 0
-15 18 -12 13 1 25 9 25 16 2 22 4 23 14 17 6 -3 10 -24 10 -46z m-1968 1 c2
-26 -1 -40 -8 -40 -7 0 -14 18 -16 40 -2 26 1 40 8 40 7 0 14 -18 16 -40z
m108 10 c23 -20 31 -33 24 -40 -7 -7 -18 -2 -34 15 -30 32 -44 32 -36 0 4 -14
2 -25 -3 -25 -5 0 -11 18 -13 40 -4 50 12 52 62 10z m92 5 c-2 -14 1 -32 8
-40 10 -13 9 -15 -12 -15 -21 0 -23 3 -20 40 3 23 9 40 17 40 8 0 10 -9 7 -25z
m71 3 c13 -20 -6 -48 -32 -47 -10 0 -11 2 -3 6 6 2 12 12 12 22 0 9 -6 23 -12
30 -11 10 -9 12 6 9 10 -1 24 -10 29 -20z m98 -10 c7 -18 14 -36 17 -40 2 -5
-3 -8 -11 -8 -8 0 -17 7 -21 15 -3 8 -12 15 -21 15 -8 0 -15 -7 -15 -15 0 -8
-4 -15 -10 -15 -13 0 -13 6 1 31 5 11 15 16 21 13 7 -4 8 -3 4 4 -8 13 0 32
14 32 4 0 14 -15 21 -32z m239 15 c0 -15 1 -15 18 0 10 10 22 17 27 17 5 0 0
-6 -11 -14 -19 -14 -19 -15 5 -40 14 -14 20 -26 14 -26 -6 0 -16 7 -23 15 -7
8 -16 15 -21 15 -5 0 -9 -7 -9 -15 0 -8 -6 -15 -12 -15 -8 0 -13 15 -13 40 0
25 5 40 13 40 6 0 12 -7 12 -17z m485 -15 c0 -26 4 -33 20 -33 16 0 20 6 18
33 -1 35 12 39 31 9 13 -20 -17 -57 -46 -57 -48 0 -74 40 -46 68 19 19 23 15
23 -20z m131 -8 c1 -28 -3 -40 -12 -40 -10 0 -14 13 -14 40 0 54 25 54 26 0z
m46 10 c-1 -12 3 -29 9 -36 9 -11 8 -14 -4 -14 -24 0 -38 26 -31 54 8 32 30
28 26 -4z m74 -10 c0 -27 -4 -40 -13 -40 -9 0 -13 13 -13 40 0 54 25 54 26 0z
m310 8 c-1 -27 3 -33 19 -33 16 0 20 7 20 33 0 24 4 32 15 30 25 -5 25 -55 0
-68 -47 -25 -108 20 -74 54 21 22 22 21 20 -16z m154 -8 c0 -26 -5 -40 -13
-40 -9 0 -11 12 -9 40 2 22 8 40 13 40 5 0 9 -18 9 -40z m445 6 c12 -12 10
-15 -13 -19 -31 -6 -42 -1 -42 19 0 18 37 18 55 0z m-802 -3 c-7 -2 -19 -2
-25 0 -7 3 -2 5 12 5 14 0 19 -2 13 -5z m-1508 -33 c-3 -5 -14 -10 -23 -10
-15 0 -15 2 -2 10 20 13 33 13 25 0z m1445 0 c0 -5 -5 -10 -11 -10 -5 0 -7 5
-4 10 3 6 8 10 11 10 2 0 4 -4 4 -10z m-1596 -25 c4 -10 -3 -20 -19 -27 -14
-6 -25 -17 -25 -23 0 -8 -10 -10 -25 -7 -14 2 -25 7 -25 11 0 13 24 31 41 31
9 0 22 7 29 15 15 19 16 19 24 0z m-215 -60 c-13 -54 -18 -57 -35 -20 -10 20
-9 25 5 28 22 6 33 3 30 -8z m1661 -12 c0 -7 -4 -13 -9 -13 -5 0 -11 6 -14 13
-3 8 1 14 9 14 8 0 14 -6 14 -14z m820 -3 c0 -5 -2 -10 -4 -10 -3 0 -8 5 -11
10 -3 6 -1 10 4 10 6 0 11 -4 11 -10z m-2519 -52 c16 -29 2 -21 -22 15 -17 23
-18 28 -6 18 10 -8 23 -23 28 -33z m409 32 c0 -5 -4 -10 -10 -10 -5 0 -10 5
-10 10 0 6 5 10 10 10 6 0 10 -4 10 -10z m186 -11 c13 -15 14 -20 4 -15 -8 3
-23 9 -32 12 -10 4 -18 10 -18 15 0 17 27 9 46 -12z m49 -8 c-3 -6 -11 -11
-17 -11 -6 0 -6 6 2 15 14 17 26 13 15 -4z m-457 -37 c26 -7 23 -32 -9 -73
-21 -26 -21 -26 -23 46 -1 36 -1 36 32 27z m119 -19 c0 -8 -4 -15 -9 -15 -10
0 -11 14 -1 23 9 10 10 9 10 -8z m2483 -26 c0 -5 -4 -9 -10 -9 -5 0 -10 7 -10
16 0 8 5 12 10 9 6 -3 10 -10 10 -16z m-2475 -9 c3 -5 -1 -10 -9 -10 -9 0 -16
5 -16 10 0 6 4 10 9 10 6 0 13 -4 16 -10z m-70 -50 c4 -16 11 -32 16 -35 5 -4
9 -11 9 -16 0 -5 -11 -2 -25 7 -19 12 -25 25 -25 51 0 40 16 36 25 -7z m400
30 c3 -5 1 -10 -4 -10 -6 0 -11 5 -11 10 0 6 2 10 4 10 3 0 8 -4 11 -10z
m-588 -57 c-3 -10 -5 -2 -5 17 0 19 2 27 5 18 2 -10 2 -26 0 -35z m531 18 c22
-19 31 -61 12 -61 -5 0 -10 8 -10 19 0 21 -27 48 -37 37 -4 -4 -8 -17 -8 -28
0 -12 -7 -23 -15 -26 -13 -5 -13 -3 -1 11 9 12 10 17 2 17 -17 0 -9 34 9 42
22 10 23 9 48 -11z m-278 -26 c0 -19 -4 -35 -8 -35 -5 0 -9 16 -10 35 -1 19 3
35 8 35 6 0 10 -16 10 -35z m35 5 c0 -16 -3 -30 -7 -30 -10 0 -20 38 -13 50
12 19 20 10 20 -20z m107 8 c25 -25 23 -48 -4 -47 -18 1 -19 2 -5 6 14 4 16 8
6 19 -15 18 -29 18 -43 -1 -9 -13 -11 -10 -12 13 -1 22 4 28 20 28 11 0 28 -8
38 -18z m56 -13 c2 -19 -2 -35 -7 -35 -5 0 -11 16 -13 35 -2 21 0 35 7 35 6 0
12 -16 13 -35z m1950 -9 c3 -12 -1 -17 -10 -14 -7 3 -15 13 -16 22 -3 12 1 17
10 14 7 -3 15 -13 16 -22z m-2402 -53 c-11 -11 -17 4 -9 23 7 18 8 18 11 1 2
-10 1 -21 -2 -24z m221 -5 c-3 -8 -6 -5 -6 6 -1 11 2 17 5 13 3 -3 4 -12 1
-19z m240 0 c-3 -8 -6 -5 -6 6 -1 11 2 17 5 13 3 -3 4 -12 1 -19z m-146 -5
c13 -16 12 -17 -3 -4 -17 13 -22 21 -14 21 2 0 10 -8 17 -17z m219 2 c0 -9 -6
-12 -16 -8 -13 5 -13 7 -2 14 17 11 18 11 18 -6z m948 3 c10 -10 15 -10 22 2
5 8 12 11 16 7 4 -4 1 -14 -7 -22 -12 -12 -17 -11 -38 6 -13 10 -19 19 -14 19
5 0 15 -6 21 -12z m287 2 c3 -5 1 -10 -4 -10 -6 0 -11 5 -11 10 0 6 2 10 4 10
3 0 8 -4 11 -10z m390 0 c-3 -5 -13 -10 -21 -10 -8 0 -12 5 -9 10 3 6 13 10
21 10 8 0 12 -4 9 -10z m-1755 -10 c0 -5 -4 -10 -10 -10 -5 0 -10 5 -10 10 0
6 5 10 10 10 6 0 10 -4 10 -10z m795 0 c3 -5 1 -10 -4 -10 -6 0 -11 5 -11 10
0 6 2 10 4 10 3 0 8 -4 11 -10z m-195 -30 c11 -7 12 -12 3 -21 -13 -13 -33 -4
-33 17 0 16 9 18 30 4z m-472 -79 c3 -8 -1 -12 -9 -9 -7 2 -15 10 -17 17 -3 8
1 12 9 9 7 -2 15 -10 17 -17z m528 -3 c4 -13 -1 -24 -13 -33 -21 -16 -29 -10
-38 26 -6 23 -4 27 19 27 16 0 28 -7 32 -20z m632 -14 c-4 -3 -16 -3 -28 1
-17 5 -19 9 -9 21 11 13 14 13 28 0 8 -9 12 -18 9 -22z m62 20 c0 -8 -5 -12
-10 -9 -6 4 -8 11 -5 16 9 14 15 11 15 -7z m996 -31 c-3 -3 -13 -2 -23 1 -17
7 -17 8 2 22 18 13 20 13 23 -1 2 -9 1 -19 -2 -22z m-874 -5 c-9 -9 -12 -7
-12 12 0 19 3 21 12 12 9 -9 9 -15 0 -24z"/>
<path d="M987 3399 c-12 -7 -17 -23 -17 -59 l0 -50 50 0 c55 0 90 23 90 60 0
35 -86 70 -123 49z"/>
<path d="M615 3400 c-4 -6 7 -10 25 -10 18 0 29 4 25 10 -3 6 -15 10 -25 10
-10 0 -22 -4 -25 -10z"/>
<path d="M1452 2988 c1 -20 5 -35 9 -32 4 2 5 17 3 31 -8 42 -15 42 -12 1z"/>
<path d="M1312 2959 c-34 -13 -25 -43 14 -47 45 -4 83 13 81 38 -1 16 -8 20
-37 19 -19 0 -45 -4 -58 -10z"/>
<path d="M535 2958 c-29 -16 -29 -16 -15 -33 26 -31 110 -12 110 25 0 16 -7
20 -37 20 -21 0 -47 -6 -58 -12z"/>
<path d="M774 2649 c-6 -8 -10 -32 -10 -53 1 -35 5 -41 31 -48 38 -11 83 -3
107 19 22 19 23 41 3 67 -19 25 -115 35 -131 15z"/>
<path d="M1038 2654 c-5 -4 -8 -29 -8 -56 0 -45 2 -48 28 -50 103 -5 149 31
108 87 -14 19 -114 34 -128 19z"/>
<path d="M1401 2656 c11 -9 69 -14 69 -6 0 6 -16 10 -37 10 -20 0 -34 -2 -32
-4z"/>
<path d="M1941 2656 c12 -10 59 -15 59 -6 0 5 -14 10 -32 10 -17 0 -29 -2 -27
-4z"/>
</g>
</svg>
