<svg width="30" height="30" viewBox="0 0 30 30" fill="none" xmlns="http://www.w3.org/2000/svg">
    <g clip-path="url(#clip0_112_3692)">
    <path d="M29.99 5.45798C29.9909 5.44075 29.9907 5.42346 29.9897 5.40624C29.9838 5.38802 29.9769 5.3702 29.9688 5.35286C29.9402 5.26737 29.8909 5.1902 29.8253 5.12827C29.8008 5.10806 29.7744 5.09024 29.7465 5.07513C29.7217 5.05907 29.6955 5.04536 29.6681 5.03411C29.634 5.02333 29.5988 5.01624 29.5632 5.01296C29.542 5.0071 29.5204 5.00276 29.4985 4.99989C29.4932 4.99989 29.4888 5.00276 29.4835 5.00288C29.4779 5.003 29.4729 5.00054 29.4672 5.00083L11.9906 6.09196C11.9247 4.56343 10.9372 3.22803 9.49495 2.71733C9.5628 2.382 9.70576 2.06647 9.91307 1.79436C10.4469 1.21968 11.2176 0.92601 11.9985 0.999955C12.2747 0.999955 12.4985 0.776128 12.4985 0.499978C12.4985 0.223827 12.2747 0 11.9986 0C10.7149 0 9.75006 0.394041 9.1309 1.17087C8.82551 1.56544 8.61458 2.0247 8.51409 2.51342C8.42603 2.50721 8.33819 2.49995 8.24855 2.49995C6.39764 2.50317 4.82552 3.8555 4.54579 5.6852C4.05086 5.24434 3.41137 5.00054 2.74856 4.99995C1.51868 5.00335 0.441091 5.82401 0.110742 7.00865C0.0401951 7.09402 0.000644519 7.20072 -0.00146484 7.31146V24.0658C-0.00134766 27.3378 2.91444 29.9998 6.49865 29.9998C6.52848 29.9967 6.55795 29.9907 6.58666 29.9821C6.67285 30.0077 6.76496 30.0057 6.84998 29.9764L29.6499 22.7313C29.6575 22.7289 29.6626 22.7229 29.67 22.7202C29.7026 22.7065 29.7337 22.6893 29.7625 22.6688C29.8737 22.6102 29.9516 22.5034 29.9733 22.3796C29.9839 22.3464 29.9908 22.3121 29.994 22.2773C29.9943 22.2694 29.9985 22.2627 29.9985 22.2547V5.49999C29.9985 5.48505 29.9913 5.47251 29.99 5.45798ZM5.76137 5.07208C6.21559 4.11015 7.1849 3.4975 8.24866 3.49996C8.3021 3.49996 8.35437 3.50494 8.40704 3.50799C8.403 3.87853 8.43798 4.24849 8.51134 4.61177C8.56343 4.8387 8.76528 4.99972 8.99813 4.99995C9.03592 5.00007 9.0736 4.99579 9.11045 4.98724C9.37957 4.92548 9.54768 4.6573 9.48598 4.38818C9.48598 4.38818 9.48598 4.38818 9.48598 4.38812C9.44678 4.18164 9.4227 3.97257 9.41385 3.76263C10.7841 4.40962 11.3703 6.04491 10.7233 7.41511C10.0763 8.78532 8.44102 9.37155 7.07082 8.72456C5.70061 8.07757 5.11433 6.44229 5.76137 5.07208ZM5.99862 28.9798C3.19932 28.7523 0.998666 26.6351 0.998666 24.0658V10.5585C2.13122 12.2455 3.97298 13.322 5.99862 13.4809V28.9798ZM6.43033 12.4966C3.56084 12.4613 1.1431 10.2294 1.01144 7.54015C1.01771 7.49591 1.0238 7.45109 1.03412 7.40281C1.19935 6.58695 1.9163 6.00038 2.74873 5.99997C3.50131 6.00161 4.16904 6.48283 4.40863 7.19627C4.45831 7.34146 4.57304 7.45513 4.7187 7.50341C5.40817 9.4534 7.54789 10.4752 9.49782 9.78574C10.7041 9.35918 11.6092 8.34628 11.8979 7.09976L25.6026 6.24412L14.3436 9.91453C14.3365 9.91688 14.3318 9.92256 14.3248 9.9252C14.2926 9.93902 14.262 9.95637 14.2336 9.97688C14.1222 10.035 14.0446 10.1419 14.0237 10.2657C14.013 10.2994 14.0059 10.3342 14.0028 10.3695C14.0025 10.3768 13.9987 10.3829 13.9987 10.3902V13.0001C13.9987 13.2762 13.7748 13.5 13.4987 13.5C13.2225 13.5 12.9987 13.2762 12.9987 13.0001V11.0449C12.9987 10.7687 12.7748 10.5449 12.4987 10.5449C12.2226 10.5449 11.9988 10.7688 11.9988 11.0449V23.4999C11.9988 23.776 11.7749 23.9999 11.4988 23.9999C11.2226 23.9999 10.9988 23.776 10.9988 23.4999V11.6948C10.9863 11.6438 10.9781 11.5918 10.9741 11.5395C10.9719 11.5325 10.9663 11.5279 10.9637 11.521C10.9501 11.4893 10.9331 11.4592 10.913 11.4311C10.8876 11.3761 10.8455 11.3306 10.7928 11.301C10.7485 11.258 10.6917 11.2301 10.6305 11.2214C10.5942 11.2094 10.5564 11.2018 10.5182 11.1987C10.5114 11.1984 10.5057 11.1948 10.4988 11.1948C10.4728 11.1978 10.4471 11.203 10.422 11.2103C10.3957 11.2113 10.3695 11.2144 10.3438 11.2197L6.43033 12.4966ZM6.99863 21.311V19.3624L9.99861 18.3836V20.3321L6.99863 21.311ZM9.99861 21.3835V23.3332L6.99863 24.3108V22.3624L9.99861 21.3835ZM6.99863 18.311V13.3625L9.99861 12.3836V17.3322L6.99863 18.311ZM28.9985 21.889L6.99863 28.8798V25.363L10.2384 24.3072C10.6829 25.0046 11.6086 25.2096 12.306 24.7652C12.7381 24.4897 12.9995 24.0123 12.9986 23.4998V23.4078L28.9985 18.1892V21.889ZM28.9985 17.1368L12.9986 22.3556V20.4079L28.9985 15.1892V17.1368ZM28.9985 14.1368L12.9986 19.3556V17.4079L28.9985 12.1892V14.1368ZM28.9985 11.1368L12.9986 16.3556V14.4078C13.1587 14.4671 13.3279 14.4982 13.4986 14.4999C14.3266 14.4991 14.9977 13.828 14.9986 12.9999V10.7532L28.9985 6.18905V11.1368H28.9985Z" fill="#28439D"/>
    </g>
    <defs>
    <clipPath id="clip0_112_3692">
    <rect width="30" height="30" fill="white"/>
    </clipPath>
    </defs>
    </svg>
    