<svg width="64" height="64" viewBox="0 0 64 64" fill="none" xmlns="http://www.w3.org/2000/svg">
    <g filter="url(#filter0_d_588_9073)">
    <circle cx="32" cy="28" r="24" fill="white"/>
    </g>
    <path d="M31 19H26C25.4477 19 25 19.4477 25 20V27C25 27.5523 25.4477 28 26 28H31C31.5523 28 32 27.5523 32 27V20C32 19.4477 31.5523 19 31 19Z" stroke="#3855B3" stroke-opacity="0.9" stroke-width="2" stroke-linecap="round" stroke-linejoin="round"/>
    <path d="M42 19H37C36.4477 19 36 19.4477 36 20V23C36 23.5523 36.4477 24 37 24H42C42.5523 24 43 23.5523 43 23V20C43 19.4477 42.5523 19 42 19Z" stroke="#3855B3" stroke-opacity="0.9" stroke-width="2" stroke-linecap="round" stroke-linejoin="round"/>
    <path d="M42 28H37C36.4477 28 36 28.4477 36 29V36C36 36.5523 36.4477 37 37 37H42C42.5523 37 43 36.5523 43 36V29C43 28.4477 42.5523 28 42 28Z" stroke="#3855B3" stroke-opacity="0.9" stroke-width="2" stroke-linecap="round" stroke-linejoin="round"/>
    <path d="M31 32H26C25.4477 32 25 32.4477 25 33V36C25 36.5523 25.4477 37 26 37H31C31.5523 37 32 36.5523 32 36V33C32 32.4477 31.5523 32 31 32Z" stroke="#3855B3" stroke-opacity="0.9" stroke-width="2" stroke-linecap="round" stroke-linejoin="round"/>
    <defs>
    <filter id="filter0_d_588_9073" x="0" y="0" width="64" height="64" filterUnits="userSpaceOnUse" color-interpolation-filters="sRGB">
    <feFlood flood-opacity="0" result="BackgroundImageFix"/>
    <feColorMatrix in="SourceAlpha" type="matrix" values="0 0 0 0 0 0 0 0 0 0 0 0 0 0 0 0 0 0 127 0" result="hardAlpha"/>
    <feOffset dy="4"/>
    <feGaussianBlur stdDeviation="4"/>
    <feColorMatrix type="matrix" values="0 0 0 0 0 0 0 0 0 0 0 0 0 0 0 0 0 0 0.08 0"/>
    <feBlend mode="normal" in2="BackgroundImageFix" result="effect1_dropShadow_588_9073"/>
    <feBlend mode="normal" in="SourceGraphic" in2="effect1_dropShadow_588_9073" result="shape"/>
    </filter>
    </defs>
    </svg>
    