<svg width="30" height="30" viewBox="0 0 30 30" fill="none" xmlns="http://www.w3.org/2000/svg">
    <path d="M9.875 25.0001C12.2607 26.2239 15.0051 26.5554 17.6136 25.9348C20.2221 25.3142 22.5232 23.7823 24.1022 21.6153C25.6812 19.4482 26.4343 16.7884 26.2257 14.1153C26.0172 11.4421 24.8607 8.93127 22.9648 7.0353C21.0688 5.13933 18.558 3.98287 15.8848 3.77433C13.2116 3.56579 10.5518 4.31887 8.38477 5.89787C6.21771 7.47687 4.68586 9.77795 4.06528 12.3864C3.44469 14.995 3.77618 17.7393 5 20.1251L2.5 27.5001L9.875 25.0001Z" stroke="#3855B3" stroke-opacity="0.9" stroke-width="2" stroke-linecap="round" stroke-linejoin="round"/>
    <path d="M12.5 12.5L10 15L12.5 17.5" stroke="#3855B3" stroke-opacity="0.9" stroke-width="2" stroke-linecap="round" stroke-linejoin="round"/>
    <path d="M17.5 12.5L20 15L17.5 17.5" stroke="#3855B3" stroke-opacity="0.9" stroke-width="2" stroke-linecap="round" stroke-linejoin="round"/>
    </svg>
    