<svg width="26" height="26" viewBox="0 0 26 26" fill="none" xmlns="http://www.w3.org/2000/svg">
    <path d="M14.8244 13L17.5607 10.2637C17.8964 9.92793 17.8964 9.38352 17.5607 9.04746L16.9525 8.43934C16.6168 8.10355 16.0723 8.10355 15.7363 8.43934L13 11.1756L10.2637 8.43934C9.92793 8.10355 9.38352 8.10355 9.04746 8.43934L8.43934 9.04746C8.10355 9.38324 8.10355 9.92766 8.43934 10.2637L11.1756 13L8.43934 15.7363C8.10355 16.0721 8.10355 16.6165 8.43934 16.9525L9.04746 17.5607C9.38324 17.8964 9.92793 17.8964 10.2637 17.5607L13 14.8244L15.7363 17.5607C16.0721 17.8964 16.6168 17.8964 16.9525 17.5607L17.5607 16.9525C17.8964 16.6168 17.8964 16.0723 17.5607 15.7363L14.8244 13Z" fill="#9CA3AF"/>
    </svg>
    