<svg width="20" height="20" viewBox="0 0 20 20" fill="none" xmlns="http://www.w3.org/2000/svg">
    <g clip-path="url(#clip0_141_3034)">
    <path d="M5.83333 0H3.33333C1.49238 0 0 1.49238 0 3.33333V5.83333C0 7.67428 1.49238 9.16667 3.33333 9.16667H5.83333C7.67428 9.16667 9.16667 7.67428 9.16667 5.83333V3.33333C9.16667 1.49238 7.67428 0 5.83333 0Z" fill="white"/>
    <path d="M16.6663 0H14.1663C12.3254 0 10.833 1.49239 10.833 3.33334V5.83334C10.833 7.67429 12.3254 9.16667 14.1663 9.16667H16.6663C18.5073 9.16667 19.9997 7.67429 19.9997 5.83334V3.33334C19.9997 1.49239 18.5073 0 16.6663 0Z" fill="white"/>
    <path d="M5.83333 10.833H3.33333C1.49238 10.833 0 12.3254 0 14.1663V16.6663C0 18.5073 1.49238 19.9997 3.33333 19.9997H5.83333C7.67428 19.9997 9.16667 18.5073 9.16667 16.6663V14.1663C9.16667 12.3254 7.67428 10.833 5.83333 10.833Z" fill="white"/>
    <path d="M16.6663 10.833H14.1663C12.3254 10.833 10.833 12.3254 10.833 14.1663V16.6663C10.833 18.5073 12.3254 19.9997 14.1663 19.9997H16.6663C18.5073 19.9997 19.9997 18.5073 19.9997 16.6663V14.1663C19.9997 12.3254 18.5073 10.833 16.6663 10.833Z" fill="white"/>
    </g>
    <defs>
    <clipPath id="clip0_141_3034">
    <rect width="20" height="20" fill="white"/>
    </clipPath>
    </defs>
    </svg>
    