<svg width="15" height="15" viewBox="0 0 15 15" fill="none" xmlns="http://www.w3.org/2000/svg">
    <g clip-path="url(#clip0_112_3735)">
    <path d="M5.64453 -0.0195312C5.354 -0.0195312 5.11719 0.217285 5.11719 0.507812V2.30469C3.41797 2.49756 2.24609 2.88818 2.24609 3.33984V4.19922C2.24609 4.375 2.43408 4.53613 2.75391 4.6875C3.59131 5.08057 5.40283 5.35156 7.5 5.35156C9.59961 5.35156 11.4062 5.08057 12.2461 4.6875C12.5635 4.53613 12.7539 4.375 12.7539 4.19922V3.33984C12.7539 2.87353 11.4868 2.46826 9.6875 2.28516V0.507812C9.6875 0.217285 9.45068 -0.0195312 9.16016 -0.0195312H5.64453ZM6.17188 0.9375H8.65234C8.70606 0.9375 8.73047 1.18896 8.73047 1.50391V2.20703C8.33252 2.1875 7.92969 2.16797 7.5 2.16797C7.05566 2.16797 6.62109 2.18506 6.21094 2.20703L6.07422 2.22656V1.50391C6.07422 1.18896 6.12061 0.9375 6.17188 0.9375ZM2.98828 5.95703C2.93213 6.01562 2.90283 6.06934 2.89062 6.13281V6.17188C2.89062 6.18164 2.88818 6.20361 2.89062 6.21094L3.24219 13.5547C3.27393 14.1309 3.94043 15 7.5 15C11.0596 15 11.7261 14.1309 11.7578 13.5547L12.1094 6.21094C12.1094 6.20117 12.1094 6.18164 12.1094 6.17188V6.13281C12.0996 6.06934 12.0679 6.01562 12.0117 5.95703C11.5527 6.42334 9.70459 6.48438 7.5 6.48438C5.29541 6.48438 3.44971 6.42334 2.98828 5.95703Z" fill="#E42346" fill-opacity="0.8"/>
    </g>
    <defs>
    <clipPath id="clip0_112_3735">
    <rect width="15" height="15" fill="white"/>
    </clipPath>
    </defs>
    </svg>
    