<svg width="18" height="17" viewBox="0 0 18 17" fill="none" xmlns="http://www.w3.org/2000/svg">
    <path d="M2.11145 11.9493C1.73987 12.3208 1.44512 12.7618 1.24402 13.2472C1.04293 13.7326 0.939434 14.2529 0.939453 14.7783V16.1213H2.28245C2.80787 16.1213 3.32814 16.0178 3.81354 15.8168C4.29895 15.6157 4.73999 15.3209 5.11145 14.9493L16.4395 3.62132C16.8373 3.2235 17.0608 2.68393 17.0608 2.12132C17.0608 1.55871 16.8373 1.01915 16.4395 0.62132C16.0416 0.223496 15.5021 5.92805e-09 14.9395 0C14.3768 -5.92805e-09 13.8373 0.223496 13.4395 0.62132L2.11145 11.9493Z" fill="white" fill-opacity="0.7"/>
    </svg>
    