<svg width="15" height="15" viewBox="0 0 15 15" fill="none" xmlns="http://www.w3.org/2000/svg">
    <g clip-path="url(#clip0_112_3731)">
    <path d="M10.5859 0.664062L2.42188 8.82813L0.671387 14.3286L6.17188 12.5781L14.3359 4.41406C14.3359 4.41406 14.2734 3.10094 13.0859 1.91406C11.8984 0.726563 10.5859 0.664062 10.5859 0.664062ZM10.8203 1.67969C11.4903 1.80719 12.0237 2.09101 12.4353 2.51343C12.8469 2.93585 13.1366 3.49688 13.3203 4.17969L12.1875 5.3125L9.6875 2.8125L10.5859 1.91406L10.8203 1.67969ZM3.11157 9.45435C3.11896 9.45621 3.8631 9.64435 4.60938 10.3906C5.42188 11.1406 5.54688 11.8286 5.54688 11.8286L5.57373 11.8604L3.35571 12.5745L2.42065 11.6394L3.11157 9.45435Z" fill="#3855B3" fill-opacity="0.9"/>
    </g>
    <defs>
    <clipPath id="clip0_112_3731">
    <rect width="15" height="15" fill="white"/>
    </clipPath>
    </defs>
    </svg>
    