<svg width="18" height="19" viewBox="0 0 18 19" fill="none" xmlns="http://www.w3.org/2000/svg">
    <path d="M12.0002 8.14607C12.0002 9.27107 10.306 10.9451 9.00022 11.9426C7.69447 10.9451 6.00022 9.27257 6.00022 8.14607C5.94322 6.64157 8.18497 6.34607 8.25022 7.96157V8.37107C8.25022 8.56998 8.32923 8.76075 8.46989 8.9014C8.61054 9.04205 8.8013 9.12107 9.00022 9.12107C9.19913 9.12107 9.38989 9.04205 9.53055 8.9014C9.6712 8.76075 9.75022 8.56998 9.75022 8.37107V7.96157C9.81547 6.34607 12.0572 6.64157 12.0002 8.14607ZM18.0002 9.37607V14.3711C17.9988 15.3652 17.6033 16.3182 16.9003 17.0212C16.1974 17.7241 15.2444 18.1197 14.2502 18.1211H9.81322C4.56172 18.1211 0.352716 14.5271 0.0219659 9.76232C-0.0700097 8.47663 0.115255 7.18618 0.565225 5.9783C1.01519 4.77042 1.71937 3.67328 2.6301 2.76112C3.54083 1.84897 4.63687 1.14309 5.84405 0.691231C7.05123 0.239378 8.34139 0.0520992 9.62722 0.142068C11.9308 0.339797 14.0744 1.40166 15.6275 3.11445C17.1805 4.82724 18.0282 7.06415 18.0002 9.37607ZM13.5002 8.14607C13.5155 7.61839 13.3742 7.09801 13.0943 6.65042C12.8144 6.20284 12.4084 5.84807 11.9273 5.63077C11.4462 5.41347 10.9116 5.34337 10.3907 5.42928C9.86984 5.51519 9.38605 5.75328 9.00022 6.11357C8.61439 5.75328 8.13059 5.51519 7.60973 5.42928C7.08888 5.34337 6.55424 5.41347 6.07315 5.63077C5.59205 5.84807 5.18599 6.20284 4.9061 6.65042C4.6262 7.09801 4.48498 7.61839 4.50022 8.14607C4.50022 10.5881 8.15572 13.1981 8.57272 13.4876C8.69826 13.5747 8.84742 13.6213 9.00022 13.6213C9.15302 13.6213 9.30217 13.5747 9.42772 13.4876C9.84472 13.1981 13.5002 10.5881 13.5002 8.14607Z" fill="white" fill-opacity="0.7"/>
    </svg>
    