<svg width="64" height="64" viewBox="0 0 64 64" fill="none" xmlns="http://www.w3.org/2000/svg">
    <g filter="url(#filter0_d_588_9045)">
    <circle cx="32" cy="28" r="24" fill="white"/>
    </g>
    <path d="M36 19H25C24.4696 19 23.9609 19.2107 23.5858 19.5858C23.2107 19.9609 23 20.4696 23 21V35C23 35.5304 23.2107 36.0391 23.5858 36.4142C23.9609 36.7893 24.4696 37 25 37H39C39.5304 37 40.0391 36.7893 40.4142 36.4142C40.7893 36.0391 41 35.5304 41 35V24L36 19Z" stroke="#3855B3" stroke-opacity="0.9" stroke-width="2" stroke-linecap="round" stroke-linejoin="round"/>
    <path d="M35 19V23C35 23.5304 35.2107 24.0391 35.5858 24.4142C35.9609 24.7893 36.4696 25 37 25H41" stroke="#3855B3" stroke-opacity="0.9" stroke-width="2" stroke-linecap="round" stroke-linejoin="round"/>
    <defs>
    <filter id="filter0_d_588_9045" x="0" y="0" width="64" height="64" filterUnits="userSpaceOnUse" color-interpolation-filters="sRGB">
    <feFlood flood-opacity="0" result="BackgroundImageFix"/>
    <feColorMatrix in="SourceAlpha" type="matrix" values="0 0 0 0 0 0 0 0 0 0 0 0 0 0 0 0 0 0 127 0" result="hardAlpha"/>
    <feOffset dy="4"/>
    <feGaussianBlur stdDeviation="4"/>
    <feColorMatrix type="matrix" values="0 0 0 0 0 0 0 0 0 0 0 0 0 0 0 0 0 0 0.08 0"/>
    <feBlend mode="normal" in2="BackgroundImageFix" result="effect1_dropShadow_588_9045"/>
    <feBlend mode="normal" in="SourceGraphic" in2="effect1_dropShadow_588_9045" result="shape"/>
    </filter>
    </defs>
    </svg>
    