<svg width="25" height="24" viewBox="0 0 25 24" fill="none" xmlns="http://www.w3.org/2000/svg">
<path fill-rule="evenodd" clip-rule="evenodd" d="M4.2602 9.78857L3.1859 13.378C3.08791 13.7054 3.19523 14.064 3.45178 14.2663L12.75 21.6001L4.2602 9.78857Z" fill="#FCA326"/>
<path fill-rule="evenodd" clip-rule="evenodd" d="M21.2398 9.78857L22.3141 13.378C22.4121 13.7054 22.3048 14.064 22.0483 14.2663L12.75 21.6001L21.2398 9.78857Z" fill="#FCA326"/>
<path fill-rule="evenodd" clip-rule="evenodd" d="M12.75 21.6001L9.21477 9.78857H4.26019L12.75 21.6001Z" fill="#FC6D26"/>
<path fill-rule="evenodd" clip-rule="evenodd" d="M12.75 21.6001L16.2853 9.78857H21.2398L12.75 21.6001Z" fill="#FC6D26"/>
<path fill-rule="evenodd" clip-rule="evenodd" d="M21.2397 9.7884H16.2852L18.4145 2.67444C18.524 2.30834 19.001 2.30844 19.1105 2.67444L21.2397 9.7884Z" fill="#E24329"/>
<path fill-rule="evenodd" clip-rule="evenodd" d="M4.26031 9.7884H9.21489L7.08559 2.67444C6.97608 2.30834 6.49904 2.30844 6.38952 2.67444L4.26031 9.7884Z" fill="#E24329"/>
<path fill-rule="evenodd" clip-rule="evenodd" d="M12.75 21.6001L16.2852 9.78857H9.21472L12.75 21.6001Z" fill="#E24329"/>
</svg>
