<svg width="25" height="24" viewBox="0 0 25 24" fill="none" xmlns="http://www.w3.org/2000/svg">
<path d="M7.23918 13.8775L6.61263 16.2165L4.32258 16.2649C3.6382 14.9956 3.25 13.5432 3.25 11.9999C3.25 10.5074 3.61295 9.10006 4.25631 7.86084H4.2568L6.29559 8.23462L7.1887 10.2612C7.00177 10.8061 6.89989 11.3911 6.89989 11.9999C6.89996 12.6605 7.01963 13.2935 7.23918 13.8775Z" fill="#FBBB00"/>
<path d="M21.0928 10.3188C21.1961 10.8633 21.25 11.4255 21.25 12.0002C21.25 12.6445 21.1823 13.273 21.0532 13.8793C20.6151 15.9424 19.4703 17.7438 17.8844 19.0187L17.8839 19.0182L15.316 18.8872L14.9525 16.6184C16.0048 16.0012 16.8272 15.0354 17.2604 13.8793H12.4479V10.3188H17.3306H21.0928Z" fill="#518EF8"/>
<path d="M17.8839 19.0178L17.8844 19.0183C16.342 20.258 14.3828 20.9998 12.25 20.9998C8.82257 20.9998 5.84269 19.0841 4.32257 16.2649L7.23917 13.8774C7.99921 15.9059 9.95597 17.3499 12.25 17.3499C13.236 17.3499 14.1598 17.0833 14.9524 16.618L17.8839 19.0178Z" fill="#28B446"/>
<path d="M17.9946 5.07197L15.079 7.45894C14.2586 6.94615 13.2888 6.64992 12.2499 6.64992C9.90397 6.64992 7.91061 8.16013 7.18864 10.2613L4.25672 7.86098H4.25623C5.75409 4.97307 8.77155 3 12.2499 3C14.4336 3 16.4359 3.77787 17.9946 5.07197Z" fill="#F14336"/>
</svg>
