<svg width="14" height="17" viewBox="0 0 14 17" fill="none" xmlns="http://www.w3.org/2000/svg">
    <path d="M14 6.12109C14 5.59066 13.8156 5.08195 13.4874 4.70688C13.1592 4.33181 12.7141 4.12109 12.25 4.12109H10.5C10.5 3.06023 10.1313 2.04281 9.47487 1.29267C8.8185 0.542521 7.92826 0.121094 7 0.121094C6.07174 0.121094 5.1815 0.542521 4.52513 1.29267C3.86875 2.04281 3.5 3.06023 3.5 4.12109H1.75C1.28587 4.12109 0.840752 4.33181 0.512563 4.70688C0.184374 5.08195 0 5.59066 0 6.12109L0 12.7878C0.00092625 13.6715 0.308514 14.5187 0.855295 15.1436C1.40208 15.7685 2.1434 16.12 2.91667 16.1211H11.0833C11.8566 16.12 12.5979 15.7685 13.1447 15.1436C13.6915 14.5187 13.9991 13.6715 14 12.7878V6.12109ZM4.66667 4.12109C4.66667 3.41385 4.9125 2.73557 5.35008 2.23548C5.78767 1.73538 6.38116 1.45443 7 1.45443C7.61884 1.45443 8.21233 1.73538 8.64992 2.23548C9.0875 2.73557 9.33333 3.41385 9.33333 4.12109H4.66667Z" fill="white" fill-opacity="0.7"/>
    </svg>
    