<svg width="161" height="49" viewBox="0 0 161 49" fill="none" xmlns="http://www.w3.org/2000/svg">
<g clip-path="url(#clip0_3_552)">
<path d="M138.143 47.6478C132.609 49.7907 130.358 47.7606 130.358 46.4792C132.319 46.314 137.004 46.0451 138.143 47.6478ZM145.168 45.8956C143.793 46.9057 142.105 47.3946 140.403 47.2752C138.702 47.1558 137.098 46.4359 135.878 45.2438C137.767 44.7192 142.924 44.0976 145.168 45.8956ZM135.805 41.7304C136.015 44.3966 133.284 45.8956 130.336 46.112C130.874 43.4301 133.627 42.2327 135.805 41.7304ZM141.093 39.2727C141.405 40.4124 140.976 43.5061 136.735 44.7337C136.917 42.6445 138.028 39.9245 141.093 39.2727ZM149.503 42.3743C148.416 43.4593 146.982 44.1285 145.452 44.2653C143.922 44.4021 142.392 43.998 141.13 43.1232C142.829 42.2471 146.91 41.0642 149.503 42.3743ZM145.022 36.2025C145.603 37.3251 145.726 40.5238 141.971 42.4491C141.754 40.3901 142.581 36.8688 145.022 36.2025ZM154.311 37.4458C153.958 38.1413 153.467 38.7577 152.868 39.2575C152.268 39.7573 151.574 40.1301 150.827 40.3533C150.086 40.5707 149.308 40.6317 148.543 40.5324C147.778 40.433 147.041 40.1755 146.381 39.7763C148.748 37.5507 152.525 36.6969 154.311 37.4458ZM148.698 31.4825C150.382 34.4202 148.602 37.775 146.751 39.1533C145.927 36.4228 146.684 33.4471 148.698 31.4825ZM157.435 31.3553C157.638 35.9179 152.874 35.6701 150.636 35.7002C151.341 34.7415 155.255 31.2661 157.435 31.3553ZM151.56 27.093C152.445 28.0674 153.773 31.813 150.832 34.8688C149.91 32.6589 149.708 29.2661 151.56 27.093ZM159.933 25.0707C160.086 28.756 156.984 30.6209 153.992 30.592C154.892 28.8163 157.297 25.3933 159.933 25.0707ZM153.658 22.5317C155.641 23.6989 155.415 27.4681 154.246 29.4301C152.931 27.6032 151.951 25.333 153.658 22.5317ZM160.063 19.0786C161.044 22.4347 158.162 24.7048 156.432 24.8989C156.875 23.2963 157.455 20.4569 160.063 19.0786ZM154.021 17.9625C156.208 19.0576 157.244 21.6766 156.425 24.0373C154.9 22.8084 153.063 20.2091 154.021 17.9625ZM160.166 13.9022C161.516 17.9848 158.415 19.3186 157.261 19.6465C157.398 17.9101 158.503 14.4491 160.166 13.9022ZM154.108 12.8307C154.994 13.0865 157.522 15.1612 157.064 18.8766C155.401 17.9402 153.381 16.1566 154.108 12.8307ZM159.25 7.71596C160.761 12.7337 158.24 14.794 157.413 15.2045C157.282 13.6176 157.122 9.91006 159.25 7.71596ZM153.658 7.84187C155.241 8.28383 157.238 11.1901 157.144 13.9848C155.575 13.2661 153.229 10.2773 153.658 7.84187ZM154.13 0.0595703C157.805 3.8576 158.32 6.85301 157.246 10.5461C155.582 9.04842 154.253 4.554 154.13 0.0595703ZM22.8567 47.6478C28.3912 49.7907 30.6417 47.7606 30.6417 46.4792C28.681 46.314 23.9964 46.0451 22.8567 47.6478ZM15.8312 45.8956C17.2055 46.9057 18.894 47.3946 20.5954 47.2752C22.2968 47.1558 23.9005 46.4359 25.1203 45.2438C23.2318 44.7192 18.0751 44.0976 15.8312 45.8956ZM25.1938 41.7304C24.9839 44.3966 27.7144 45.8956 30.6626 46.112C30.1249 43.4301 27.3721 42.2327 25.1938 41.7304ZM19.9072 39.2727C19.5951 40.4124 20.024 43.5061 24.2653 44.7337C24.083 42.6445 22.9721 39.9245 19.9072 39.2727ZM11.4967 42.3743C12.5843 43.4593 14.0179 44.1285 15.548 44.2653C17.0781 44.4021 18.6077 43.998 19.8705 43.1232C18.1708 42.2471 14.0895 41.0642 11.4967 42.3743ZM15.978 36.2025C15.3971 37.3251 15.2738 40.5238 19.0285 42.4491C19.2462 40.3901 18.4187 36.8688 15.978 36.2025ZM6.68887 37.4458C7.04234 38.1413 7.5335 38.7577 8.13252 39.2575C8.73154 39.7573 9.42591 40.1301 10.1735 40.3533C10.914 40.5707 11.6917 40.6317 12.4571 40.5324C13.2225 40.433 13.9588 40.1755 14.6194 39.7763C12.2521 37.5507 8.4751 36.6969 6.68887 37.4458ZM12.302 31.4825C10.618 34.4202 12.3977 37.775 14.2495 39.1533C15.0731 36.4228 14.3177 33.4471 12.3033 31.4825H12.302ZM3.56493 31.3553C3.36165 35.9179 8.12624 35.6701 10.3636 35.7002C9.65936 34.7415 5.7446 31.2661 3.56493 31.3553ZM9.44034 27.093C8.5551 28.0674 7.22657 31.813 10.1682 34.8688C11.0902 32.6589 11.2921 29.2661 9.44034 27.093ZM1.06788 25.0707C0.915752 28.756 4.01739 30.6209 7.00887 30.592C6.10919 28.8163 3.70395 25.3933 1.06788 25.0707ZM7.34329 22.5317C5.36034 23.6989 5.58592 27.4681 6.75575 29.4301C8.06985 27.6032 9.05083 25.333 7.34329 22.5317ZM0.936736 19.0786C-0.044248 22.4347 2.83838 24.7048 4.56821 24.8989C4.12493 23.2963 3.54395 20.4569 0.935424 19.0786H0.936736ZM6.9787 17.9625C4.79247 19.0576 3.75641 21.6766 4.57477 24.0373C6.10001 22.8084 7.93739 20.2091 6.9787 17.9625ZM0.834441 13.9022C-0.516379 17.9848 2.58526 19.3186 3.73936 19.6465C3.60165 17.9101 2.49739 14.4491 0.834441 13.9022ZM6.89215 12.8307C6.00559 13.0865 3.47837 15.1612 3.93608 18.8766C5.59903 17.9402 7.6187 16.1566 6.89215 12.8307ZM1.74985 7.71596C0.239031 12.7337 2.75969 14.794 3.58723 15.2045C3.71838 13.6176 3.87838 9.91006 1.74985 7.71596ZM7.34198 7.84187C5.75903 8.28383 3.76165 11.1901 3.85608 13.9848C5.4246 13.2661 7.77083 10.2773 7.34198 7.84187ZM6.86985 0.0595703C3.1951 3.8576 2.67969 6.85301 3.75378 10.5461C5.41805 9.04842 6.74657 4.554 6.86985 0.0595703Z" fill="#FC2A5F" />
<path d="M24.2924 19.6169V11.9169H26.5254L28.5164 17.4829L30.4524 11.9169H32.6854V19.6169H31.0904V16.4269L31.1454 14.1939C30.962 14.8833 30.753 15.5983 30.5184 16.3389L29.3084 19.6169H27.7354L26.4814 16.3059L25.8324 14.1719C25.8617 14.8833 25.8764 15.6276 25.8764 16.4049V19.6169H24.2924ZM36.4676 19.7709C35.6682 19.7709 34.9899 19.4959 34.4326 18.9459C33.8826 18.3886 33.6076 17.7103 33.6076 16.9109C33.6076 16.1116 33.8826 15.4369 34.4326 14.8869C34.9899 14.3369 35.6682 14.0619 36.4676 14.0619C37.2742 14.0619 37.9526 14.3369 38.5026 14.8869C39.0599 15.4369 39.3386 16.1116 39.3386 16.9109C39.3386 17.7103 39.0599 18.3886 38.5026 18.9459C37.9526 19.4959 37.2742 19.7709 36.4676 19.7709ZM35.4996 15.8989C35.2429 16.1703 35.1146 16.5076 35.1146 16.9109C35.1146 17.3143 35.2429 17.6553 35.4996 17.9339C35.7562 18.2053 36.0789 18.3409 36.4676 18.3409C36.8562 18.3409 37.1789 18.2053 37.4356 17.9339C37.6996 17.6553 37.8316 17.3143 37.8316 16.9109C37.8316 16.5076 37.6996 16.1703 37.4356 15.8989C37.1789 15.6276 36.8562 15.4919 36.4676 15.4919C36.0789 15.4919 35.7562 15.6276 35.4996 15.8989ZM40.2637 19.6169V14.2159H41.7707V14.7769C42.1887 14.3003 42.7094 14.0619 43.3327 14.0619C43.9487 14.0619 44.4437 14.2856 44.8177 14.7329C45.1917 15.1729 45.3787 15.7743 45.3787 16.5369V19.6169H43.8277V16.5809C43.8277 16.2656 43.7397 16.0053 43.5637 15.7999C43.395 15.5946 43.1604 15.4919 42.8597 15.4919C42.5517 15.4919 42.2987 15.5983 42.1007 15.8109C41.9027 16.0236 41.8037 16.3059 41.8037 16.6579V19.6169H40.2637ZM49.0126 19.7709C48.2133 19.7709 47.546 19.5033 47.0106 18.9679C46.4826 18.4326 46.2186 17.7653 46.2186 16.9659C46.2186 16.1593 46.501 15.4736 47.0656 14.9089C47.6303 14.3443 48.3013 14.0619 49.0786 14.0619C49.834 14.0619 50.4683 14.3186 50.9816 14.8319C51.495 15.3379 51.7516 15.9613 51.7516 16.7019C51.7516 16.9073 51.737 17.1126 51.7076 17.3179H47.7256C47.799 17.6773 47.9603 17.9633 48.2096 18.1759C48.459 18.3813 48.756 18.4839 49.1006 18.4839C49.35 18.4839 49.5736 18.4289 49.7716 18.3189C49.9696 18.2016 50.098 18.0549 50.1566 17.8789H51.6746C51.5426 18.4216 51.2383 18.8726 50.7616 19.2319C50.285 19.5913 49.702 19.7709 49.0126 19.7709ZM47.8136 16.2179H50.1786C50.1566 15.9686 50.0393 15.7559 49.8266 15.5799C49.6213 15.4039 49.3683 15.3159 49.0676 15.3159C48.789 15.3159 48.536 15.3966 48.3086 15.5579C48.0886 15.7119 47.9236 15.9319 47.8136 16.2179ZM51.8741 14.2159H53.5241L54.7341 17.3509L55.9331 14.2159H57.6051L54.4811 21.6849H52.8201L53.9421 19.1659L51.8741 14.2159ZM60.3432 19.6169V11.9169H62.7302C63.4342 11.9169 64.0062 12.1039 64.4462 12.4779C64.8935 12.8446 65.1172 13.3139 65.1172 13.8859C65.1172 14.2673 65.0145 14.6156 64.8092 14.9309C64.6038 15.2463 64.3655 15.4553 64.0942 15.5579C64.4315 15.6459 64.7175 15.8659 64.9522 16.2179C65.1942 16.5626 65.3152 16.9659 65.3152 17.4279C65.3152 18.0439 65.0805 18.5646 64.6112 18.9899C64.1418 19.4079 63.5772 19.6169 62.9172 19.6169H60.3432ZM61.9712 18.2639H62.7852C63.0345 18.2639 63.2398 18.1759 63.4012 17.9999C63.5698 17.8239 63.6542 17.6039 63.6542 17.3399C63.6542 17.0759 63.5735 16.8559 63.4122 16.6799C63.2508 16.4966 63.0455 16.4049 62.7962 16.4049H61.9712V18.2639ZM61.9712 15.0519H62.5432C62.8218 15.0519 63.0455 14.9676 63.2142 14.7989C63.3902 14.6229 63.4782 14.4066 63.4782 14.1499C63.4782 13.8933 63.3938 13.6843 63.2252 13.5229C63.0638 13.3543 62.8475 13.2699 62.5762 13.2699H61.9712V15.0519ZM67.9318 19.7709C67.3671 19.7709 66.9088 19.6206 66.5568 19.3199C66.2048 19.0119 66.0288 18.6123 66.0288 18.1209C66.0288 17.5563 66.2488 17.1089 66.6888 16.7789C67.1288 16.4489 67.7595 16.2839 68.5808 16.2839H69.3728V16.1629C69.3728 15.8989 69.2958 15.6936 69.1418 15.5469C68.9878 15.3929 68.7788 15.3159 68.5148 15.3159C68.2655 15.3159 68.0565 15.3819 67.8878 15.5139C67.7191 15.6459 67.6238 15.8219 67.6018 16.0419H66.0618C66.0985 15.4479 66.3441 14.9713 66.7988 14.6119C67.2535 14.2453 67.8365 14.0619 68.5478 14.0619C69.2738 14.0619 69.8495 14.2673 70.2748 14.6779C70.7075 15.0886 70.9238 15.6313 70.9238 16.3059V19.6169H69.4168V19.0999C69.0575 19.5473 68.5625 19.7709 67.9318 19.7709ZM67.5358 18.0109C67.5358 18.1869 67.5981 18.3299 67.7228 18.4399C67.8475 18.5426 68.0235 18.5939 68.2508 18.5939C68.5735 18.5939 68.8448 18.4766 69.0648 18.2419C69.2921 17.9999 69.4058 17.7139 69.4058 17.3839V17.3289H68.6138C67.8951 17.3289 67.5358 17.5563 67.5358 18.0109ZM74.6343 19.7709C73.835 19.7709 73.1603 19.4996 72.6103 18.9569C72.0603 18.4143 71.7853 17.7359 71.7853 16.9219C71.7853 16.1006 72.0603 15.4186 72.6103 14.8759C73.1603 14.3333 73.835 14.0619 74.6343 14.0619C75.3163 14.0619 75.9066 14.2709 76.4053 14.6889C76.9113 15.1069 77.1973 15.6313 77.2633 16.2619H75.7123C75.661 16.0566 75.529 15.8806 75.3163 15.7339C75.1036 15.5799 74.869 15.5029 74.6123 15.5029C74.2383 15.5029 73.9266 15.6349 73.6773 15.8989C73.428 16.1629 73.3033 16.5039 73.3033 16.9219C73.3033 17.3253 73.428 17.6626 73.6773 17.9339C73.9266 18.1979 74.2383 18.3299 74.6123 18.3299C74.8763 18.3299 75.1146 18.2529 75.3273 18.0989C75.54 17.9449 75.672 17.7506 75.7233 17.5159H77.2743C77.2156 18.1759 76.9333 18.7186 76.4273 19.1439C75.9286 19.5619 75.331 19.7709 74.6343 19.7709ZM78.1514 19.6169V11.9169H79.7024V16.3719L81.4624 14.2159H83.3324L81.1764 16.7899L83.5304 19.6169H81.5504L79.7024 17.2629V19.6169H78.1514ZM92.4916 18.6379C91.8023 19.3933 90.8966 19.7709 89.7746 19.7709C88.6526 19.7709 87.7213 19.3969 86.9806 18.6489C86.2399 17.8936 85.8696 16.9439 85.8696 15.7999C85.8696 14.6559 86.2509 13.6989 87.0136 12.9289C87.7836 12.1516 88.7296 11.7629 89.8516 11.7629C90.7829 11.7629 91.5566 12.0123 92.1726 12.5109C92.7959 13.0096 93.2066 13.6329 93.4046 14.3809H91.6006C91.4466 14.0436 91.2009 13.7759 90.8636 13.5779C90.5336 13.3799 90.1816 13.2809 89.8076 13.2809C89.1843 13.2809 88.6489 13.5156 88.2016 13.9849C87.7616 14.4469 87.5416 15.0373 87.5416 15.7559C87.5416 16.4893 87.7579 17.0906 88.1906 17.5599C88.6233 18.0219 89.1769 18.2529 89.8516 18.2529C90.4163 18.2529 90.8746 18.1026 91.2266 17.8019C91.5786 17.4939 91.7839 17.1236 91.8426 16.6909H89.6426V15.2059H93.5036C93.5256 15.4039 93.5366 15.6276 93.5366 15.8769C93.5366 16.9623 93.1883 17.8826 92.4916 18.6379ZM99.55 14.2159V19.6169H98.043V19.0559C97.625 19.5326 97.1043 19.7709 96.481 19.7709C95.865 19.7709 95.37 19.5509 94.996 19.1109C94.622 18.6636 94.435 18.0586 94.435 17.2959V14.2159H95.986V17.2519C95.986 17.5673 96.0703 17.8276 96.239 18.0329C96.415 18.2383 96.6533 18.3409 96.954 18.3409C97.262 18.3409 97.515 18.2346 97.713 18.0219C97.911 17.8093 98.01 17.5269 98.01 17.1749V14.2159H99.55ZM102.436 19.7709C101.871 19.7709 101.413 19.6206 101.061 19.3199C100.709 19.0119 100.533 18.6123 100.533 18.1209C100.533 17.5563 100.753 17.1089 101.193 16.7789C101.633 16.4489 102.263 16.2839 103.085 16.2839H103.877V16.1629C103.877 15.8989 103.8 15.6936 103.646 15.5469C103.492 15.3929 103.283 15.3159 103.019 15.3159C102.769 15.3159 102.56 15.3819 102.392 15.5139C102.223 15.6459 102.128 15.8219 102.106 16.0419H100.566C100.602 15.4479 100.848 14.9713 101.303 14.6119C101.757 14.2453 102.34 14.0619 103.052 14.0619C103.778 14.0619 104.353 14.2673 104.779 14.6779C105.211 15.0886 105.428 15.6313 105.428 16.3059V19.6169H103.921V19.0999C103.561 19.5473 103.066 19.7709 102.436 19.7709ZM102.04 18.0109C102.04 18.1869 102.102 18.3299 102.227 18.4399C102.351 18.5426 102.527 18.5939 102.755 18.5939C103.077 18.5939 103.349 18.4766 103.569 18.2419C103.796 17.9999 103.91 17.7139 103.91 17.3839V17.3289H103.118C102.399 17.3289 102.04 17.5563 102.04 18.0109ZM108.115 14.2159V14.8539C108.46 14.4286 108.882 14.2159 109.38 14.2159H109.93V15.5469H109.303C108.937 15.5469 108.647 15.6569 108.434 15.8769C108.222 16.0969 108.115 16.3976 108.115 16.7789V19.6169H106.575V14.2159H108.115ZM112.19 19.7709C111.625 19.7709 111.167 19.6206 110.815 19.3199C110.463 19.0119 110.287 18.6123 110.287 18.1209C110.287 17.5563 110.507 17.1089 110.947 16.7789C111.387 16.4489 112.017 16.2839 112.839 16.2839H113.631V16.1629C113.631 15.8989 113.554 15.6936 113.4 15.5469C113.246 15.3929 113.037 15.3159 112.773 15.3159C112.523 15.3159 112.314 15.3819 112.146 15.5139C111.977 15.6459 111.882 15.8219 111.86 16.0419H110.32C110.356 15.4479 110.602 14.9713 111.057 14.6119C111.511 14.2453 112.094 14.0619 112.806 14.0619C113.532 14.0619 114.107 14.2673 114.533 14.6779C114.965 15.0886 115.182 15.6313 115.182 16.3059V19.6169H113.675V19.0999C113.315 19.5473 112.82 19.7709 112.19 19.7709ZM111.794 18.0109C111.794 18.1869 111.856 18.3299 111.981 18.4399C112.105 18.5426 112.281 18.5939 112.509 18.5939C112.831 18.5939 113.103 18.4766 113.323 18.2419C113.55 17.9999 113.664 17.7139 113.664 17.3839V17.3289H112.872C112.153 17.3289 111.794 17.5563 111.794 18.0109ZM116.329 19.6169V14.2159H117.836V14.7769C118.254 14.3003 118.775 14.0619 119.398 14.0619C120.014 14.0619 120.509 14.2856 120.883 14.7329C121.257 15.1729 121.444 15.7743 121.444 16.5369V19.6169H119.893V16.5809C119.893 16.2656 119.805 16.0053 119.629 15.7999C119.46 15.5946 119.226 15.4919 118.925 15.4919C118.617 15.4919 118.364 15.5983 118.166 15.8109C117.968 16.0236 117.869 16.3059 117.869 16.6579V19.6169H116.329ZM122.022 15.5469V14.2159H122.99V12.8079H124.541V14.2159H125.894V15.5469H124.541V17.5709C124.541 18.0403 124.765 18.2749 125.212 18.2749H125.894V19.6169H125.003C123.661 19.6169 122.99 18.9716 122.99 17.6809V15.5469H122.022ZM129.203 19.7709C128.404 19.7709 127.736 19.5033 127.201 18.9679C126.673 18.4326 126.409 17.7653 126.409 16.9659C126.409 16.1593 126.691 15.4736 127.256 14.9089C127.821 14.3443 128.492 14.0619 129.269 14.0619C130.024 14.0619 130.659 14.3186 131.172 14.8319C131.685 15.3379 131.942 15.9613 131.942 16.7019C131.942 16.9073 131.927 17.1126 131.898 17.3179H127.916C127.989 17.6773 128.151 17.9633 128.4 18.1759C128.649 18.3813 128.946 18.4839 129.291 18.4839C129.54 18.4839 129.764 18.4289 129.962 18.3189C130.16 18.2016 130.288 18.0549 130.347 17.8789H131.865C131.733 18.4216 131.429 18.8726 130.952 19.2319C130.475 19.5913 129.892 19.7709 129.203 19.7709ZM128.004 16.2179H130.369C130.347 15.9686 130.23 15.7559 130.017 15.5799C129.812 15.4039 129.559 15.3159 129.258 15.3159C128.979 15.3159 128.726 15.3966 128.499 15.5579C128.279 15.7119 128.114 15.9319 128.004 16.2179ZM135.358 19.7709C134.559 19.7709 133.892 19.5033 133.356 18.9679C132.828 18.4326 132.564 17.7653 132.564 16.9659C132.564 16.1593 132.847 15.4736 133.411 14.9089C133.976 14.3443 134.647 14.0619 135.424 14.0619C136.18 14.0619 136.814 14.3186 137.327 14.8319C137.841 15.3379 138.097 15.9613 138.097 16.7019C138.097 16.9073 138.083 17.1126 138.053 17.3179H134.071C134.145 17.6773 134.306 17.9633 134.555 18.1759C134.805 18.3813 135.102 18.4839 135.446 18.4839C135.696 18.4839 135.919 18.4289 136.117 18.3189C136.315 18.2016 136.444 18.0549 136.502 17.8789H138.02C137.888 18.4216 137.584 18.8726 137.107 19.2319C136.631 19.5913 136.048 19.7709 135.358 19.7709ZM134.159 16.2179H136.524C136.502 15.9686 136.385 15.7559 136.172 15.5799C135.967 15.4039 135.714 15.3159 135.413 15.3159C135.135 15.3159 134.882 15.3966 134.654 15.5579C134.434 15.7119 134.269 15.9319 134.159 16.2179Z" fill="#FC2A5F" />
<path d="M56.1169 34.4001V45.6001H53.7489V38.4481H51.8769V36.2881H52.3569C52.8795 36.2881 53.2582 36.1761 53.4929 35.9521C53.7382 35.7174 53.8609 35.3601 53.8609 34.8801V34.4001H56.1169ZM57.8935 43.2641V41.1361L60.7895 34.4001H63.3335L60.4535 41.1201H62.6615V38.9121H64.9495V41.1201H66.3895V43.2641H64.9495V45.6001H62.5655V43.2641H57.8935ZM75.2229 34.4001C76.8655 34.4001 78.2202 34.9281 79.2869 35.9841C80.3535 37.0401 80.8869 38.3628 80.8869 39.9521C80.8869 41.5841 80.3535 42.9334 79.2869 44.0001C78.2309 45.0668 76.8762 45.6001 75.2229 45.6001H71.3989V34.4001H75.2229ZM73.7669 43.3441H75.3829C76.2682 43.3441 76.9989 43.0188 77.5749 42.3681C78.1615 41.7174 78.4549 40.9121 78.4549 39.9521C78.4549 39.0134 78.1615 38.2294 77.5749 37.6001C76.9989 36.9601 76.2682 36.6401 75.3829 36.6401H73.7669V43.3441ZM84.8712 45.8241C84.0499 45.8241 83.3832 45.6054 82.8712 45.1681C82.3592 44.7201 82.1032 44.1388 82.1032 43.4241C82.1032 42.6028 82.4232 41.9521 83.0632 41.4721C83.7032 40.9921 84.6206 40.7521 85.8152 40.7521H86.9672V40.5761C86.9672 40.1921 86.8552 39.8934 86.6312 39.6801C86.4072 39.4561 86.1032 39.3441 85.7192 39.3441C85.3566 39.3441 85.0526 39.4401 84.8072 39.6321C84.5619 39.8241 84.4232 40.0801 84.3912 40.4001H82.1512C82.2046 39.5361 82.5619 38.8428 83.2232 38.3201C83.8846 37.7868 84.7326 37.5201 85.7672 37.5201C86.8232 37.5201 87.6606 37.8188 88.2792 38.4161C88.9086 39.0134 89.2232 39.8028 89.2232 40.7841V45.6001H87.0312V44.8481C86.5086 45.4988 85.7886 45.8241 84.8712 45.8241ZM84.2952 43.2641C84.2952 43.5201 84.3859 43.7281 84.5672 43.8881C84.7486 44.0374 85.0046 44.1121 85.3352 44.1121C85.8046 44.1121 86.1992 43.9414 86.5192 43.6001C86.8499 43.2481 87.0152 42.8321 87.0152 42.3521V42.2721H85.8632C84.8179 42.2721 84.2952 42.6028 84.2952 43.2641ZM89.949 37.7441H92.349L94.109 42.3041L95.853 37.7441H98.285L93.741 48.6081H91.325L92.957 44.9441L89.949 37.7441ZM102.081 45.8241C101.1 45.8241 100.3 45.5894 99.6809 45.1201C99.0622 44.6401 98.7315 43.9841 98.6889 43.1521H100.817C100.838 43.4294 100.961 43.6534 101.185 43.8241C101.42 43.9948 101.724 44.0801 102.097 44.0801C102.438 44.0801 102.7 44.0161 102.881 43.8881C103.073 43.7494 103.169 43.5734 103.169 43.3601C103.169 43.1254 103.02 42.9441 102.721 42.8161C102.422 42.6881 102.054 42.5814 101.617 42.4961C101.19 42.4001 100.764 42.2881 100.337 42.1601C99.9102 42.0214 99.5475 41.7814 99.2489 41.4401C98.9502 41.0881 98.8009 40.6401 98.8009 40.0961C98.8009 39.3494 99.0835 38.7361 99.6489 38.2561C100.225 37.7654 100.972 37.5201 101.889 37.5201C102.817 37.5201 103.58 37.7388 104.177 38.1761C104.785 38.6028 105.132 39.2161 105.217 40.0161H103.041C102.988 39.7921 102.849 39.6001 102.625 39.4401C102.412 39.2801 102.161 39.2001 101.873 39.2001C101.585 39.2001 101.35 39.2588 101.169 39.3761C100.988 39.4934 100.897 39.6588 100.897 39.8721C100.897 40.0961 101.046 40.2668 101.345 40.3841C101.654 40.5014 102.028 40.6028 102.465 40.6881C102.902 40.7734 103.34 40.8854 103.777 41.0241C104.214 41.1521 104.582 41.3921 104.881 41.7441C105.19 42.0961 105.345 42.5494 105.345 43.1041C105.345 43.9041 105.041 44.5601 104.433 45.0721C103.836 45.5734 103.052 45.8241 102.081 45.8241Z" fill="#FC2A5F" />
</g>
<defs>
<clipPath id="clip0_3_552">
<rect width="160" height="48.5246" fill="white" transform="translate(0.5 0.0600586)" />
</clipPath>
</defs>
</svg>