<svg width="16" height="16" viewBox="0 0 16 16" fill="none" xmlns="http://www.w3.org/2000/svg">
    <g clip-path="url(#clip0_141_3039)">
    <path d="M9.33301 4.66667V0.306667C9.94971 0.539557 10.5099 0.900874 10.9763 1.36667L13.299 3.69067C13.7653 4.15659 14.1269 4.7166 14.3597 5.33333H9.99967C9.82286 5.33333 9.65329 5.2631 9.52827 5.13807C9.40325 5.01305 9.33301 4.84348 9.33301 4.66667ZM14.6663 6.99V12.6667C14.6653 13.5504 14.3138 14.3976 13.6889 15.0225C13.064 15.6474 12.2167 15.9989 11.333 16H4.66634C3.78261 15.9989 2.93538 15.6474 2.31049 15.0225C1.6856 14.3976 1.33407 13.5504 1.33301 12.6667V3.33333C1.33407 2.4496 1.6856 1.60237 2.31049 0.97748C2.93538 0.352588 3.78261 0.00105857 4.66634 0L7.67634 0C7.78501 0 7.89234 0.00866667 7.99967 0.016V4.66667C7.99967 5.1971 8.21039 5.70581 8.58546 6.08088C8.96053 6.45595 9.46924 6.66667 9.99967 6.66667H14.6503C14.6577 6.774 14.6663 6.88133 14.6663 6.99ZM9.33301 12.6667C9.33301 12.4899 9.26277 12.3203 9.13775 12.1953C9.01272 12.0702 8.84315 12 8.66634 12H5.33301C5.1562 12 4.98663 12.0702 4.8616 12.1953C4.73658 12.3203 4.66634 12.4899 4.66634 12.6667C4.66634 12.8435 4.73658 13.013 4.8616 13.1381C4.98663 13.2631 5.1562 13.3333 5.33301 13.3333H8.66634C8.84315 13.3333 9.01272 13.2631 9.13775 13.1381C9.26277 13.013 9.33301 12.8435 9.33301 12.6667ZM11.333 10C11.333 9.82319 11.2628 9.65362 11.1377 9.5286C11.0127 9.40357 10.8432 9.33333 10.6663 9.33333H5.33301C5.1562 9.33333 4.98663 9.40357 4.8616 9.5286C4.73658 9.65362 4.66634 9.82319 4.66634 10C4.66634 10.1768 4.73658 10.3464 4.8616 10.4714C4.98663 10.5964 5.1562 10.6667 5.33301 10.6667H10.6663C10.8432 10.6667 11.0127 10.5964 11.1377 10.4714C11.2628 10.3464 11.333 10.1768 11.333 10Z" fill="white" fill-opacity="0.7"/>
    </g>
    <defs>
    <clipPath id="clip0_141_3039">
    <rect width="16" height="16" fill="white"/>
    </clipPath>
    </defs>
    </svg>
    