<svg width="16" height="17" viewBox="0 0 16 17" fill="none" xmlns="http://www.w3.org/2000/svg">
    <g clip-path="url(#clip0_141_3048)">
    <path d="M15.142 2.83909C14.9545 2.61405 14.7197 2.43306 14.4544 2.30897C14.189 2.18488 13.8996 2.12074 13.6067 2.12109H2.828L2.8 1.88709C2.7427 1.40071 2.50892 0.952249 2.14299 0.626746C1.77706 0.301243 1.30442 0.121322 0.814667 0.121094L0.666667 0.121094C0.489856 0.121094 0.320286 0.191332 0.195262 0.316356C0.0702379 0.44138 0 0.610949 0 0.78776C0 0.964571 0.0702379 1.13414 0.195262 1.25917C0.320286 1.38419 0.489856 1.45443 0.666667 1.45443H0.814667C0.977956 1.45445 1.13556 1.5144 1.25758 1.6229C1.3796 1.73141 1.45756 1.88093 1.47667 2.04309L2.394 9.84309C2.48923 10.6543 2.87899 11.4023 3.48927 11.9451C4.09956 12.4879 4.8879 12.7878 5.70467 12.7878H12.6667C12.8435 12.7878 13.013 12.7175 13.1381 12.5925C13.2631 12.4675 13.3333 12.2979 13.3333 12.1211C13.3333 11.9443 13.2631 11.7747 13.1381 11.6497C13.013 11.5247 12.8435 11.4544 12.6667 11.4544H5.70467C5.29204 11.4533 4.88987 11.3245 4.55329 11.0858C4.21671 10.8471 3.96221 10.5101 3.82467 10.1211H11.7713C12.5529 10.1211 13.3096 9.84658 13.9092 9.34539C14.5089 8.84419 14.9134 8.14823 15.052 7.37909L15.5753 4.47643C15.6276 4.18843 15.6158 3.89247 15.5409 3.60952C15.4661 3.32657 15.3299 3.06354 15.142 2.83909Z" fill="white" fill-opacity="0.7"/>
    <path d="M4.66634 16.1217C5.40272 16.1217 5.99967 15.5248 5.99967 14.7884C5.99967 14.052 5.40272 13.4551 4.66634 13.4551C3.92996 13.4551 3.33301 14.052 3.33301 14.7884C3.33301 15.5248 3.92996 16.1217 4.66634 16.1217Z" fill="white" fill-opacity="0.7"/>
    <path d="M11.3333 16.1217C12.0697 16.1217 12.6667 15.5248 12.6667 14.7884C12.6667 14.052 12.0697 13.4551 11.3333 13.4551C10.597 13.4551 10 14.052 10 14.7884C10 15.5248 10.597 16.1217 11.3333 16.1217Z" fill="white" fill-opacity="0.7"/>
    </g>
    <defs>
    <clipPath id="clip0_141_3048">
    <rect width="16" height="16" fill="white" transform="translate(0 0.121094)"/>
    </clipPath>
    </defs>
    </svg>
    