<svg width="28" height="28" viewBox="0 0 28 28" fill="none" xmlns="http://www.w3.org/2000/svg">
    <path d="M3.5 8.16667V5.83333C3.5 5.21449 3.74583 4.621 4.18342 4.18342C4.621 3.74583 5.21449 3.5 5.83333 3.5H8.16667" stroke="#3855B3" stroke-width="2" stroke-linecap="round" stroke-linejoin="round"/>
    <path d="M19.8335 3.5H22.1668C22.7857 3.5 23.3792 3.74583 23.8167 4.18342C24.2543 4.621 24.5002 5.21449 24.5002 5.83333V8.16667" stroke="#3855B3" stroke-width="2" stroke-linecap="round" stroke-linejoin="round"/>
    <path d="M24.5002 19.833V22.1663C24.5002 22.7852 24.2543 23.3787 23.8167 23.8163C23.3792 24.2538 22.7857 24.4997 22.1668 24.4997H19.8335" stroke="#3855B3" stroke-width="2" stroke-linecap="round" stroke-linejoin="round"/>
    <path d="M8.16667 24.4997H5.83333C5.21449 24.4997 4.621 24.2538 4.18342 23.8163C3.74583 23.3787 3.5 22.7852 3.5 22.1663V19.833" stroke="#3855B3" stroke-width="2" stroke-linecap="round" stroke-linejoin="round"/>
    <path d="M14.0002 15.1663C14.6445 15.1663 15.1668 14.644 15.1668 13.9997C15.1668 13.3553 14.6445 12.833 14.0002 12.833C13.3558 12.833 12.8335 13.3553 12.8335 13.9997C12.8335 14.644 13.3558 15.1663 14.0002 15.1663Z" stroke="#3855B3" stroke-width="2" stroke-linecap="round" stroke-linejoin="round"/>
    <path d="M5.8335 14.0003C5.8335 14.0003 8.75016 8.16699 14.0002 8.16699C19.2502 8.16699 22.1668 14.0003 22.1668 14.0003C22.1668 14.0003 19.2502 19.8337 14.0002 19.8337C8.75016 19.8337 5.8335 14.0003 5.8335 14.0003Z" stroke="#3855B3" stroke-width="2" stroke-linecap="round" stroke-linejoin="round"/>
    </svg>
    