<svg width="15" height="16" viewBox="0 0 15 16" fill="none" xmlns="http://www.w3.org/2000/svg">
    <path d="M10 13.625V12.375C10 11.712 9.73661 11.0761 9.26777 10.6072C8.79893 10.1384 8.16304 9.875 7.5 9.875H3.75C3.08696 9.875 2.45107 10.1384 1.98223 10.6072C1.51339 11.0761 1.25 11.712 1.25 12.375V13.625" stroke="#141414" stroke-opacity="0.9" stroke-width="2" stroke-linecap="round" stroke-linejoin="round"/>
    <path d="M5.625 7.375C7.00571 7.375 8.125 6.25571 8.125 4.875C8.125 3.49429 7.00571 2.375 5.625 2.375C4.24429 2.375 3.125 3.49429 3.125 4.875C3.125 6.25571 4.24429 7.375 5.625 7.375Z" stroke="#141414" stroke-opacity="0.9" stroke-width="2" stroke-linecap="round" stroke-linejoin="round"/>
    <path d="M13.75 13.6248V12.3748C13.7496 11.8209 13.5652 11.2828 13.2259 10.845C12.8865 10.4072 12.4113 10.0945 11.875 9.95605" stroke="#141414" stroke-opacity="0.9" stroke-width="2" stroke-linecap="round" stroke-linejoin="round"/>
    <path d="M10 2.45605C10.5378 2.59374 11.0144 2.90649 11.3548 3.345C11.6952 3.7835 11.8799 4.32282 11.8799 4.87793C11.8799 5.43304 11.6952 5.97235 11.3548 6.41086C11.0144 6.84937 10.5378 7.16212 10 7.2998" stroke="#141414" stroke-opacity="0.9" stroke-width="2" stroke-linecap="round" stroke-linejoin="round"/>
    </svg>
    