<svg width="30" height="30" viewBox="0 0 30 30" fill="none" xmlns="http://www.w3.org/2000/svg">
    <path d="M28.1252 7.49999H27.0086L25.7319 4.94659C25.693 4.86873 25.6332 4.80326 25.5591 4.75749C25.4851 4.71173 25.3997 4.68749 25.3127 4.68749H24.8439V3.28124C24.8439 3.21477 24.8298 3.14907 24.8025 3.08849C24.7751 3.0279 24.7352 2.97382 24.6854 2.92984C24.6356 2.88585 24.577 2.85297 24.5135 2.83336C24.45 2.81375 24.383 2.80788 24.3171 2.81612L20.5671 3.28487C20.4537 3.29904 20.3494 3.35412 20.2738 3.43977C20.1982 3.52542 20.1564 3.63573 20.1564 3.74999V4.68749H15.4689C15.3918 4.68749 15.3158 4.70655 15.2478 4.74297C15.1797 4.77939 15.1217 4.83204 15.0789 4.89626L13.3431 7.49999H12.1877C12.0634 7.49999 11.9441 7.54937 11.8562 7.63728C11.7683 7.72519 11.7189 7.84442 11.7189 7.96874V8.91755C11.5627 8.91022 11.4061 8.90624 11.2502 8.90624C9.89929 8.90841 8.56263 9.18231 7.31975 9.71163C6.07686 10.241 4.95316 11.0149 4.01551 11.9874C2.22922 13.8492 1.30262 16.2578 1.40685 18.7694C1.52363 21.589 2.37939 23.7832 4.01721 25.4554C3.76678 25.6162 3.53426 25.8034 3.32363 26.0136L1.54373 27.7935C1.47817 27.8591 1.43352 27.9426 1.41543 28.0335C1.39735 28.1245 1.40663 28.2187 1.44211 28.3044C1.47759 28.39 1.53767 28.4633 1.61476 28.5148C1.69185 28.5663 1.78248 28.5938 1.87519 28.5938H25.7814C25.8994 28.5938 26.013 28.5493 26.0996 28.4693C26.1862 28.3892 26.2395 28.2795 26.2488 28.1619L27.6209 10.7812H28.1252C28.2495 10.7812 28.3687 10.7319 28.4567 10.6439C28.5446 10.556 28.5939 10.4368 28.5939 10.3125V7.96874C28.5939 7.84442 28.5446 7.72519 28.4567 7.63728C28.3687 7.54937 28.2495 7.49999 28.1252 7.49999ZM21.0939 4.16383L23.9064 3.81227V4.68749H21.0939V4.16383ZM15.7198 5.62499H25.023L25.9605 7.49999H14.4698L15.7198 5.62499ZM11.7189 9.85616V10.3125C11.7189 10.4368 11.7683 10.556 11.8562 10.6439C11.9441 10.7319 12.0634 10.7812 12.1877 10.7812H12.692L12.8107 12.2846C12.5089 12.4169 12.2925 12.6109 12.1084 12.7768C11.8361 13.0216 11.6561 13.1836 11.2502 13.1836C10.8443 13.1836 10.6643 13.0216 10.3918 12.7766C10.071 12.488 9.67197 12.1289 8.90644 12.1289C8.14092 12.1289 7.74166 12.488 7.42109 12.7766C7.14863 13.0216 6.96863 13.1836 6.56269 13.1836C6.15676 13.1836 5.97676 13.0216 5.70447 12.7766C5.52359 12.6138 5.31775 12.4287 5.03521 12.2981C6.72269 10.7246 8.94296 9.84782 11.2502 9.84374C11.4062 9.84374 11.5628 9.84807 11.7189 9.85616ZM10.1891 20.8818C10.0998 20.959 10.0146 21.0369 9.93324 21.1144C9.18734 20.5478 8.67207 19.604 8.67207 18.75C8.67195 18.2308 8.81557 17.7218 9.08699 17.2793C9.35842 16.8367 9.74706 16.478 10.2099 16.2427C10.6727 16.0075 11.1916 15.905 11.709 15.9465C12.2265 15.9881 12.7224 16.1721 13.1417 16.4782L13.3875 19.5912C12.2895 19.5729 11.1946 20.0123 10.1891 20.8818ZM2.34336 18.7306C2.25781 16.6659 2.95092 14.6768 4.30361 13.0692C4.65113 13.0907 4.82451 13.2462 5.07705 13.4735C5.39779 13.762 5.79681 14.1211 6.56269 14.1211C7.32857 14.1211 7.72748 13.762 8.0481 13.4734C8.32051 13.2283 8.50015 13.0664 8.90644 13.0664C9.31273 13.0664 9.49238 13.2283 9.76478 13.4734C10.0852 13.762 10.4842 14.1211 11.2502 14.1211C12.0162 14.1211 12.415 13.762 12.7357 13.4734C12.7913 13.4234 12.8431 13.3768 12.8939 13.3343L13.0525 15.3438C12.4812 15.0806 11.8529 14.9654 11.2253 15.0087C10.5978 15.052 9.99128 15.2526 9.46159 15.5919C8.9319 15.9311 8.49608 16.3982 8.19428 16.9501C7.89248 17.502 7.73439 18.121 7.73457 18.75C7.73457 19.8697 8.35566 21.0565 9.29275 21.8037C9.12635 22.0056 9.00019 22.1787 8.91775 22.2984C7.96408 22.5439 7.1856 22.9575 6.5934 23.5388C6.21945 23.8974 5.92973 24.3345 5.74513 24.8186C5.46084 24.8572 5.18116 24.9244 4.91035 25.0191C3.27476 23.4775 2.45709 21.4708 2.34353 18.7306H2.34336ZM3.98656 26.6766C4.38815 26.2773 4.88578 25.9881 5.43154 25.8369C5.97729 25.6858 6.55278 25.6777 7.10258 25.8134L8.79277 26.236L9.02017 25.3266L7.32998 24.904C7.1495 24.8589 6.9662 24.826 6.78131 24.8054C7.17693 24.1121 8.27978 22.9687 11.2502 22.9687H12.6564V22.0312H11.2502C10.9221 22.0312 10.6078 22.0455 10.3051 22.0709C10.9773 21.3508 12.0903 20.4667 13.4617 20.5312L14.0242 27.6562H3.00681L3.98656 26.6766ZM25.3482 27.6562H14.9647L13.6324 10.7812H26.6805L25.3482 27.6562ZM27.6564 9.84374H12.6564V8.43749H27.6564V9.84374Z" fill="#181819" fill-opacity="0.6"/>
    <path d="M20.3906 21.5625C21.0859 21.5625 21.7657 21.3563 22.3438 20.97C22.9219 20.5837 23.3725 20.0346 23.6386 19.3922C23.9047 18.7499 23.9743 18.043 23.8387 17.361C23.703 16.679 23.3682 16.0526 22.8765 15.561C22.3849 15.0693 21.7584 14.7345 21.0765 14.5988C20.3945 14.4632 19.6876 14.5328 19.0453 14.7989C18.4029 15.065 17.8538 15.5156 17.4675 16.0937C17.0812 16.6718 16.875 17.3516 16.875 18.0469C16.8761 18.979 17.2468 19.8726 17.9059 20.5316C18.5649 21.1907 19.4585 21.5614 20.3906 21.5625ZM20.3906 15.4688C20.9005 15.4688 21.399 15.62 21.8229 15.9032C22.2469 16.1865 22.5774 16.5892 22.7725 17.0603C22.9676 17.5314 23.0187 18.0497 22.9192 18.5498C22.8197 19.05 22.5742 19.5093 22.2136 19.8699C21.8531 20.2304 21.3937 20.476 20.8936 20.5755C20.3935 20.6749 19.8751 20.6239 19.404 20.4288C18.9329 20.2336 18.5303 19.9032 18.247 19.4792C17.9637 19.0552 17.8125 18.5568 17.8125 18.0469C17.8133 17.3634 18.0851 16.708 18.5685 16.2247C19.0518 15.7414 19.7071 15.4695 20.3906 15.4688Z" fill="#181819" fill-opacity="0.6"/>
    <path d="M5.625 20.625H6.5625V21.5625H5.625V20.625Z" fill="#181819" fill-opacity="0.6"/>
    <path d="M3.28125 19.2188H4.21875V20.1562H3.28125V19.2188Z" fill="#181819" fill-opacity="0.6"/>
    <path d="M3.28125 16.875H4.21875V17.8125H3.28125V16.875Z" fill="#181819" fill-opacity="0.6"/>
    <path d="M6.09375 15.4688H7.03125V16.4062H6.09375V15.4688Z" fill="#181819" fill-opacity="0.6"/>
    <path d="M5.625 18.2812H6.5625V19.2188H5.625V18.2812Z" fill="#181819" fill-opacity="0.6"/>
    <path d="M20.625 25.7812H22.0312V26.7188H20.625V25.7812Z" fill="#181819" fill-opacity="0.6"/>
    <path d="M22.5 25.7812H23.9062V26.7188H22.5V25.7812Z" fill="#181819" fill-opacity="0.6"/>
    </svg>
    