<svg width="64" height="64" viewBox="0 0 64 64" fill="none" xmlns="http://www.w3.org/2000/svg">
    <g filter="url(#filter0_d_588_9054)">
    <circle cx="32" cy="28" r="24" fill="white"/>
    </g>
    <path d="M40 20H28C26.8954 20 26 20.8954 26 22V31C26 32.1046 26.8954 33 28 33H40C41.1046 33 42 32.1046 42 31V22C42 20.8954 41.1046 20 40 20Z" stroke="#3855B3" stroke-opacity="0.9" stroke-width="2" stroke-linecap="round" stroke-linejoin="round"/>
    <path d="M42 23L34.9 26.78C34.33 27.08 33.67 27.08 33.1 26.78L26 23" stroke="#3855B3" stroke-opacity="0.9" stroke-width="2" stroke-linecap="round" stroke-linejoin="round"/>
    <path d="M22 24V35C22 36.1 22.9 37 24 37H38" stroke="#3855B3" stroke-opacity="0.9" stroke-width="2" stroke-linecap="round" stroke-linejoin="round"/>
    <defs>
    <filter id="filter0_d_588_9054" x="0" y="0" width="64" height="64" filterUnits="userSpaceOnUse" color-interpolation-filters="sRGB">
    <feFlood flood-opacity="0" result="BackgroundImageFix"/>
    <feColorMatrix in="SourceAlpha" type="matrix" values="0 0 0 0 0 0 0 0 0 0 0 0 0 0 0 0 0 0 127 0" result="hardAlpha"/>
    <feOffset dy="4"/>
    <feGaussianBlur stdDeviation="4"/>
    <feColorMatrix type="matrix" values="0 0 0 0 0 0 0 0 0 0 0 0 0 0 0 0 0 0 0.08 0"/>
    <feBlend mode="normal" in2="BackgroundImageFix" result="effect1_dropShadow_588_9054"/>
    <feBlend mode="normal" in="SourceGraphic" in2="effect1_dropShadow_588_9054" result="shape"/>
    </filter>
    </defs>
    </svg>
    