<svg width="18" height="19" viewBox="0 0 18 19" fill="none" xmlns="http://www.w3.org/2000/svg">
    <g clip-path="url(#clip0_141_3061)">
    <path d="M9 0.121094C7.21997 0.121094 5.47991 0.648935 3.99987 1.63787C2.51983 2.6268 1.36628 4.03241 0.685088 5.67694C0.00389957 7.32148 -0.17433 9.13108 0.172937 10.8769C0.520204 12.6227 1.37737 14.2264 2.63604 15.4851C3.89472 16.7437 5.49836 17.6009 7.24419 17.9482C8.99002 18.2954 10.7996 18.1172 12.4442 17.436C14.0887 16.7548 15.4943 15.6013 16.4832 14.1212C17.4722 12.6412 18 10.9011 18 9.12109C17.9974 6.73494 17.0484 4.44725 15.3611 2.75998C13.6738 1.07271 11.3862 0.123675 9 0.121094V0.121094ZM9 15.1211C8.85167 15.1211 8.70666 15.0771 8.58333 14.9947C8.45999 14.9123 8.36386 14.7952 8.30709 14.6581C8.25033 14.5211 8.23548 14.3703 8.26442 14.2248C8.29335 14.0793 8.36479 13.9457 8.46967 13.8408C8.57456 13.7359 8.7082 13.6644 8.85369 13.6355C8.99917 13.6066 9.14997 13.6214 9.28702 13.6782C9.42406 13.735 9.54119 13.8311 9.62361 13.9544C9.70602 14.0778 9.75 14.2228 9.75 14.3711C9.75 14.57 9.67099 14.7608 9.53033 14.9014C9.38968 15.0421 9.19892 15.1211 9 15.1211ZM10.4475 9.50059C10.2262 9.63898 10.0452 9.8332 9.92275 10.0637C9.8003 10.2943 9.74073 10.553 9.75 10.8138V11.3711C9.75 11.57 9.67099 11.7608 9.53033 11.9014C9.38968 12.0421 9.19892 12.1211 9 12.1211C8.80109 12.1211 8.61033 12.0421 8.46967 11.9014C8.32902 11.7608 8.25 11.57 8.25 11.3711V10.8138C8.23892 10.2847 8.36968 9.76216 8.6287 9.30056C8.88772 8.83897 9.26556 8.45512 9.723 8.18884C10.0001 8.03622 10.2219 7.79989 10.3566 7.51365C10.4913 7.2274 10.532 6.9059 10.473 6.59509C10.4146 6.299 10.2692 6.02704 10.0554 5.81396C9.84169 5.60088 9.56928 5.45636 9.273 5.39884C9.0568 5.35883 8.83443 5.36683 8.62166 5.42229C8.40889 5.47775 8.21091 5.57931 8.04174 5.71978C7.87258 5.86025 7.73637 6.03619 7.64275 6.23515C7.54913 6.43411 7.5004 6.65121 7.5 6.87109C7.5 7.07001 7.42099 7.26077 7.28033 7.40142C7.13968 7.54208 6.94892 7.62109 6.75 7.62109C6.55109 7.62109 6.36033 7.54208 6.21967 7.40142C6.07902 7.26077 6 7.07001 6 6.87109C6.00019 6.34197 6.14032 5.82232 6.40617 5.36483C6.67202 4.90735 7.05414 4.52832 7.51377 4.26618C7.97339 4.00405 8.49417 3.86814 9.02327 3.87225C9.55238 3.87635 10.071 4.02032 10.5265 4.28955C10.982 4.55878 11.3582 4.94369 11.6169 5.40525C11.8756 5.8668 12.0077 6.38857 11.9997 6.91763C11.9916 7.44669 11.8438 7.96421 11.5712 8.41771C11.2986 8.87121 10.911 9.24454 10.4475 9.49984V9.50059Z" fill="white" fill-opacity="0.7"/>
    </g>
    <defs>
    <clipPath id="clip0_141_3061">
    <rect width="18" height="18" fill="white" transform="translate(0 0.121094)"/>
    </clipPath>
    </defs>
    </svg>
    