<svg width="24" height="24" viewBox="0 0 24 24" fill="none" xmlns="http://www.w3.org/2000/svg">
    <path d="M12 8C13.6569 8 15 6.65685 15 5C15 3.34315 13.6569 2 12 2C10.3431 2 9 3.34315 9 5C9 6.65685 10.3431 8 12 8Z" stroke="#3855B3" stroke-opacity="0.9" stroke-width="2" stroke-linecap="round" stroke-linejoin="round"/>
    <path d="M6.49973 8C6.06698 8.00449 5.64737 8.14923 5.30388 8.41248C4.96039 8.67573 4.71155 9.0433 4.59473 9.46L2.09973 18.5C2.02413 18.7926 2.01582 19.0985 2.07541 19.3947C2.135 19.691 2.26096 19.9699 2.44381 20.2105C2.62666 20.4511 2.86165 20.6471 3.13114 20.7839C3.40062 20.9206 3.69759 20.9945 3.99973 21H19.9997C20.3084 20.9999 20.6129 20.9283 20.8893 20.7909C21.1657 20.6535 21.4065 20.454 21.593 20.208C21.7794 19.962 21.9064 19.6762 21.9639 19.3729C22.0215 19.0697 22.0081 18.7572 21.9247 18.46L19.3997 9.5C19.2896 9.07341 19.0417 8.69512 18.6945 8.42388C18.3473 8.15265 17.9203 8.00364 17.4797 8H6.49973Z" stroke="#3855B3" stroke-opacity="0.9" stroke-width="2" stroke-linecap="round" stroke-linejoin="round"/>
    </svg>
    