<svg width="14" height="16" viewBox="0 0 14 16" fill="none" xmlns="http://www.w3.org/2000/svg">
    <path d="M2.00018 9.24967C1.88191 9.25008 1.76595 9.21691 1.66577 9.15404C1.5656 9.09116 1.48532 9.00115 1.43427 8.89446C1.38322 8.78777 1.36349 8.66879 1.37737 8.55134C1.39124 8.43388 1.43817 8.32277 1.51268 8.23092L7.70018 1.85592C7.74659 1.80235 7.80984 1.76615 7.87954 1.75326C7.94924 1.74037 8.02126 1.75156 8.08376 1.78499C8.14626 1.81842 8.19554 1.87211 8.22351 1.93724C8.25148 2.00237 8.25648 2.07508 8.23768 2.14342L7.03768 5.90592C7.00229 6.00063 6.99041 6.1025 7.00305 6.2028C7.01569 6.30311 7.05247 6.39885 7.11023 6.48182C7.168 6.56478 7.24504 6.6325 7.33473 6.67915C7.42441 6.7258 7.52408 6.75 7.62518 6.74967H12.0002C12.1185 6.74927 12.2344 6.78244 12.3346 6.84531C12.4348 6.90819 12.515 6.9982 12.5661 7.10489C12.6171 7.21158 12.6369 7.33056 12.623 7.44801C12.6091 7.56547 12.5622 7.67658 12.4877 7.76842L6.30018 14.1434C6.25376 14.197 6.19052 14.2332 6.12081 14.2461C6.05111 14.259 5.9791 14.2478 5.9166 14.2144C5.85409 14.1809 5.80481 14.1272 5.77684 14.0621C5.74887 13.997 5.74388 13.9243 5.76268 13.8559L6.96268 10.0934C6.99806 9.99872 7.00995 9.89685 6.99731 9.79655C6.98467 9.69624 6.94789 9.6005 6.89012 9.51753C6.83235 9.43457 6.75532 9.36685 6.66563 9.3202C6.57594 9.27355 6.47627 9.24935 6.37518 9.24967H2.00018Z" fill="white" stroke="white" stroke-width="2" stroke-linecap="round" stroke-linejoin="round"/>
    </svg>
    